G04 EAGLE Gerber RS-274X export*
G75*
%MOMM*%
%FSLAX34Y34*%
%LPD*%
%INBottom Copper*%
%IPPOS*%
%AMOC8*
5,1,8,0,0,1.08239X$1,22.5*%
G01*
%ADD10C,1.270000*%
%ADD11C,1.158000*%
%ADD12C,1.200000*%
%ADD13C,0.711200*%
%ADD14C,0.254000*%

G36*
X6259Y3813D02*
X6259Y3813D01*
X6297Y3812D01*
X7941Y3880D01*
X7947Y3879D01*
X8028Y3848D01*
X8100Y3839D01*
X8171Y3821D01*
X8331Y3811D01*
X266590Y3811D01*
X266605Y3813D01*
X266644Y3812D01*
X266894Y3823D01*
X266920Y3827D01*
X266946Y3826D01*
X267105Y3850D01*
X267382Y3909D01*
X267528Y3960D01*
X267674Y4010D01*
X267680Y4013D01*
X267683Y4014D01*
X267689Y4019D01*
X267814Y4090D01*
X268334Y4431D01*
X268390Y4480D01*
X268452Y4520D01*
X268510Y4583D01*
X268575Y4638D01*
X268618Y4699D01*
X268668Y4753D01*
X268753Y4890D01*
X269049Y5437D01*
X269104Y5580D01*
X269161Y5724D01*
X269162Y5731D01*
X269163Y5733D01*
X269164Y5741D01*
X269191Y5883D01*
X269230Y6193D01*
X269230Y6198D01*
X269233Y6249D01*
X269237Y6269D01*
X269235Y6289D01*
X269239Y6350D01*
X269239Y6360D01*
X269239Y6361D01*
X268985Y314087D01*
X268983Y314102D01*
X268984Y314141D01*
X268973Y314392D01*
X268969Y314418D01*
X268970Y314444D01*
X268946Y314603D01*
X268887Y314880D01*
X268836Y315026D01*
X268786Y315172D01*
X268783Y315178D01*
X268782Y315181D01*
X268777Y315187D01*
X268706Y315312D01*
X268365Y315832D01*
X268316Y315888D01*
X268276Y315950D01*
X268213Y316008D01*
X268158Y316073D01*
X268097Y316116D01*
X268043Y316166D01*
X267906Y316251D01*
X267359Y316547D01*
X267214Y316603D01*
X267072Y316659D01*
X267065Y316660D01*
X267063Y316661D01*
X267055Y316662D01*
X266913Y316689D01*
X266603Y316728D01*
X266598Y316728D01*
X266446Y316737D01*
X131796Y316737D01*
X131782Y316735D01*
X131655Y316729D01*
X131376Y316698D01*
X131250Y316668D01*
X131121Y316643D01*
X131083Y316628D01*
X131067Y316624D01*
X131048Y316614D01*
X130972Y316583D01*
X130843Y316522D01*
X130772Y316477D01*
X130697Y316440D01*
X130583Y316356D01*
X130575Y316351D01*
X130573Y316348D01*
X130568Y316344D01*
X129694Y315604D01*
X129669Y315577D01*
X129640Y315555D01*
X129530Y315437D01*
X128830Y314578D01*
X128826Y314577D01*
X128688Y314545D01*
X128550Y314517D01*
X128534Y314510D01*
X128516Y314505D01*
X128391Y314440D01*
X128264Y314379D01*
X128244Y314364D01*
X128234Y314359D01*
X128219Y314346D01*
X128134Y314283D01*
X100606Y290961D01*
X100599Y290953D01*
X100500Y290860D01*
X98969Y289222D01*
X94248Y287363D01*
X91891Y287524D01*
X91870Y287523D01*
X91804Y287527D01*
X6916Y287527D01*
X6907Y287526D01*
X6887Y287527D01*
X6156Y287510D01*
X6117Y287505D01*
X6078Y287506D01*
X5919Y287483D01*
X5668Y287429D01*
X5523Y287378D01*
X5376Y287328D01*
X5370Y287325D01*
X5367Y287324D01*
X5361Y287320D01*
X5236Y287248D01*
X4716Y286907D01*
X4660Y286858D01*
X4598Y286818D01*
X4540Y286755D01*
X4475Y286700D01*
X4432Y286639D01*
X4382Y286585D01*
X4297Y286448D01*
X4001Y285901D01*
X3945Y285756D01*
X3889Y285614D01*
X3888Y285607D01*
X3887Y285605D01*
X3886Y285597D01*
X3859Y285455D01*
X3820Y285145D01*
X3820Y285140D01*
X3811Y284988D01*
X3811Y6028D01*
X3814Y5999D01*
X3812Y5970D01*
X3830Y5810D01*
X3871Y5573D01*
X3874Y5564D01*
X3874Y5555D01*
X3920Y5413D01*
X3964Y5269D01*
X3969Y5261D01*
X3972Y5252D01*
X4050Y5111D01*
X4333Y4665D01*
X4392Y4593D01*
X4443Y4516D01*
X4492Y4471D01*
X4535Y4419D01*
X4610Y4365D01*
X4679Y4303D01*
X4779Y4243D01*
X4793Y4232D01*
X4800Y4229D01*
X4816Y4220D01*
X5285Y3975D01*
X5293Y3971D01*
X5301Y3966D01*
X5442Y3916D01*
X5583Y3864D01*
X5592Y3863D01*
X5601Y3860D01*
X5760Y3835D01*
X5976Y3816D01*
X5997Y3817D01*
X6089Y3811D01*
X6244Y3811D01*
X6259Y3813D01*
G37*
%LPC*%
G36*
X117607Y8762D02*
X117607Y8762D01*
X115740Y9536D01*
X114311Y10965D01*
X113502Y12918D01*
X113494Y12931D01*
X113490Y12945D01*
X113416Y13069D01*
X113344Y13194D01*
X113334Y13205D01*
X113326Y13218D01*
X113224Y13319D01*
X113123Y13423D01*
X113110Y13431D01*
X113100Y13441D01*
X112975Y13514D01*
X112852Y13589D01*
X112838Y13593D01*
X112825Y13601D01*
X112686Y13640D01*
X112548Y13683D01*
X112533Y13683D01*
X112519Y13687D01*
X112374Y13691D01*
X112230Y13698D01*
X112216Y13695D01*
X112201Y13695D01*
X112061Y13663D01*
X111919Y13634D01*
X111905Y13627D01*
X111891Y13624D01*
X111763Y13558D01*
X111633Y13494D01*
X111622Y13484D01*
X111609Y13477D01*
X111502Y13382D01*
X111391Y13287D01*
X111382Y13275D01*
X111372Y13265D01*
X111274Y13138D01*
X110794Y12420D01*
X109604Y11230D01*
X108812Y10701D01*
X108716Y10617D01*
X108641Y10558D01*
X108619Y10546D01*
X108577Y10531D01*
X108437Y10450D01*
X108275Y10342D01*
X108221Y10295D01*
X108161Y10256D01*
X108084Y10182D01*
X108045Y10170D01*
X108010Y10154D01*
X107972Y10145D01*
X107866Y10088D01*
X107756Y10038D01*
X107726Y10013D01*
X107692Y9995D01*
X107567Y9894D01*
X107544Y9873D01*
X107487Y9860D01*
X107454Y9849D01*
X107420Y9843D01*
X107305Y9795D01*
X107187Y9753D01*
X107159Y9733D01*
X107127Y9720D01*
X106993Y9630D01*
X106949Y9596D01*
X106920Y9593D01*
X106883Y9583D01*
X106845Y9580D01*
X106730Y9543D01*
X106613Y9512D01*
X106579Y9493D01*
X106543Y9481D01*
X106402Y9403D01*
X106361Y9377D01*
X106314Y9375D01*
X106276Y9369D01*
X106238Y9370D01*
X106120Y9342D01*
X106001Y9322D01*
X105966Y9306D01*
X105928Y9298D01*
X105781Y9232D01*
X105750Y9216D01*
X105693Y9219D01*
X105658Y9216D01*
X105623Y9220D01*
X105500Y9203D01*
X105376Y9192D01*
X105343Y9181D01*
X105308Y9176D01*
X105155Y9124D01*
X105107Y9104D01*
X105062Y9110D01*
X105025Y9111D01*
X104990Y9118D01*
X104867Y9111D01*
X104744Y9112D01*
X104709Y9103D01*
X104672Y9101D01*
X104516Y9063D01*
X104466Y9047D01*
X104437Y9054D01*
X104398Y9057D01*
X104360Y9069D01*
X104240Y9072D01*
X104121Y9084D01*
X104081Y9078D01*
X104042Y9079D01*
X103883Y9054D01*
X103854Y9047D01*
X103804Y9063D01*
X103768Y9070D01*
X103735Y9083D01*
X103613Y9098D01*
X103491Y9120D01*
X103455Y9117D01*
X103419Y9121D01*
X103259Y9110D01*
X103208Y9104D01*
X103161Y9123D01*
X103126Y9133D01*
X103093Y9149D01*
X102973Y9175D01*
X102854Y9207D01*
X102818Y9208D01*
X102782Y9215D01*
X102621Y9219D01*
X102576Y9217D01*
X102545Y9233D01*
X102510Y9246D01*
X102478Y9265D01*
X102361Y9301D01*
X102247Y9343D01*
X102209Y9347D01*
X102173Y9358D01*
X102013Y9375D01*
X101959Y9377D01*
X101918Y9403D01*
X101883Y9420D01*
X101852Y9442D01*
X101740Y9488D01*
X101631Y9540D01*
X101593Y9547D01*
X101558Y9561D01*
X101400Y9593D01*
X101371Y9596D01*
X101327Y9630D01*
X101297Y9647D01*
X101271Y9670D01*
X101160Y9727D01*
X101052Y9790D01*
X101019Y9799D01*
X100988Y9815D01*
X100833Y9860D01*
X100776Y9873D01*
X100754Y9894D01*
X100722Y9916D01*
X100695Y9944D01*
X100592Y10008D01*
X100494Y10078D01*
X100458Y10092D01*
X100425Y10112D01*
X100275Y10170D01*
X100228Y10185D01*
X100221Y10191D01*
X100173Y10244D01*
X100045Y10341D01*
X99871Y10458D01*
X99831Y10478D01*
X99796Y10505D01*
X99667Y10568D01*
X99636Y10603D01*
X99600Y10630D01*
X99588Y10643D01*
X99569Y10654D01*
X99508Y10701D01*
X98716Y11230D01*
X97526Y12420D01*
X96591Y13818D01*
X95948Y15373D01*
X95619Y17023D01*
X95619Y22240D01*
X95830Y22240D01*
X95948Y22255D01*
X96067Y22262D01*
X96105Y22274D01*
X96146Y22280D01*
X96256Y22323D01*
X96369Y22360D01*
X96404Y22382D01*
X96441Y22397D01*
X96537Y22466D01*
X96638Y22530D01*
X96666Y22560D01*
X96699Y22583D01*
X96775Y22675D01*
X96856Y22762D01*
X96876Y22797D01*
X96901Y22828D01*
X96952Y22936D01*
X97010Y23040D01*
X97020Y23080D01*
X97037Y23116D01*
X97059Y23233D01*
X97089Y23348D01*
X97093Y23408D01*
X97097Y23428D01*
X97095Y23449D01*
X97099Y23509D01*
X97099Y24219D01*
X97084Y24337D01*
X97077Y24456D01*
X97064Y24494D01*
X97059Y24535D01*
X97016Y24645D01*
X96979Y24758D01*
X96957Y24793D01*
X96942Y24830D01*
X96873Y24926D01*
X96809Y25027D01*
X96779Y25055D01*
X96756Y25088D01*
X96664Y25164D01*
X96577Y25245D01*
X96542Y25265D01*
X96511Y25290D01*
X96403Y25341D01*
X96299Y25399D01*
X96259Y25409D01*
X96223Y25426D01*
X96106Y25448D01*
X95991Y25478D01*
X95931Y25482D01*
X95911Y25486D01*
X95890Y25484D01*
X95830Y25488D01*
X95619Y25488D01*
X95619Y30705D01*
X95948Y32355D01*
X96591Y33910D01*
X97526Y35308D01*
X98716Y36498D01*
X100114Y37433D01*
X101669Y38076D01*
X102536Y38249D01*
X102536Y37963D01*
X102555Y37812D01*
X102557Y37791D01*
X102565Y37701D01*
X102569Y37689D01*
X102572Y37662D01*
X102575Y37655D01*
X102576Y37648D01*
X102631Y37507D01*
X102640Y37485D01*
X102669Y37401D01*
X102676Y37390D01*
X102685Y37365D01*
X102690Y37359D01*
X102693Y37352D01*
X102781Y37231D01*
X102795Y37211D01*
X102845Y37136D01*
X102854Y37127D01*
X102869Y37106D01*
X102875Y37101D01*
X102879Y37095D01*
X102996Y36999D01*
X103009Y36987D01*
X103081Y36923D01*
X103097Y36913D01*
X103112Y36900D01*
X103119Y36897D01*
X103124Y36892D01*
X103154Y36878D01*
X103218Y36839D01*
X103231Y36832D01*
X103311Y36803D01*
X103388Y36764D01*
X103519Y36725D01*
X103529Y36722D01*
X103533Y36721D01*
X103542Y36719D01*
X103883Y36642D01*
X103922Y36639D01*
X103960Y36627D01*
X104080Y36624D01*
X104199Y36612D01*
X104239Y36618D01*
X104278Y36617D01*
X104437Y36642D01*
X104778Y36719D01*
X104859Y36748D01*
X104943Y36767D01*
X105033Y36807D01*
X105054Y36815D01*
X105058Y36816D01*
X105061Y36818D01*
X105071Y36824D01*
X105077Y36826D01*
X105081Y36829D01*
X105090Y36833D01*
X105103Y36840D01*
X105188Y36899D01*
X105190Y36900D01*
X105323Y36985D01*
X105326Y36987D01*
X105329Y36989D01*
X105349Y37011D01*
X105364Y37022D01*
X105428Y37096D01*
X105434Y37103D01*
X105541Y37216D01*
X105543Y37219D01*
X105545Y37222D01*
X105560Y37250D01*
X105571Y37263D01*
X105614Y37348D01*
X105620Y37359D01*
X105695Y37495D01*
X105695Y37498D01*
X105697Y37502D01*
X105705Y37532D01*
X105713Y37547D01*
X105732Y37640D01*
X105735Y37653D01*
X105774Y37803D01*
X105774Y37808D01*
X105775Y37810D01*
X105775Y37817D01*
X105777Y37853D01*
X105778Y37859D01*
X105778Y37866D01*
X105784Y37963D01*
X105784Y38249D01*
X106651Y38076D01*
X108206Y37433D01*
X109604Y36498D01*
X110794Y35308D01*
X111729Y33910D01*
X112372Y32355D01*
X112701Y30705D01*
X112701Y25488D01*
X112490Y25488D01*
X112372Y25473D01*
X112253Y25466D01*
X112215Y25453D01*
X112174Y25448D01*
X112064Y25405D01*
X111951Y25368D01*
X111916Y25346D01*
X111879Y25331D01*
X111783Y25262D01*
X111682Y25198D01*
X111654Y25168D01*
X111621Y25145D01*
X111545Y25053D01*
X111464Y24966D01*
X111444Y24931D01*
X111419Y24900D01*
X111368Y24792D01*
X111310Y24688D01*
X111300Y24648D01*
X111283Y24612D01*
X111261Y24495D01*
X111231Y24380D01*
X111227Y24320D01*
X111223Y24300D01*
X111225Y24279D01*
X111221Y24219D01*
X111221Y23509D01*
X111236Y23391D01*
X111243Y23272D01*
X111256Y23234D01*
X111261Y23193D01*
X111304Y23083D01*
X111341Y22970D01*
X111363Y22935D01*
X111378Y22898D01*
X111447Y22801D01*
X111511Y22701D01*
X111541Y22673D01*
X111564Y22640D01*
X111656Y22564D01*
X111743Y22483D01*
X111778Y22463D01*
X111809Y22438D01*
X111917Y22387D01*
X112021Y22329D01*
X112061Y22319D01*
X112097Y22302D01*
X112214Y22280D01*
X112329Y22250D01*
X112389Y22246D01*
X112409Y22242D01*
X112430Y22244D01*
X112490Y22240D01*
X112701Y22240D01*
X112701Y18175D01*
X112718Y18037D01*
X112731Y17899D01*
X112738Y17880D01*
X112741Y17860D01*
X112792Y17730D01*
X112839Y17600D01*
X112850Y17583D01*
X112858Y17564D01*
X112939Y17451D01*
X113017Y17336D01*
X113033Y17323D01*
X113044Y17307D01*
X113151Y17218D01*
X113256Y17126D01*
X113274Y17117D01*
X113289Y17104D01*
X113415Y17045D01*
X113539Y16981D01*
X113559Y16977D01*
X113577Y16968D01*
X113714Y16942D01*
X113849Y16912D01*
X113870Y16912D01*
X113889Y16909D01*
X114028Y16917D01*
X114167Y16921D01*
X114187Y16927D01*
X114207Y16928D01*
X114339Y16971D01*
X114473Y17010D01*
X114490Y17020D01*
X114509Y17026D01*
X114627Y17101D01*
X114747Y17171D01*
X114768Y17190D01*
X114778Y17196D01*
X114792Y17211D01*
X114868Y17278D01*
X115452Y17862D01*
X115512Y17940D01*
X115580Y18012D01*
X115609Y18065D01*
X115646Y18113D01*
X115686Y18204D01*
X115734Y18291D01*
X115749Y18349D01*
X115773Y18405D01*
X115788Y18503D01*
X115813Y18599D01*
X115819Y18699D01*
X115823Y18719D01*
X115821Y18731D01*
X115823Y18759D01*
X115823Y65426D01*
X115811Y65524D01*
X115808Y65624D01*
X115791Y65682D01*
X115783Y65742D01*
X115747Y65834D01*
X115719Y65929D01*
X115689Y65981D01*
X115666Y66038D01*
X115608Y66118D01*
X115558Y66203D01*
X115492Y66278D01*
X115480Y66295D01*
X115470Y66303D01*
X115452Y66324D01*
X114657Y67118D01*
X114548Y67203D01*
X114441Y67292D01*
X114422Y67300D01*
X114406Y67313D01*
X114278Y67368D01*
X114153Y67427D01*
X114133Y67431D01*
X114114Y67439D01*
X113976Y67461D01*
X113840Y67487D01*
X113820Y67486D01*
X113800Y67489D01*
X113661Y67476D01*
X113523Y67467D01*
X113504Y67461D01*
X113484Y67459D01*
X113352Y67412D01*
X113221Y67369D01*
X113203Y67358D01*
X113184Y67352D01*
X113069Y67273D01*
X112952Y67199D01*
X112938Y67184D01*
X112921Y67173D01*
X112829Y67069D01*
X112734Y66967D01*
X112724Y66950D01*
X112711Y66935D01*
X112647Y66811D01*
X112580Y66689D01*
X112575Y66669D01*
X112566Y66651D01*
X112536Y66515D01*
X112501Y66381D01*
X112499Y66353D01*
X112496Y66341D01*
X112497Y66321D01*
X112491Y66220D01*
X112491Y63738D01*
X112490Y63738D01*
X112372Y63723D01*
X112253Y63716D01*
X112215Y63703D01*
X112174Y63698D01*
X112064Y63655D01*
X111951Y63618D01*
X111916Y63596D01*
X111879Y63581D01*
X111783Y63512D01*
X111682Y63448D01*
X111654Y63418D01*
X111621Y63395D01*
X111545Y63303D01*
X111464Y63216D01*
X111444Y63181D01*
X111419Y63150D01*
X111368Y63042D01*
X111310Y62938D01*
X111300Y62898D01*
X111283Y62862D01*
X111261Y62745D01*
X111231Y62630D01*
X111227Y62570D01*
X111223Y62550D01*
X111225Y62529D01*
X111221Y62469D01*
X111221Y61759D01*
X111236Y61641D01*
X111243Y61522D01*
X111256Y61484D01*
X111261Y61443D01*
X111304Y61333D01*
X111341Y61220D01*
X111363Y61185D01*
X111378Y61148D01*
X111447Y61051D01*
X111511Y60951D01*
X111541Y60923D01*
X111564Y60890D01*
X111656Y60814D01*
X111743Y60733D01*
X111778Y60713D01*
X111809Y60688D01*
X111917Y60637D01*
X112021Y60579D01*
X112061Y60569D01*
X112097Y60552D01*
X112214Y60530D01*
X112329Y60500D01*
X112389Y60496D01*
X112409Y60492D01*
X112430Y60494D01*
X112490Y60490D01*
X112491Y60490D01*
X112491Y55504D01*
X112171Y53894D01*
X111543Y52378D01*
X110631Y51013D01*
X109471Y49853D01*
X108106Y48941D01*
X106590Y48313D01*
X105610Y48118D01*
X105536Y48220D01*
X105529Y48230D01*
X105475Y48310D01*
X105463Y48321D01*
X105446Y48346D01*
X105443Y48348D01*
X105441Y48351D01*
X105320Y48451D01*
X105314Y48456D01*
X105239Y48523D01*
X105218Y48536D01*
X105202Y48550D01*
X105198Y48552D01*
X105196Y48554D01*
X105166Y48568D01*
X105102Y48607D01*
X105089Y48614D01*
X105009Y48643D01*
X104932Y48682D01*
X104801Y48721D01*
X104791Y48724D01*
X104787Y48725D01*
X104778Y48727D01*
X104437Y48804D01*
X104398Y48807D01*
X104360Y48819D01*
X104240Y48822D01*
X104121Y48834D01*
X104081Y48828D01*
X104042Y48829D01*
X103883Y48804D01*
X103542Y48727D01*
X103461Y48698D01*
X103377Y48678D01*
X103287Y48639D01*
X103266Y48631D01*
X103259Y48627D01*
X103252Y48625D01*
X103245Y48620D01*
X103243Y48620D01*
X103239Y48617D01*
X103230Y48613D01*
X103217Y48606D01*
X103134Y48549D01*
X103125Y48542D01*
X102997Y48461D01*
X102992Y48456D01*
X102985Y48452D01*
X102968Y48432D01*
X102956Y48424D01*
X102895Y48353D01*
X102883Y48340D01*
X102779Y48230D01*
X102775Y48223D01*
X102770Y48218D01*
X102757Y48194D01*
X102749Y48183D01*
X102716Y48117D01*
X101730Y48313D01*
X100214Y48941D01*
X99384Y49496D01*
X99321Y49527D01*
X99263Y49567D01*
X99180Y49598D01*
X99100Y49638D01*
X99031Y49653D01*
X98965Y49677D01*
X98876Y49686D01*
X98789Y49705D01*
X98718Y49702D01*
X98648Y49709D01*
X98560Y49696D01*
X98471Y49692D01*
X98404Y49672D01*
X98334Y49662D01*
X98252Y49627D01*
X98167Y49601D01*
X98116Y49571D01*
X98099Y49565D01*
X98086Y49556D01*
X98041Y49537D01*
X97907Y49448D01*
X97892Y49436D01*
X97865Y49410D01*
X97834Y49389D01*
X97752Y49298D01*
X97666Y49212D01*
X97646Y49180D01*
X97621Y49152D01*
X97538Y49015D01*
X97522Y48984D01*
X97485Y48960D01*
X97457Y48937D01*
X97425Y48920D01*
X97335Y48836D01*
X97241Y48757D01*
X97219Y48728D01*
X97193Y48703D01*
X97098Y48573D01*
X97074Y48536D01*
X97043Y48520D01*
X97012Y48499D01*
X96978Y48483D01*
X96882Y48408D01*
X96782Y48339D01*
X96757Y48311D01*
X96728Y48287D01*
X96622Y48166D01*
X96596Y48132D01*
X96546Y48112D01*
X96515Y48094D01*
X96481Y48083D01*
X96377Y48015D01*
X96270Y47954D01*
X96244Y47929D01*
X96214Y47910D01*
X96098Y47799D01*
X96075Y47774D01*
X96054Y47767D01*
X96019Y47751D01*
X95983Y47742D01*
X95875Y47685D01*
X95765Y47634D01*
X95736Y47610D01*
X95702Y47592D01*
X95577Y47491D01*
X95540Y47457D01*
X95490Y47446D01*
X95455Y47433D01*
X95418Y47427D01*
X95305Y47380D01*
X95190Y47339D01*
X95159Y47318D01*
X95125Y47303D01*
X94991Y47214D01*
X94966Y47194D01*
X94931Y47190D01*
X94895Y47180D01*
X94858Y47178D01*
X94742Y47140D01*
X94623Y47109D01*
X94591Y47091D01*
X94555Y47079D01*
X94415Y47002D01*
X94378Y46978D01*
X94350Y46977D01*
X94279Y46965D01*
X94208Y46963D01*
X94123Y46938D01*
X94036Y46923D01*
X93971Y46894D01*
X93902Y46874D01*
X93870Y46855D01*
X93844Y46860D01*
X93800Y46857D01*
X93757Y46862D01*
X93642Y46846D01*
X93526Y46837D01*
X93485Y46824D01*
X93442Y46818D01*
X93290Y46766D01*
X93231Y46741D01*
X93188Y46742D01*
X93143Y46751D01*
X93029Y46745D01*
X92915Y46747D01*
X92871Y46736D01*
X92826Y46734D01*
X92670Y46695D01*
X92620Y46679D01*
X92606Y46685D01*
X92564Y46689D01*
X92523Y46701D01*
X92406Y46705D01*
X92289Y46717D01*
X92248Y46711D01*
X92206Y46712D01*
X92047Y46688D01*
X91979Y46673D01*
X91936Y46681D01*
X91894Y46697D01*
X91781Y46711D01*
X91669Y46733D01*
X91623Y46730D01*
X91578Y46736D01*
X91418Y46725D01*
X91271Y46705D01*
X91246Y46715D01*
X91199Y46719D01*
X91153Y46732D01*
X91041Y46735D01*
X90930Y46747D01*
X90883Y46739D01*
X90835Y46741D01*
X90726Y46716D01*
X90657Y46705D01*
X90503Y46726D01*
X90458Y46726D01*
X90414Y46734D01*
X90299Y46727D01*
X90185Y46727D01*
X90141Y46716D01*
X90096Y46714D01*
X89987Y46678D01*
X89955Y46670D01*
X89873Y46688D01*
X89832Y46691D01*
X89791Y46703D01*
X89674Y46706D01*
X89557Y46717D01*
X89515Y46710D01*
X89473Y46711D01*
X89359Y46685D01*
X89309Y46676D01*
X89250Y46695D01*
X89206Y46703D01*
X89164Y46719D01*
X89050Y46732D01*
X88938Y46752D01*
X88893Y46749D01*
X88848Y46754D01*
X88734Y46738D01*
X88702Y46736D01*
X88630Y46766D01*
X88588Y46777D01*
X88549Y46796D01*
X88435Y46819D01*
X88323Y46849D01*
X88280Y46850D01*
X88237Y46859D01*
X88121Y46852D01*
X88057Y46853D01*
X88034Y46867D01*
X87950Y46893D01*
X87869Y46928D01*
X87798Y46939D01*
X87730Y46960D01*
X87570Y46977D01*
X87541Y46979D01*
X87507Y47000D01*
X87473Y47016D01*
X87443Y47039D01*
X87330Y47084D01*
X87220Y47137D01*
X87183Y47144D01*
X87148Y47158D01*
X86990Y47189D01*
X86956Y47193D01*
X86929Y47214D01*
X86897Y47233D01*
X86868Y47257D01*
X86760Y47313D01*
X86654Y47374D01*
X86618Y47384D01*
X86585Y47401D01*
X86430Y47446D01*
X86380Y47457D01*
X86343Y47491D01*
X86312Y47513D01*
X86286Y47540D01*
X86183Y47605D01*
X86084Y47675D01*
X86048Y47689D01*
X86016Y47709D01*
X85866Y47767D01*
X85845Y47774D01*
X85822Y47799D01*
X85795Y47822D01*
X85772Y47850D01*
X85674Y47924D01*
X85579Y48004D01*
X85547Y48020D01*
X85518Y48041D01*
X85374Y48112D01*
X85324Y48133D01*
X85298Y48166D01*
X85272Y48193D01*
X85251Y48224D01*
X85160Y48306D01*
X85075Y48392D01*
X85042Y48411D01*
X85014Y48437D01*
X84877Y48520D01*
X84846Y48536D01*
X84822Y48573D01*
X84799Y48601D01*
X84782Y48633D01*
X84698Y48723D01*
X84619Y48817D01*
X84590Y48839D01*
X84565Y48865D01*
X84435Y48960D01*
X84398Y48984D01*
X84382Y49015D01*
X84361Y49046D01*
X84345Y49080D01*
X84270Y49176D01*
X84201Y49276D01*
X84173Y49301D01*
X84149Y49330D01*
X84028Y49436D01*
X83995Y49462D01*
X83974Y49512D01*
X83956Y49543D01*
X83945Y49577D01*
X83878Y49681D01*
X83817Y49788D01*
X83792Y49814D01*
X83772Y49844D01*
X83661Y49960D01*
X83636Y49983D01*
X83629Y50004D01*
X83613Y50039D01*
X83604Y50075D01*
X83547Y50183D01*
X83496Y50293D01*
X83472Y50322D01*
X83454Y50356D01*
X83353Y50481D01*
X83319Y50518D01*
X83308Y50568D01*
X83295Y50603D01*
X83289Y50641D01*
X83242Y50753D01*
X83201Y50868D01*
X83180Y50899D01*
X83165Y50933D01*
X83076Y51067D01*
X83055Y51094D01*
X83051Y51128D01*
X83041Y51164D01*
X83039Y51202D01*
X83001Y51318D01*
X82970Y51436D01*
X82952Y51469D01*
X82940Y51504D01*
X82863Y51645D01*
X82841Y51679D01*
X82839Y51722D01*
X82833Y51759D01*
X82833Y51796D01*
X82806Y51915D01*
X82785Y52036D01*
X82770Y52069D01*
X82762Y52105D01*
X82697Y52253D01*
X82678Y52289D01*
X82680Y52332D01*
X82677Y52369D01*
X82681Y52405D01*
X82664Y52527D01*
X82653Y52649D01*
X82642Y52684D01*
X82636Y52720D01*
X82584Y52873D01*
X82568Y52913D01*
X82572Y52944D01*
X82572Y52982D01*
X82580Y53020D01*
X82573Y53140D01*
X82574Y53262D01*
X82565Y53299D01*
X82562Y53337D01*
X82524Y53494D01*
X82514Y53524D01*
X82526Y53575D01*
X82529Y53610D01*
X82539Y53644D01*
X82543Y53768D01*
X82554Y53892D01*
X82549Y53927D01*
X82550Y53962D01*
X82526Y54121D01*
X82514Y54172D01*
X82524Y54204D01*
X82531Y54242D01*
X82545Y54277D01*
X82560Y54398D01*
X82571Y54459D01*
X82579Y54500D01*
X82579Y54502D01*
X82582Y54517D01*
X82579Y54555D01*
X82584Y54593D01*
X82573Y54754D01*
X82569Y54785D01*
X82584Y54823D01*
X82594Y54858D01*
X82610Y54891D01*
X82636Y55011D01*
X82668Y55130D01*
X82668Y55166D01*
X82676Y55202D01*
X82679Y55363D01*
X82677Y55406D01*
X82696Y55443D01*
X82709Y55477D01*
X82728Y55509D01*
X82764Y55626D01*
X82807Y55741D01*
X82810Y55778D01*
X82821Y55813D01*
X82838Y55973D01*
X82840Y56016D01*
X82864Y56053D01*
X82879Y56086D01*
X82901Y56116D01*
X82947Y56229D01*
X83000Y56340D01*
X83007Y56376D01*
X83021Y56411D01*
X83052Y56569D01*
X83056Y56604D01*
X83076Y56629D01*
X83095Y56661D01*
X83119Y56690D01*
X83175Y56798D01*
X83236Y56904D01*
X83246Y56940D01*
X83263Y56973D01*
X83308Y57128D01*
X83319Y57178D01*
X83353Y57215D01*
X83375Y57246D01*
X83402Y57272D01*
X83467Y57375D01*
X83537Y57474D01*
X83551Y57510D01*
X83571Y57542D01*
X83629Y57692D01*
X83636Y57713D01*
X83661Y57736D01*
X83684Y57763D01*
X83712Y57786D01*
X83786Y57884D01*
X83866Y57979D01*
X83881Y58011D01*
X83903Y58040D01*
X83974Y58184D01*
X83995Y58234D01*
X84028Y58260D01*
X84055Y58286D01*
X84086Y58307D01*
X84167Y58398D01*
X84254Y58483D01*
X84274Y58516D01*
X84299Y58544D01*
X84382Y58681D01*
X84398Y58712D01*
X84435Y58736D01*
X84463Y58759D01*
X84495Y58776D01*
X84585Y58860D01*
X84679Y58939D01*
X84701Y58968D01*
X84727Y58993D01*
X84822Y59123D01*
X84846Y59160D01*
X84877Y59176D01*
X84908Y59197D01*
X84942Y59213D01*
X85038Y59288D01*
X85138Y59357D01*
X85163Y59385D01*
X85192Y59409D01*
X85298Y59530D01*
X85324Y59563D01*
X85374Y59584D01*
X85405Y59602D01*
X85439Y59613D01*
X85543Y59680D01*
X85650Y59741D01*
X85676Y59766D01*
X85706Y59786D01*
X85822Y59897D01*
X85845Y59922D01*
X85866Y59929D01*
X85901Y59945D01*
X85937Y59954D01*
X86045Y60011D01*
X86155Y60062D01*
X86184Y60086D01*
X86218Y60104D01*
X86343Y60205D01*
X86380Y60239D01*
X86430Y60250D01*
X86465Y60263D01*
X86502Y60269D01*
X86615Y60316D01*
X86730Y60357D01*
X86761Y60378D01*
X86795Y60393D01*
X86929Y60482D01*
X86956Y60503D01*
X86990Y60507D01*
X87026Y60517D01*
X87064Y60519D01*
X87180Y60557D01*
X87298Y60588D01*
X87331Y60606D01*
X87366Y60618D01*
X87507Y60695D01*
X87541Y60717D01*
X87570Y60719D01*
X87640Y60731D01*
X87712Y60733D01*
X87797Y60757D01*
X87883Y60772D01*
X87949Y60801D01*
X88017Y60821D01*
X88050Y60841D01*
X88076Y60836D01*
X88120Y60839D01*
X88163Y60834D01*
X88278Y60850D01*
X88394Y60859D01*
X88435Y60872D01*
X88478Y60878D01*
X88630Y60930D01*
X88689Y60955D01*
X88732Y60954D01*
X88777Y60945D01*
X88891Y60951D01*
X89005Y60949D01*
X89049Y60960D01*
X89094Y60962D01*
X89250Y61001D01*
X89300Y61017D01*
X89314Y61011D01*
X89356Y61007D01*
X89397Y60995D01*
X89514Y60991D01*
X89631Y60979D01*
X89672Y60985D01*
X89714Y60984D01*
X89873Y61008D01*
X89940Y61023D01*
X89985Y61014D01*
X90026Y60998D01*
X90140Y60984D01*
X90253Y60962D01*
X90297Y60965D01*
X90342Y60959D01*
X90503Y60970D01*
X90652Y60990D01*
X90676Y60981D01*
X90723Y60977D01*
X90769Y60964D01*
X90881Y60961D01*
X90992Y60949D01*
X91040Y60957D01*
X91087Y60955D01*
X91196Y60980D01*
X91268Y60991D01*
X91418Y60971D01*
X91463Y60971D01*
X91508Y60963D01*
X91621Y60970D01*
X91736Y60969D01*
X91780Y60980D01*
X91825Y60983D01*
X91933Y61019D01*
X91964Y61026D01*
X92047Y61008D01*
X92088Y61005D01*
X92129Y60993D01*
X92246Y60990D01*
X92363Y60979D01*
X92405Y60986D01*
X92447Y60985D01*
X92561Y61011D01*
X92611Y61019D01*
X92670Y61001D01*
X92714Y60993D01*
X92756Y60977D01*
X92870Y60964D01*
X92982Y60944D01*
X93027Y60947D01*
X93072Y60942D01*
X93186Y60958D01*
X93218Y60960D01*
X93290Y60930D01*
X93332Y60919D01*
X93371Y60900D01*
X93485Y60877D01*
X93597Y60847D01*
X93640Y60846D01*
X93683Y60837D01*
X93799Y60844D01*
X93863Y60843D01*
X93886Y60829D01*
X93970Y60803D01*
X94051Y60768D01*
X94121Y60757D01*
X94190Y60736D01*
X94350Y60719D01*
X94378Y60718D01*
X94415Y60694D01*
X94448Y60679D01*
X94478Y60657D01*
X94591Y60611D01*
X94702Y60558D01*
X94739Y60551D01*
X94773Y60537D01*
X94931Y60506D01*
X94973Y60501D01*
X94976Y60501D01*
X94979Y60500D01*
X95140Y60490D01*
X95830Y60490D01*
X95948Y60505D01*
X96067Y60512D01*
X96105Y60524D01*
X96146Y60530D01*
X96256Y60573D01*
X96369Y60610D01*
X96404Y60632D01*
X96441Y60647D01*
X96537Y60716D01*
X96638Y60780D01*
X96666Y60810D01*
X96699Y60833D01*
X96775Y60925D01*
X96856Y61012D01*
X96876Y61047D01*
X96901Y61078D01*
X96952Y61186D01*
X97010Y61290D01*
X97020Y61330D01*
X97037Y61366D01*
X97059Y61483D01*
X97089Y61598D01*
X97093Y61658D01*
X97097Y61678D01*
X97095Y61699D01*
X97099Y61759D01*
X97099Y62469D01*
X97084Y62587D01*
X97077Y62706D01*
X97064Y62744D01*
X97059Y62785D01*
X97016Y62895D01*
X96979Y63008D01*
X96957Y63043D01*
X96942Y63080D01*
X96873Y63176D01*
X96809Y63277D01*
X96779Y63305D01*
X96756Y63338D01*
X96664Y63414D01*
X96577Y63495D01*
X96542Y63515D01*
X96511Y63540D01*
X96403Y63591D01*
X96299Y63649D01*
X96259Y63659D01*
X96223Y63676D01*
X96106Y63698D01*
X95991Y63728D01*
X95931Y63732D01*
X95911Y63736D01*
X95890Y63734D01*
X95830Y63738D01*
X95829Y63738D01*
X95829Y68724D01*
X96149Y70334D01*
X96777Y71850D01*
X97745Y73298D01*
X97813Y73435D01*
X97883Y73572D01*
X97884Y73577D01*
X97887Y73582D01*
X97919Y73733D01*
X97953Y73882D01*
X97953Y73888D01*
X97954Y73893D01*
X97948Y74047D01*
X97943Y74200D01*
X97942Y74205D01*
X97941Y74211D01*
X97897Y74359D01*
X97855Y74506D01*
X97852Y74510D01*
X97850Y74516D01*
X97772Y74646D01*
X97693Y74780D01*
X97688Y74785D01*
X97687Y74788D01*
X97680Y74795D01*
X97587Y74900D01*
X80912Y91576D01*
X80834Y91636D01*
X80761Y91704D01*
X80708Y91733D01*
X80661Y91770D01*
X80570Y91810D01*
X80483Y91858D01*
X80424Y91873D01*
X80369Y91897D01*
X80271Y91912D01*
X80175Y91937D01*
X80075Y91943D01*
X80055Y91947D01*
X80042Y91945D01*
X80014Y91947D01*
X55902Y91947D01*
X40362Y107487D01*
X38353Y109496D01*
X38353Y132625D01*
X38341Y132723D01*
X38338Y132822D01*
X38321Y132880D01*
X38313Y132940D01*
X38277Y133032D01*
X38249Y133127D01*
X38219Y133180D01*
X38196Y133236D01*
X38138Y133316D01*
X38088Y133401D01*
X38022Y133477D01*
X38010Y133493D01*
X38000Y133501D01*
X37982Y133522D01*
X36841Y134663D01*
X36067Y136530D01*
X36067Y138552D01*
X36841Y140419D01*
X38270Y141848D01*
X40137Y142622D01*
X42159Y142622D01*
X44026Y141848D01*
X45455Y140419D01*
X46229Y138552D01*
X46229Y136530D01*
X45455Y134663D01*
X44314Y133522D01*
X44254Y133444D01*
X44186Y133372D01*
X44157Y133319D01*
X44120Y133271D01*
X44080Y133180D01*
X44032Y133093D01*
X44017Y133035D01*
X43993Y132979D01*
X43978Y132881D01*
X43953Y132785D01*
X43947Y132685D01*
X43943Y132665D01*
X43945Y132653D01*
X43943Y132625D01*
X43943Y112337D01*
X43955Y112239D01*
X43958Y112140D01*
X43975Y112082D01*
X43983Y112021D01*
X44019Y111929D01*
X44047Y111834D01*
X44077Y111782D01*
X44100Y111726D01*
X44158Y111646D01*
X44208Y111560D01*
X44274Y111485D01*
X44286Y111468D01*
X44296Y111461D01*
X44314Y111440D01*
X57846Y97908D01*
X57924Y97848D01*
X57996Y97780D01*
X58049Y97751D01*
X58097Y97714D01*
X58188Y97674D01*
X58274Y97626D01*
X58333Y97611D01*
X58389Y97587D01*
X58487Y97572D01*
X58582Y97547D01*
X58682Y97541D01*
X58703Y97537D01*
X58715Y97539D01*
X58743Y97537D01*
X59127Y97537D01*
X59197Y97545D01*
X59266Y97544D01*
X59354Y97565D01*
X59443Y97577D01*
X59508Y97602D01*
X59576Y97619D01*
X59655Y97661D01*
X59739Y97694D01*
X59795Y97735D01*
X59857Y97767D01*
X59923Y97828D01*
X59996Y97880D01*
X60040Y97934D01*
X60092Y97981D01*
X60141Y98056D01*
X60199Y98125D01*
X60229Y98189D01*
X60267Y98247D01*
X60296Y98332D01*
X60334Y98413D01*
X60347Y98482D01*
X60370Y98548D01*
X60377Y98637D01*
X60394Y98725D01*
X60390Y98795D01*
X60395Y98865D01*
X60380Y98953D01*
X60374Y99043D01*
X60353Y99109D01*
X60341Y99178D01*
X60304Y99260D01*
X60276Y99345D01*
X60239Y99404D01*
X60210Y99468D01*
X60154Y99538D01*
X60106Y99614D01*
X60055Y99662D01*
X60012Y99716D01*
X59940Y99771D01*
X59875Y99832D01*
X59813Y99866D01*
X59758Y99908D01*
X59613Y99979D01*
X59352Y100087D01*
X57923Y101516D01*
X57149Y103383D01*
X57149Y105405D01*
X57923Y107272D01*
X58909Y108259D01*
X58940Y108298D01*
X58977Y108331D01*
X59037Y108423D01*
X59104Y108510D01*
X59124Y108555D01*
X59151Y108597D01*
X59187Y108701D01*
X59231Y108802D01*
X59238Y108851D01*
X59254Y108898D01*
X59263Y109007D01*
X59280Y109116D01*
X59276Y109165D01*
X59280Y109215D01*
X59261Y109323D01*
X59251Y109432D01*
X59234Y109479D01*
X59225Y109528D01*
X59180Y109628D01*
X59143Y109732D01*
X59115Y109773D01*
X59095Y109818D01*
X59026Y109904D01*
X58999Y109944D01*
X58985Y109967D01*
X58982Y109969D01*
X58964Y109995D01*
X58927Y110028D01*
X58896Y110066D01*
X58808Y110133D01*
X58806Y110134D01*
X58753Y110185D01*
X58744Y110190D01*
X58726Y110205D01*
X58682Y110228D01*
X58642Y110258D01*
X58497Y110329D01*
X58082Y110501D01*
X56653Y111930D01*
X55879Y113797D01*
X55879Y115819D01*
X56653Y117686D01*
X58082Y119115D01*
X59949Y119889D01*
X61971Y119889D01*
X63838Y119115D01*
X64979Y117974D01*
X65057Y117914D01*
X65129Y117846D01*
X65182Y117817D01*
X65230Y117780D01*
X65321Y117740D01*
X65408Y117692D01*
X65466Y117677D01*
X65522Y117653D01*
X65620Y117638D01*
X65716Y117613D01*
X65816Y117607D01*
X65836Y117603D01*
X65848Y117605D01*
X65876Y117603D01*
X97357Y117603D01*
X97455Y117615D01*
X97554Y117618D01*
X97613Y117635D01*
X97673Y117643D01*
X97765Y117679D01*
X97860Y117707D01*
X97912Y117737D01*
X97968Y117760D01*
X98048Y117818D01*
X98134Y117868D01*
X98209Y117934D01*
X98226Y117946D01*
X98233Y117956D01*
X98255Y117974D01*
X101465Y121185D01*
X101524Y121261D01*
X101590Y121331D01*
X101621Y121386D01*
X101660Y121436D01*
X101698Y121524D01*
X101745Y121609D01*
X101761Y121670D01*
X101786Y121728D01*
X101801Y121823D01*
X101826Y121916D01*
X101833Y122023D01*
X101836Y122042D01*
X101835Y122053D01*
X101837Y122077D01*
X101958Y151790D01*
X101958Y151792D01*
X101958Y151795D01*
X101958Y153221D01*
X101945Y153319D01*
X101942Y153418D01*
X101926Y153477D01*
X101918Y153537D01*
X101882Y153629D01*
X101854Y153724D01*
X101823Y153776D01*
X101801Y153832D01*
X101743Y153912D01*
X101692Y153998D01*
X101626Y154073D01*
X101614Y154090D01*
X101605Y154098D01*
X101586Y154119D01*
X100595Y155110D01*
X99821Y156977D01*
X99821Y158845D01*
X99804Y158982D01*
X99791Y159121D01*
X99784Y159140D01*
X99781Y159160D01*
X99730Y159289D01*
X99683Y159420D01*
X99672Y159437D01*
X99664Y159456D01*
X99583Y159568D01*
X99505Y159683D01*
X99489Y159697D01*
X99478Y159713D01*
X99370Y159802D01*
X99266Y159894D01*
X99248Y159903D01*
X99233Y159916D01*
X99107Y159975D01*
X98983Y160039D01*
X98963Y160043D01*
X98945Y160052D01*
X98809Y160078D01*
X98673Y160108D01*
X98652Y160108D01*
X98633Y160111D01*
X98494Y160103D01*
X98355Y160099D01*
X98335Y160093D01*
X98315Y160092D01*
X98183Y160049D01*
X98049Y160010D01*
X98032Y160000D01*
X98013Y159994D01*
X97895Y159919D01*
X97775Y159849D01*
X97754Y159830D01*
X97744Y159823D01*
X97730Y159808D01*
X97655Y159742D01*
X87384Y149472D01*
X87324Y149394D01*
X87256Y149322D01*
X87227Y149269D01*
X87190Y149221D01*
X87150Y149130D01*
X87102Y149043D01*
X87087Y148985D01*
X87063Y148929D01*
X87051Y148850D01*
X65454Y127253D01*
X62828Y127253D01*
X62730Y127241D01*
X62631Y127238D01*
X62573Y127221D01*
X62513Y127213D01*
X62421Y127177D01*
X62326Y127149D01*
X62273Y127119D01*
X62217Y127096D01*
X62137Y127038D01*
X62052Y126988D01*
X61976Y126922D01*
X61960Y126910D01*
X61952Y126900D01*
X61931Y126882D01*
X60790Y125741D01*
X58923Y124967D01*
X56901Y124967D01*
X55034Y125741D01*
X53605Y127170D01*
X52831Y129037D01*
X52831Y131059D01*
X53605Y132926D01*
X55034Y134355D01*
X56901Y135129D01*
X58923Y135129D01*
X60790Y134355D01*
X61823Y133322D01*
X61917Y133249D01*
X62006Y133171D01*
X62042Y133152D01*
X62074Y133127D01*
X62183Y133080D01*
X62289Y133026D01*
X62329Y133017D01*
X62366Y133001D01*
X62484Y132982D01*
X62600Y132956D01*
X62640Y132957D01*
X62680Y132951D01*
X62799Y132962D01*
X62918Y132966D01*
X62957Y132977D01*
X62997Y132981D01*
X63109Y133021D01*
X63223Y133054D01*
X63258Y133075D01*
X63296Y133089D01*
X63395Y133155D01*
X63497Y133216D01*
X63542Y133256D01*
X63559Y133267D01*
X63573Y133282D01*
X63618Y133322D01*
X73416Y143121D01*
X73501Y143230D01*
X73590Y143337D01*
X73599Y143356D01*
X73611Y143372D01*
X73667Y143500D01*
X73726Y143625D01*
X73729Y143645D01*
X73737Y143664D01*
X73759Y143802D01*
X73785Y143938D01*
X73784Y143958D01*
X73787Y143978D01*
X73774Y144117D01*
X73766Y144255D01*
X73759Y144274D01*
X73758Y144294D01*
X73710Y144426D01*
X73668Y144557D01*
X73657Y144575D01*
X73650Y144594D01*
X73572Y144709D01*
X73497Y144826D01*
X73483Y144840D01*
X73471Y144857D01*
X73367Y144949D01*
X73266Y145044D01*
X73248Y145054D01*
X73233Y145067D01*
X73109Y145130D01*
X72987Y145198D01*
X72968Y145203D01*
X72950Y145212D01*
X72814Y145242D01*
X72679Y145277D01*
X72651Y145279D01*
X72639Y145282D01*
X72619Y145281D01*
X72519Y145287D01*
X37243Y145287D01*
X37145Y145275D01*
X37046Y145272D01*
X36988Y145255D01*
X36928Y145247D01*
X36836Y145211D01*
X36741Y145183D01*
X36688Y145153D01*
X36632Y145130D01*
X36552Y145072D01*
X36467Y145022D01*
X36391Y144956D01*
X36375Y144944D01*
X36367Y144934D01*
X36346Y144916D01*
X30344Y138914D01*
X30284Y138836D01*
X30216Y138764D01*
X30187Y138711D01*
X30150Y138663D01*
X30110Y138572D01*
X30062Y138485D01*
X30047Y138427D01*
X30023Y138371D01*
X30008Y138273D01*
X29983Y138177D01*
X29977Y138077D01*
X29973Y138057D01*
X29975Y138045D01*
X29973Y138017D01*
X29973Y136403D01*
X29199Y134536D01*
X27770Y133107D01*
X26692Y132660D01*
X26667Y132646D01*
X26639Y132637D01*
X26529Y132567D01*
X26416Y132503D01*
X26395Y132482D01*
X26370Y132466D01*
X26281Y132372D01*
X26188Y132282D01*
X26172Y132256D01*
X26152Y132235D01*
X26089Y132121D01*
X26021Y132010D01*
X26013Y131982D01*
X25998Y131956D01*
X25966Y131831D01*
X25928Y131706D01*
X25926Y131677D01*
X25919Y131648D01*
X25909Y131488D01*
X25909Y115821D01*
X25912Y115792D01*
X25910Y115762D01*
X25932Y115634D01*
X25949Y115506D01*
X25959Y115478D01*
X25964Y115449D01*
X26018Y115331D01*
X26066Y115210D01*
X26083Y115186D01*
X26095Y115159D01*
X26176Y115058D01*
X26252Y114953D01*
X26275Y114934D01*
X26294Y114911D01*
X26397Y114833D01*
X26497Y114750D01*
X26524Y114737D01*
X26548Y114719D01*
X26692Y114649D01*
X28786Y113781D01*
X30215Y112352D01*
X30989Y110485D01*
X30989Y108463D01*
X30215Y106596D01*
X28786Y105167D01*
X27810Y104762D01*
X27706Y104703D01*
X27600Y104651D01*
X27569Y104625D01*
X27534Y104605D01*
X27448Y104522D01*
X27358Y104445D01*
X27334Y104412D01*
X27305Y104384D01*
X27243Y104282D01*
X27175Y104185D01*
X27160Y104147D01*
X27139Y104113D01*
X27104Y103999D01*
X27062Y103887D01*
X27057Y103847D01*
X27045Y103809D01*
X27040Y103690D01*
X27027Y103571D01*
X27032Y103531D01*
X27030Y103491D01*
X27054Y103374D01*
X27071Y103256D01*
X27091Y103200D01*
X27095Y103180D01*
X27104Y103161D01*
X27123Y103104D01*
X27433Y102357D01*
X27433Y100335D01*
X26659Y98468D01*
X25230Y97039D01*
X23363Y96265D01*
X21341Y96265D01*
X19474Y97039D01*
X18045Y98468D01*
X17271Y100335D01*
X17271Y101949D01*
X17259Y102047D01*
X17256Y102146D01*
X17239Y102204D01*
X17231Y102264D01*
X17195Y102356D01*
X17167Y102451D01*
X17137Y102504D01*
X17114Y102560D01*
X17056Y102640D01*
X17006Y102725D01*
X16940Y102801D01*
X16928Y102817D01*
X16918Y102825D01*
X16900Y102846D01*
X16255Y103490D01*
X16255Y115320D01*
X16243Y115419D01*
X16240Y115518D01*
X16223Y115576D01*
X16215Y115636D01*
X16179Y115728D01*
X16151Y115823D01*
X16121Y115875D01*
X16098Y115932D01*
X16040Y116012D01*
X15990Y116097D01*
X15924Y116172D01*
X15912Y116189D01*
X15902Y116197D01*
X15884Y116218D01*
X6603Y125498D01*
X6603Y199532D01*
X6740Y199668D01*
X6800Y199746D01*
X6868Y199818D01*
X6897Y199871D01*
X6934Y199919D01*
X6974Y200010D01*
X7022Y200097D01*
X7037Y200155D01*
X7061Y200211D01*
X7076Y200309D01*
X7101Y200405D01*
X7107Y200505D01*
X7111Y200525D01*
X7109Y200537D01*
X7111Y200565D01*
X7111Y202179D01*
X7885Y204046D01*
X9314Y205475D01*
X11181Y206249D01*
X13203Y206249D01*
X15070Y205475D01*
X16499Y204046D01*
X17273Y202179D01*
X17273Y200157D01*
X16499Y198290D01*
X15070Y196861D01*
X12976Y195993D01*
X12951Y195979D01*
X12923Y195970D01*
X12813Y195900D01*
X12700Y195836D01*
X12679Y195815D01*
X12654Y195800D01*
X12565Y195705D01*
X12472Y195615D01*
X12456Y195589D01*
X12436Y195568D01*
X12373Y195454D01*
X12305Y195344D01*
X12297Y195315D01*
X12282Y195289D01*
X12250Y195164D01*
X12212Y195040D01*
X12210Y195010D01*
X12203Y194982D01*
X12193Y194821D01*
X12193Y173224D01*
X12210Y173086D01*
X12223Y172947D01*
X12230Y172928D01*
X12233Y172908D01*
X12284Y172779D01*
X12331Y172648D01*
X12342Y172631D01*
X12350Y172612D01*
X12431Y172500D01*
X12509Y172385D01*
X12525Y172371D01*
X12536Y172355D01*
X12644Y172266D01*
X12748Y172174D01*
X12766Y172165D01*
X12781Y172152D01*
X12907Y172093D01*
X13031Y172030D01*
X13051Y172025D01*
X13069Y172017D01*
X13205Y171991D01*
X13341Y171960D01*
X13362Y171961D01*
X13381Y171957D01*
X13520Y171966D01*
X13659Y171970D01*
X13679Y171975D01*
X13699Y171977D01*
X13831Y172019D01*
X13965Y172058D01*
X13982Y172068D01*
X14001Y172075D01*
X14119Y172149D01*
X14239Y172220D01*
X14260Y172238D01*
X14270Y172245D01*
X14284Y172260D01*
X14359Y172326D01*
X16786Y174753D01*
X24362Y174753D01*
X37198Y161916D01*
X37276Y161856D01*
X37349Y161788D01*
X37402Y161759D01*
X37449Y161722D01*
X37540Y161682D01*
X37627Y161634D01*
X37686Y161619D01*
X37741Y161595D01*
X37839Y161580D01*
X37935Y161555D01*
X38035Y161549D01*
X38055Y161545D01*
X38068Y161547D01*
X38096Y161545D01*
X73436Y161545D01*
X73534Y161557D01*
X73633Y161560D01*
X73691Y161577D01*
X73751Y161585D01*
X73844Y161621D01*
X73939Y161649D01*
X73991Y161679D01*
X74047Y161702D01*
X74127Y161760D01*
X74213Y161810D01*
X74288Y161876D01*
X74304Y161888D01*
X74312Y161898D01*
X74333Y161916D01*
X92758Y180341D01*
X101855Y180341D01*
X101953Y180353D01*
X102052Y180356D01*
X102111Y180373D01*
X102171Y180381D01*
X102263Y180417D01*
X102358Y180445D01*
X102410Y180475D01*
X102466Y180498D01*
X102547Y180556D01*
X102632Y180606D01*
X102707Y180672D01*
X102724Y180684D01*
X102732Y180694D01*
X102753Y180712D01*
X111896Y189855D01*
X111956Y189934D01*
X112024Y190006D01*
X112053Y190059D01*
X112090Y190107D01*
X112130Y190197D01*
X112178Y190284D01*
X112193Y190343D01*
X112217Y190398D01*
X112232Y190496D01*
X112257Y190592D01*
X112263Y190692D01*
X112267Y190712D01*
X112265Y190725D01*
X112267Y190753D01*
X112267Y196574D01*
X117624Y201931D01*
X118205Y201931D01*
X118303Y201943D01*
X118402Y201946D01*
X118460Y201963D01*
X118520Y201971D01*
X118612Y202007D01*
X118707Y202035D01*
X118760Y202065D01*
X118816Y202088D01*
X118896Y202146D01*
X118981Y202196D01*
X119057Y202262D01*
X119073Y202274D01*
X119081Y202284D01*
X119102Y202302D01*
X121548Y204748D01*
X121608Y204826D01*
X121676Y204898D01*
X121705Y204951D01*
X121742Y204999D01*
X121782Y205090D01*
X121830Y205177D01*
X121845Y205235D01*
X121869Y205291D01*
X121884Y205389D01*
X121909Y205485D01*
X121915Y205585D01*
X121919Y205605D01*
X121917Y205617D01*
X121919Y205645D01*
X121919Y207259D01*
X122693Y209126D01*
X124122Y210555D01*
X125989Y211329D01*
X128011Y211329D01*
X129878Y210555D01*
X131307Y209126D01*
X132081Y207259D01*
X132081Y206502D01*
X132096Y206384D01*
X132103Y206265D01*
X132116Y206227D01*
X132121Y206186D01*
X132164Y206076D01*
X132201Y205963D01*
X132223Y205928D01*
X132238Y205891D01*
X132307Y205795D01*
X132371Y205694D01*
X132401Y205666D01*
X132424Y205633D01*
X132516Y205557D01*
X132603Y205476D01*
X132638Y205456D01*
X132669Y205431D01*
X132777Y205380D01*
X132881Y205322D01*
X132921Y205312D01*
X132957Y205295D01*
X133074Y205273D01*
X133189Y205243D01*
X133249Y205239D01*
X133269Y205235D01*
X133290Y205237D01*
X133350Y205233D01*
X161267Y205233D01*
X161297Y205236D01*
X161326Y205234D01*
X161454Y205256D01*
X161583Y205273D01*
X161610Y205283D01*
X161639Y205289D01*
X161758Y205342D01*
X161879Y205390D01*
X161902Y205407D01*
X161929Y205419D01*
X162031Y205500D01*
X162136Y205576D01*
X162155Y205599D01*
X162178Y205618D01*
X162256Y205722D01*
X162339Y205821D01*
X162351Y205848D01*
X162369Y205872D01*
X162440Y206016D01*
X162571Y206332D01*
X164120Y207881D01*
X164193Y207975D01*
X164271Y208064D01*
X164290Y208100D01*
X164315Y208132D01*
X164362Y208242D01*
X164416Y208347D01*
X164425Y208387D01*
X164441Y208424D01*
X164460Y208542D01*
X164486Y208658D01*
X164485Y208698D01*
X164491Y208738D01*
X164480Y208857D01*
X164476Y208976D01*
X164465Y209015D01*
X164461Y209055D01*
X164421Y209167D01*
X164388Y209281D01*
X164367Y209316D01*
X164353Y209354D01*
X164287Y209453D01*
X164226Y209555D01*
X164186Y209600D01*
X164175Y209617D01*
X164160Y209631D01*
X164120Y209676D01*
X163236Y210560D01*
X163142Y210633D01*
X163053Y210712D01*
X163017Y210730D01*
X162985Y210755D01*
X162875Y210802D01*
X162769Y210856D01*
X162730Y210865D01*
X162693Y210881D01*
X162575Y210900D01*
X162459Y210926D01*
X162419Y210925D01*
X162379Y210931D01*
X162260Y210920D01*
X162141Y210916D01*
X162102Y210905D01*
X162062Y210901D01*
X161950Y210861D01*
X161836Y210828D01*
X161801Y210807D01*
X161763Y210793D01*
X161664Y210727D01*
X161562Y210666D01*
X161517Y210626D01*
X161500Y210615D01*
X161486Y210600D01*
X161441Y210560D01*
X161331Y210450D01*
X159464Y209676D01*
X157442Y209676D01*
X155575Y210450D01*
X154146Y211879D01*
X153372Y213746D01*
X153372Y215768D01*
X154146Y217635D01*
X155575Y219064D01*
X157442Y219838D01*
X159464Y219838D01*
X161331Y219064D01*
X162472Y217923D01*
X162550Y217863D01*
X162622Y217795D01*
X162675Y217766D01*
X162723Y217729D01*
X162814Y217689D01*
X162901Y217641D01*
X162959Y217626D01*
X163015Y217602D01*
X163113Y217587D01*
X163209Y217562D01*
X163309Y217556D01*
X163329Y217552D01*
X163341Y217554D01*
X163369Y217552D01*
X164149Y217552D01*
X166504Y215196D01*
X166582Y215136D01*
X166654Y215068D01*
X166684Y215052D01*
X166692Y215045D01*
X166715Y215033D01*
X166755Y215002D01*
X166846Y214962D01*
X166933Y214914D01*
X166961Y214907D01*
X166975Y214900D01*
X167005Y214893D01*
X167047Y214875D01*
X167145Y214860D01*
X167241Y214835D01*
X167275Y214833D01*
X167285Y214830D01*
X167303Y214831D01*
X167341Y214829D01*
X167361Y214825D01*
X167373Y214827D01*
X167401Y214825D01*
X167406Y214825D01*
X167504Y214837D01*
X167603Y214840D01*
X167644Y214852D01*
X167678Y214855D01*
X167694Y214861D01*
X167721Y214865D01*
X167813Y214901D01*
X167908Y214929D01*
X167950Y214953D01*
X167977Y214963D01*
X167988Y214970D01*
X168017Y214982D01*
X168097Y215040D01*
X168182Y215090D01*
X168258Y215156D01*
X168274Y215168D01*
X168282Y215178D01*
X168303Y215196D01*
X169444Y216337D01*
X170898Y216940D01*
X170941Y216964D01*
X170988Y216981D01*
X171079Y217043D01*
X171175Y217097D01*
X171210Y217132D01*
X171251Y217160D01*
X171324Y217242D01*
X171403Y217318D01*
X171429Y217361D01*
X171462Y217398D01*
X171512Y217496D01*
X171569Y217590D01*
X171584Y217637D01*
X171606Y217681D01*
X171631Y217789D01*
X171663Y217894D01*
X171665Y217943D01*
X171676Y217992D01*
X171673Y218101D01*
X171678Y218211D01*
X171668Y218260D01*
X171666Y218309D01*
X171636Y218415D01*
X171614Y218523D01*
X171592Y218567D01*
X171578Y218615D01*
X171522Y218710D01*
X171474Y218808D01*
X171442Y218846D01*
X171417Y218889D01*
X171310Y219010D01*
X161396Y228924D01*
X161372Y228942D01*
X161353Y228965D01*
X161247Y229040D01*
X161144Y229119D01*
X161117Y229131D01*
X161093Y229148D01*
X160972Y229194D01*
X160852Y229246D01*
X160823Y229250D01*
X160796Y229261D01*
X160667Y229275D01*
X160538Y229295D01*
X160509Y229293D01*
X160479Y229296D01*
X160351Y229278D01*
X160229Y229266D01*
X158152Y229266D01*
X156285Y230040D01*
X154856Y231469D01*
X154082Y233336D01*
X154082Y235358D01*
X154856Y237225D01*
X156285Y238654D01*
X158152Y239428D01*
X160174Y239428D01*
X162041Y238654D01*
X163470Y237225D01*
X164244Y235358D01*
X164244Y234506D01*
X164256Y234408D01*
X164259Y234309D01*
X164276Y234251D01*
X164284Y234191D01*
X164320Y234099D01*
X164348Y234004D01*
X164378Y233952D01*
X164401Y233895D01*
X164459Y233815D01*
X164509Y233730D01*
X164576Y233654D01*
X164588Y233638D01*
X164597Y233630D01*
X164616Y233609D01*
X182119Y216106D01*
X182119Y174657D01*
X182131Y174559D01*
X182134Y174460D01*
X182151Y174402D01*
X182159Y174342D01*
X182195Y174250D01*
X182223Y174155D01*
X182253Y174102D01*
X182276Y174046D01*
X182334Y173966D01*
X182384Y173881D01*
X182450Y173805D01*
X182462Y173789D01*
X182472Y173781D01*
X182490Y173760D01*
X193318Y162932D01*
X193396Y162872D01*
X193468Y162804D01*
X193521Y162775D01*
X193569Y162738D01*
X193660Y162698D01*
X193747Y162650D01*
X193805Y162635D01*
X193861Y162611D01*
X193959Y162596D01*
X194055Y162571D01*
X194155Y162565D01*
X194175Y162561D01*
X194187Y162563D01*
X194215Y162561D01*
X197268Y162561D01*
X197366Y162573D01*
X197465Y162576D01*
X197523Y162593D01*
X197583Y162601D01*
X197675Y162637D01*
X197770Y162665D01*
X197823Y162695D01*
X197879Y162718D01*
X197959Y162776D01*
X198044Y162826D01*
X198120Y162892D01*
X198136Y162904D01*
X198144Y162914D01*
X198165Y162932D01*
X199306Y164073D01*
X201173Y164847D01*
X203195Y164847D01*
X205062Y164073D01*
X206491Y162644D01*
X207265Y160777D01*
X207265Y158755D01*
X206491Y156888D01*
X205314Y155711D01*
X205241Y155616D01*
X205162Y155527D01*
X205144Y155491D01*
X205119Y155459D01*
X205072Y155350D01*
X205017Y155244D01*
X205009Y155205D01*
X204992Y155167D01*
X204974Y155050D01*
X204948Y154934D01*
X204949Y154893D01*
X204943Y154853D01*
X204954Y154735D01*
X204957Y154616D01*
X204969Y154577D01*
X204972Y154537D01*
X205013Y154424D01*
X205046Y154310D01*
X205066Y154276D01*
X205080Y154237D01*
X205147Y154139D01*
X205207Y154036D01*
X205247Y153991D01*
X205259Y153974D01*
X205274Y153961D01*
X205314Y153916D01*
X205983Y153246D01*
X206757Y151379D01*
X206757Y149357D01*
X206219Y148060D01*
X206206Y148012D01*
X206185Y147967D01*
X206164Y147859D01*
X206135Y147753D01*
X206135Y147703D01*
X206125Y147654D01*
X206132Y147545D01*
X206130Y147435D01*
X206142Y147387D01*
X206145Y147337D01*
X206179Y147233D01*
X206204Y147126D01*
X206228Y147082D01*
X206243Y147035D01*
X206302Y146942D01*
X206353Y146845D01*
X206386Y146808D01*
X206413Y146766D01*
X206493Y146691D01*
X206567Y146609D01*
X206609Y146582D01*
X206645Y146548D01*
X206741Y146495D01*
X206833Y146435D01*
X206880Y146418D01*
X206923Y146394D01*
X207030Y146367D01*
X207134Y146331D01*
X207183Y146327D01*
X207231Y146315D01*
X207392Y146305D01*
X208882Y146305D01*
X209780Y145407D01*
X209858Y145346D01*
X209930Y145278D01*
X209983Y145249D01*
X210031Y145212D01*
X210122Y145172D01*
X210209Y145124D01*
X210267Y145109D01*
X210323Y145085D01*
X210421Y145070D01*
X210517Y145045D01*
X210617Y145039D01*
X210637Y145035D01*
X210649Y145037D01*
X210677Y145035D01*
X214979Y145035D01*
X215077Y145047D01*
X215176Y145050D01*
X215234Y145067D01*
X215294Y145075D01*
X215386Y145111D01*
X215481Y145139D01*
X215534Y145169D01*
X215590Y145192D01*
X215670Y145250D01*
X215755Y145300D01*
X215831Y145366D01*
X215847Y145378D01*
X215855Y145388D01*
X215876Y145406D01*
X216290Y145820D01*
X216350Y145898D01*
X216418Y145970D01*
X216447Y146023D01*
X216484Y146071D01*
X216524Y146162D01*
X216572Y146249D01*
X216587Y146307D01*
X216611Y146363D01*
X216626Y146461D01*
X216651Y146557D01*
X216657Y146657D01*
X216661Y146677D01*
X216659Y146689D01*
X216661Y146717D01*
X216661Y183514D01*
X216658Y183544D01*
X216660Y183573D01*
X216638Y183701D01*
X216621Y183830D01*
X216611Y183857D01*
X216606Y183886D01*
X216552Y184005D01*
X216504Y184125D01*
X216487Y184149D01*
X216475Y184176D01*
X216394Y184278D01*
X216318Y184383D01*
X216295Y184402D01*
X216276Y184425D01*
X216173Y184503D01*
X216073Y184586D01*
X216046Y184598D01*
X216022Y184616D01*
X215878Y184687D01*
X215308Y184923D01*
X213879Y186352D01*
X213012Y188446D01*
X212997Y188471D01*
X212988Y188499D01*
X212918Y188609D01*
X212854Y188722D01*
X212833Y188743D01*
X212818Y188768D01*
X212723Y188857D01*
X212633Y188950D01*
X212608Y188966D01*
X212586Y188986D01*
X212472Y189049D01*
X212362Y189117D01*
X212333Y189125D01*
X212308Y189140D01*
X212182Y189172D01*
X212058Y189210D01*
X212028Y189212D01*
X212000Y189219D01*
X211839Y189229D01*
X200496Y189229D01*
X200398Y189217D01*
X200299Y189214D01*
X200241Y189197D01*
X200181Y189189D01*
X200089Y189153D01*
X199994Y189125D01*
X199941Y189095D01*
X199885Y189072D01*
X199805Y189014D01*
X199720Y188964D01*
X199644Y188898D01*
X199628Y188886D01*
X199620Y188876D01*
X199599Y188858D01*
X198458Y187717D01*
X196475Y186895D01*
X196432Y186871D01*
X196385Y186854D01*
X196294Y186792D01*
X196199Y186738D01*
X196163Y186703D01*
X196122Y186675D01*
X196049Y186593D01*
X195970Y186517D01*
X195944Y186474D01*
X195911Y186437D01*
X195861Y186339D01*
X195804Y186245D01*
X195789Y186198D01*
X195767Y186154D01*
X195743Y186046D01*
X195710Y185941D01*
X195708Y185892D01*
X195697Y185843D01*
X195700Y185734D01*
X195695Y185624D01*
X195705Y185575D01*
X195707Y185525D01*
X195737Y185420D01*
X195760Y185312D01*
X195781Y185268D01*
X195795Y185220D01*
X195851Y185126D01*
X195899Y185027D01*
X195932Y184989D01*
X195957Y184946D01*
X196063Y184825D01*
X200938Y179950D01*
X201016Y179890D01*
X201088Y179822D01*
X201141Y179793D01*
X201189Y179756D01*
X201280Y179716D01*
X201367Y179668D01*
X201425Y179653D01*
X201481Y179629D01*
X201579Y179614D01*
X201675Y179589D01*
X201775Y179583D01*
X201795Y179579D01*
X201807Y179581D01*
X201835Y179579D01*
X203957Y179579D01*
X205824Y178805D01*
X207253Y177376D01*
X208027Y175509D01*
X208027Y173487D01*
X207253Y171620D01*
X205824Y170191D01*
X203957Y169417D01*
X201935Y169417D01*
X200068Y170191D01*
X198639Y171620D01*
X197865Y173487D01*
X197865Y174593D01*
X197853Y174691D01*
X197850Y174790D01*
X197833Y174848D01*
X197825Y174908D01*
X197789Y175000D01*
X197761Y175095D01*
X197731Y175148D01*
X197708Y175204D01*
X197650Y175284D01*
X197600Y175369D01*
X197534Y175445D01*
X197522Y175461D01*
X197512Y175469D01*
X197494Y175490D01*
X185927Y187056D01*
X185927Y223107D01*
X185915Y223205D01*
X185912Y223304D01*
X185895Y223362D01*
X185887Y223422D01*
X185851Y223514D01*
X185823Y223609D01*
X185793Y223662D01*
X185770Y223718D01*
X185712Y223798D01*
X185662Y223883D01*
X185596Y223959D01*
X185584Y223975D01*
X185574Y223983D01*
X185556Y224004D01*
X178538Y231022D01*
X178460Y231082D01*
X178388Y231150D01*
X178335Y231179D01*
X178287Y231216D01*
X178196Y231256D01*
X178109Y231304D01*
X178051Y231319D01*
X177995Y231343D01*
X177897Y231358D01*
X177801Y231383D01*
X177701Y231389D01*
X177681Y231393D01*
X177669Y231391D01*
X177641Y231393D01*
X176027Y231393D01*
X174160Y232167D01*
X172731Y233596D01*
X171957Y235463D01*
X171957Y237485D01*
X172731Y239352D01*
X174160Y240781D01*
X176027Y241555D01*
X178049Y241555D01*
X179916Y240781D01*
X181345Y239352D01*
X182119Y237485D01*
X182119Y235871D01*
X182131Y235773D01*
X182134Y235674D01*
X182151Y235616D01*
X182159Y235556D01*
X182195Y235464D01*
X182223Y235369D01*
X182253Y235316D01*
X182276Y235260D01*
X182334Y235180D01*
X182384Y235095D01*
X182450Y235019D01*
X182462Y235003D01*
X182472Y234995D01*
X182490Y234974D01*
X191517Y225948D01*
X191517Y197740D01*
X191523Y197690D01*
X191521Y197641D01*
X191543Y197533D01*
X191557Y197424D01*
X191575Y197378D01*
X191585Y197329D01*
X191633Y197231D01*
X191674Y197129D01*
X191703Y197089D01*
X191725Y197044D01*
X191796Y196960D01*
X191860Y196871D01*
X191899Y196840D01*
X191931Y196802D01*
X192021Y196739D01*
X192105Y196668D01*
X192150Y196647D01*
X192191Y196619D01*
X192294Y196580D01*
X192393Y196533D01*
X192442Y196524D01*
X192488Y196506D01*
X192598Y196494D01*
X192705Y196473D01*
X192755Y196476D01*
X192804Y196471D01*
X192913Y196486D01*
X193023Y196493D01*
X193070Y196508D01*
X193119Y196515D01*
X193272Y196567D01*
X194569Y197105D01*
X196591Y197105D01*
X198458Y196331D01*
X199599Y195190D01*
X199677Y195130D01*
X199749Y195062D01*
X199802Y195033D01*
X199850Y194996D01*
X199941Y194956D01*
X200028Y194908D01*
X200086Y194893D01*
X200142Y194869D01*
X200240Y194854D01*
X200336Y194829D01*
X200436Y194823D01*
X200456Y194819D01*
X200468Y194821D01*
X200496Y194819D01*
X208629Y194819D01*
X208727Y194831D01*
X208826Y194834D01*
X208884Y194851D01*
X208944Y194859D01*
X209036Y194895D01*
X209131Y194923D01*
X209184Y194953D01*
X209240Y194976D01*
X209320Y195034D01*
X209405Y195084D01*
X209481Y195150D01*
X209497Y195162D01*
X209505Y195172D01*
X209526Y195190D01*
X214488Y200153D01*
X225186Y200153D01*
X250732Y174606D01*
X250756Y174588D01*
X250775Y174565D01*
X250881Y174491D01*
X250984Y174411D01*
X251011Y174399D01*
X251035Y174382D01*
X251156Y174336D01*
X251275Y174285D01*
X251305Y174280D01*
X251332Y174270D01*
X251461Y174255D01*
X251590Y174235D01*
X251619Y174238D01*
X251648Y174234D01*
X251777Y174253D01*
X251906Y174265D01*
X251934Y174275D01*
X251963Y174279D01*
X252116Y174331D01*
X254974Y175515D01*
X258106Y175515D01*
X261001Y174316D01*
X263216Y172101D01*
X264415Y169206D01*
X264415Y166074D01*
X263216Y163179D01*
X261001Y160964D01*
X258106Y159765D01*
X254974Y159765D01*
X252079Y160964D01*
X249864Y163179D01*
X248665Y166074D01*
X248665Y168243D01*
X248653Y168341D01*
X248650Y168440D01*
X248633Y168498D01*
X248625Y168558D01*
X248589Y168650D01*
X248561Y168745D01*
X248531Y168798D01*
X248508Y168854D01*
X248450Y168934D01*
X248400Y169019D01*
X248334Y169095D01*
X248322Y169111D01*
X248312Y169119D01*
X248294Y169140D01*
X225002Y192431D01*
X224947Y192474D01*
X224899Y192524D01*
X224822Y192571D01*
X224751Y192626D01*
X224687Y192654D01*
X224628Y192690D01*
X224542Y192717D01*
X224459Y192753D01*
X224390Y192764D01*
X224324Y192784D01*
X224234Y192788D01*
X224145Y192802D01*
X224076Y192796D01*
X224006Y192799D01*
X223918Y192781D01*
X223829Y192773D01*
X223763Y192749D01*
X223695Y192735D01*
X223614Y192695D01*
X223529Y192665D01*
X223472Y192626D01*
X223409Y192595D01*
X223340Y192537D01*
X223266Y192486D01*
X223220Y192434D01*
X223167Y192389D01*
X223115Y192315D01*
X223056Y192248D01*
X223024Y192186D01*
X222984Y192129D01*
X222952Y192045D01*
X222911Y191965D01*
X222896Y191897D01*
X222871Y191831D01*
X222861Y191742D01*
X222841Y191654D01*
X222844Y191585D01*
X222836Y191515D01*
X222848Y191426D01*
X222851Y191337D01*
X222870Y191269D01*
X222880Y191200D01*
X222932Y191048D01*
X223267Y190241D01*
X223267Y188219D01*
X222460Y186272D01*
X222428Y186230D01*
X222388Y186139D01*
X222340Y186052D01*
X222325Y185994D01*
X222301Y185938D01*
X222286Y185840D01*
X222261Y185744D01*
X222255Y185644D01*
X222251Y185624D01*
X222253Y185612D01*
X222251Y185584D01*
X222251Y146304D01*
X222266Y146186D01*
X222273Y146067D01*
X222286Y146029D01*
X222291Y145988D01*
X222334Y145878D01*
X222371Y145765D01*
X222393Y145730D01*
X222408Y145693D01*
X222477Y145597D01*
X222541Y145496D01*
X222571Y145468D01*
X222594Y145435D01*
X222686Y145359D01*
X222773Y145278D01*
X222808Y145258D01*
X222839Y145233D01*
X222947Y145182D01*
X223051Y145124D01*
X223091Y145114D01*
X223127Y145097D01*
X223244Y145075D01*
X223359Y145045D01*
X223419Y145041D01*
X223439Y145037D01*
X223460Y145039D01*
X223520Y145035D01*
X248326Y145035D01*
X248355Y145038D01*
X248385Y145036D01*
X248513Y145058D01*
X248642Y145075D01*
X248669Y145085D01*
X248698Y145090D01*
X248817Y145144D01*
X248937Y145192D01*
X248961Y145209D01*
X248988Y145221D01*
X249089Y145302D01*
X249195Y145378D01*
X249213Y145401D01*
X249236Y145420D01*
X249315Y145523D01*
X249397Y145623D01*
X249410Y145650D01*
X249428Y145674D01*
X249499Y145818D01*
X249864Y146701D01*
X252079Y148916D01*
X254974Y150115D01*
X258106Y150115D01*
X261001Y148916D01*
X263216Y146701D01*
X264415Y143806D01*
X264415Y140674D01*
X263216Y137779D01*
X261001Y135564D01*
X258106Y134365D01*
X254974Y134365D01*
X252079Y135564D01*
X249864Y137779D01*
X249499Y138662D01*
X249484Y138687D01*
X249475Y138715D01*
X249405Y138825D01*
X249341Y138938D01*
X249321Y138959D01*
X249305Y138984D01*
X249210Y139073D01*
X249120Y139166D01*
X249095Y139182D01*
X249073Y139202D01*
X248959Y139265D01*
X248849Y139333D01*
X248820Y139341D01*
X248795Y139356D01*
X248669Y139388D01*
X248545Y139426D01*
X248515Y139428D01*
X248487Y139435D01*
X248326Y139445D01*
X240951Y139445D01*
X240814Y139428D01*
X240675Y139415D01*
X240656Y139408D01*
X240636Y139405D01*
X240507Y139354D01*
X240376Y139307D01*
X240359Y139296D01*
X240340Y139288D01*
X240228Y139207D01*
X240113Y139129D01*
X240099Y139113D01*
X240083Y139102D01*
X239994Y138994D01*
X239902Y138890D01*
X239893Y138872D01*
X239880Y138857D01*
X239821Y138731D01*
X239757Y138607D01*
X239753Y138587D01*
X239744Y138569D01*
X239718Y138433D01*
X239688Y138297D01*
X239688Y138276D01*
X239685Y138257D01*
X239693Y138118D01*
X239697Y137979D01*
X239703Y137959D01*
X239704Y137939D01*
X239747Y137807D01*
X239786Y137673D01*
X239796Y137656D01*
X239802Y137637D01*
X239877Y137519D01*
X239947Y137399D01*
X239966Y137378D01*
X239973Y137368D01*
X239988Y137354D01*
X240054Y137279D01*
X252708Y124624D01*
X252731Y124606D01*
X252750Y124584D01*
X252856Y124509D01*
X252959Y124429D01*
X252986Y124418D01*
X253011Y124401D01*
X253132Y124355D01*
X253251Y124303D01*
X253280Y124298D01*
X253308Y124288D01*
X253437Y124274D01*
X253565Y124253D01*
X253595Y124256D01*
X253624Y124253D01*
X253752Y124271D01*
X253882Y124283D01*
X253910Y124293D01*
X253939Y124297D01*
X254091Y124349D01*
X254974Y124715D01*
X258106Y124715D01*
X261001Y123516D01*
X263216Y121301D01*
X264415Y118406D01*
X264415Y115274D01*
X263216Y112379D01*
X261137Y110301D01*
X261064Y110207D01*
X260986Y110118D01*
X260967Y110082D01*
X260942Y110050D01*
X260895Y109940D01*
X260841Y109834D01*
X260832Y109795D01*
X260816Y109758D01*
X260797Y109640D01*
X260771Y109524D01*
X260773Y109484D01*
X260766Y109444D01*
X260777Y109325D01*
X260781Y109206D01*
X260792Y109167D01*
X260796Y109127D01*
X260836Y109015D01*
X260869Y108901D01*
X260890Y108866D01*
X260904Y108828D01*
X260971Y108729D01*
X261031Y108627D01*
X261071Y108581D01*
X261082Y108565D01*
X261098Y108551D01*
X261137Y108506D01*
X262117Y107526D01*
X262891Y105659D01*
X262891Y103637D01*
X262117Y101770D01*
X260550Y100202D01*
X260519Y100163D01*
X260482Y100130D01*
X260422Y100038D01*
X260355Y99951D01*
X260335Y99905D01*
X260308Y99864D01*
X260272Y99760D01*
X260228Y99659D01*
X260220Y99610D01*
X260204Y99563D01*
X260196Y99454D01*
X260178Y99345D01*
X260183Y99295D01*
X260179Y99246D01*
X260198Y99138D01*
X260208Y99028D01*
X260225Y98982D01*
X260234Y98933D01*
X260279Y98833D01*
X260316Y98729D01*
X260344Y98688D01*
X260364Y98643D01*
X260433Y98557D01*
X260494Y98466D01*
X260532Y98433D01*
X260563Y98394D01*
X260650Y98328D01*
X260733Y98256D01*
X260777Y98233D01*
X260817Y98203D01*
X260961Y98132D01*
X261001Y98116D01*
X263216Y95901D01*
X264415Y93006D01*
X264415Y89874D01*
X263216Y86979D01*
X261001Y84764D01*
X258106Y83565D01*
X254974Y83565D01*
X252079Y84764D01*
X249864Y86979D01*
X248665Y89874D01*
X248665Y93006D01*
X249031Y93889D01*
X249039Y93917D01*
X249052Y93944D01*
X249080Y94070D01*
X249115Y94196D01*
X249115Y94225D01*
X249122Y94254D01*
X249118Y94384D01*
X249120Y94513D01*
X249113Y94542D01*
X249112Y94572D01*
X249076Y94696D01*
X249046Y94823D01*
X249032Y94849D01*
X249024Y94877D01*
X248958Y94989D01*
X248897Y95104D01*
X248877Y95126D01*
X248862Y95151D01*
X248756Y95272D01*
X244347Y99680D01*
X244347Y99986D01*
X244335Y100084D01*
X244332Y100183D01*
X244315Y100241D01*
X244307Y100301D01*
X244271Y100393D01*
X244243Y100489D01*
X244213Y100541D01*
X244190Y100597D01*
X244132Y100677D01*
X244082Y100762D01*
X244016Y100838D01*
X244004Y100854D01*
X243994Y100862D01*
X243976Y100883D01*
X242835Y102024D01*
X242061Y103891D01*
X242061Y105913D01*
X242835Y107780D01*
X244264Y109209D01*
X246131Y109983D01*
X248153Y109983D01*
X249270Y109520D01*
X249338Y109501D01*
X249402Y109474D01*
X249491Y109459D01*
X249577Y109436D01*
X249647Y109435D01*
X249716Y109424D01*
X249805Y109432D01*
X249895Y109431D01*
X249963Y109447D01*
X250032Y109454D01*
X250117Y109484D01*
X250204Y109505D01*
X250266Y109538D01*
X250332Y109561D01*
X250406Y109612D01*
X250485Y109654D01*
X250537Y109701D01*
X250595Y109740D01*
X250654Y109807D01*
X250721Y109868D01*
X250759Y109926D01*
X250805Y109978D01*
X250846Y110058D01*
X250896Y110133D01*
X250918Y110199D01*
X250950Y110261D01*
X250970Y110349D01*
X250999Y110434D01*
X251004Y110504D01*
X251020Y110572D01*
X251017Y110661D01*
X251024Y110751D01*
X251012Y110820D01*
X251010Y110890D01*
X250985Y110976D01*
X250970Y111064D01*
X250941Y111128D01*
X250922Y111195D01*
X250876Y111272D01*
X250839Y111354D01*
X250795Y111409D01*
X250760Y111469D01*
X250654Y111590D01*
X249864Y112379D01*
X248665Y115274D01*
X248665Y118406D01*
X249031Y119289D01*
X249039Y119317D01*
X249052Y119344D01*
X249080Y119470D01*
X249115Y119596D01*
X249115Y119625D01*
X249122Y119654D01*
X249118Y119784D01*
X249120Y119914D01*
X249113Y119942D01*
X249112Y119972D01*
X249076Y120096D01*
X249046Y120223D01*
X249032Y120249D01*
X249024Y120277D01*
X248958Y120389D01*
X248897Y120504D01*
X248877Y120526D01*
X248862Y120551D01*
X248756Y120672D01*
X235434Y133994D01*
X235356Y134054D01*
X235284Y134122D01*
X235231Y134151D01*
X235183Y134188D01*
X235092Y134228D01*
X235005Y134276D01*
X234947Y134291D01*
X234891Y134315D01*
X234793Y134330D01*
X234697Y134355D01*
X234597Y134361D01*
X234577Y134365D01*
X234565Y134363D01*
X234537Y134365D01*
X205391Y134365D01*
X203985Y135772D01*
X203907Y135832D01*
X203834Y135900D01*
X203781Y135929D01*
X203734Y135966D01*
X203643Y136006D01*
X203556Y136054D01*
X203497Y136069D01*
X203442Y136093D01*
X203344Y136108D01*
X203248Y136133D01*
X203148Y136139D01*
X203128Y136143D01*
X203115Y136141D01*
X203087Y136143D01*
X202207Y136143D01*
X202157Y136137D01*
X202108Y136139D01*
X202000Y136117D01*
X201891Y136103D01*
X201845Y136085D01*
X201796Y136075D01*
X201698Y136027D01*
X201595Y135986D01*
X201555Y135957D01*
X201511Y135935D01*
X201427Y135864D01*
X201338Y135800D01*
X201306Y135761D01*
X201269Y135729D01*
X201205Y135639D01*
X201135Y135555D01*
X201114Y135510D01*
X201085Y135469D01*
X201047Y135366D01*
X201000Y135267D01*
X200990Y135218D01*
X200973Y135172D01*
X200961Y135062D01*
X200940Y134955D01*
X200943Y134905D01*
X200938Y134856D01*
X200953Y134747D01*
X200960Y134637D01*
X200975Y134590D01*
X200982Y134541D01*
X201034Y134388D01*
X201677Y132837D01*
X201677Y132493D01*
X201689Y132395D01*
X201692Y132296D01*
X201709Y132238D01*
X201717Y132178D01*
X201753Y132086D01*
X201781Y131991D01*
X201811Y131938D01*
X201834Y131882D01*
X201892Y131802D01*
X201942Y131717D01*
X202008Y131641D01*
X202020Y131625D01*
X202030Y131617D01*
X202048Y131596D01*
X207856Y125788D01*
X207934Y125728D01*
X208006Y125660D01*
X208059Y125631D01*
X208107Y125594D01*
X208198Y125554D01*
X208285Y125506D01*
X208343Y125491D01*
X208399Y125467D01*
X208497Y125452D01*
X208593Y125427D01*
X208693Y125421D01*
X208713Y125417D01*
X208725Y125419D01*
X208753Y125417D01*
X223976Y125417D01*
X228601Y120792D01*
X228601Y76036D01*
X228613Y75938D01*
X228616Y75839D01*
X228633Y75781D01*
X228641Y75721D01*
X228677Y75629D01*
X228705Y75534D01*
X228735Y75481D01*
X228758Y75425D01*
X228816Y75345D01*
X228866Y75260D01*
X228932Y75184D01*
X228944Y75168D01*
X228954Y75160D01*
X228972Y75139D01*
X230113Y73998D01*
X230887Y72131D01*
X230887Y70109D01*
X230113Y68242D01*
X228684Y66813D01*
X226817Y66039D01*
X224795Y66039D01*
X222928Y66813D01*
X221499Y68242D01*
X220725Y70109D01*
X220725Y72131D01*
X221499Y73998D01*
X222640Y75139D01*
X222700Y75217D01*
X222768Y75289D01*
X222797Y75342D01*
X222834Y75390D01*
X222874Y75481D01*
X222922Y75568D01*
X222937Y75626D01*
X222961Y75682D01*
X222976Y75780D01*
X223001Y75876D01*
X223007Y75976D01*
X223011Y75996D01*
X223009Y76008D01*
X223011Y76036D01*
X223011Y117951D01*
X222999Y118049D01*
X222996Y118148D01*
X222979Y118206D01*
X222971Y118266D01*
X222935Y118358D01*
X222907Y118453D01*
X222877Y118506D01*
X222854Y118562D01*
X222796Y118642D01*
X222746Y118727D01*
X222680Y118803D01*
X222668Y118819D01*
X222658Y118827D01*
X222640Y118848D01*
X222032Y119456D01*
X221954Y119516D01*
X221882Y119584D01*
X221829Y119613D01*
X221781Y119650D01*
X221690Y119690D01*
X221603Y119738D01*
X221545Y119753D01*
X221489Y119777D01*
X221391Y119792D01*
X221295Y119817D01*
X221195Y119823D01*
X221175Y119827D01*
X221163Y119825D01*
X221135Y119827D01*
X205912Y119827D01*
X199188Y126552D01*
X199164Y126570D01*
X199145Y126593D01*
X199039Y126667D01*
X198936Y126747D01*
X198909Y126759D01*
X198885Y126776D01*
X198764Y126822D01*
X198644Y126873D01*
X198615Y126878D01*
X198588Y126888D01*
X198459Y126903D01*
X198330Y126923D01*
X198301Y126920D01*
X198272Y126924D01*
X198143Y126906D01*
X198014Y126893D01*
X197986Y126883D01*
X197957Y126879D01*
X197804Y126827D01*
X197607Y126745D01*
X195563Y126745D01*
X195514Y126767D01*
X195425Y126781D01*
X195339Y126804D01*
X195269Y126806D01*
X195200Y126817D01*
X195110Y126808D01*
X195021Y126810D01*
X194953Y126793D01*
X194883Y126787D01*
X194799Y126756D01*
X194711Y126735D01*
X194650Y126703D01*
X194584Y126679D01*
X194509Y126629D01*
X194430Y126587D01*
X194378Y126540D01*
X194321Y126501D01*
X194261Y126433D01*
X194195Y126373D01*
X194156Y126314D01*
X194110Y126262D01*
X194069Y126182D01*
X194020Y126107D01*
X193997Y126041D01*
X193966Y125979D01*
X193946Y125891D01*
X193917Y125806D01*
X193911Y125737D01*
X193896Y125669D01*
X193899Y125579D01*
X193892Y125489D01*
X193903Y125420D01*
X193906Y125351D01*
X193931Y125264D01*
X193946Y125176D01*
X193975Y125112D01*
X193994Y125045D01*
X194040Y124968D01*
X194076Y124886D01*
X194120Y124831D01*
X194156Y124771D01*
X194262Y124650D01*
X196366Y122546D01*
X198375Y120538D01*
X198375Y72803D01*
X198387Y72705D01*
X198390Y72606D01*
X198407Y72548D01*
X198415Y72488D01*
X198451Y72396D01*
X198479Y72301D01*
X198509Y72248D01*
X198532Y72192D01*
X198590Y72112D01*
X198640Y72027D01*
X198706Y71951D01*
X198718Y71935D01*
X198728Y71927D01*
X198746Y71906D01*
X220498Y50154D01*
X220592Y50081D01*
X220681Y50003D01*
X220717Y49984D01*
X220749Y49959D01*
X220859Y49912D01*
X220965Y49858D01*
X221004Y49849D01*
X221041Y49833D01*
X221159Y49814D01*
X221275Y49788D01*
X221315Y49789D01*
X221355Y49783D01*
X221474Y49794D01*
X221593Y49798D01*
X221632Y49809D01*
X221672Y49813D01*
X221784Y49853D01*
X221898Y49886D01*
X221933Y49907D01*
X221971Y49921D01*
X222070Y49987D01*
X222172Y50048D01*
X222217Y50088D01*
X222234Y50099D01*
X222248Y50114D01*
X222293Y50154D01*
X222674Y50535D01*
X224541Y51309D01*
X226563Y51309D01*
X228430Y50535D01*
X229859Y49106D01*
X230633Y47239D01*
X230633Y45217D01*
X229859Y43350D01*
X228430Y41921D01*
X226563Y41147D01*
X224541Y41147D01*
X222674Y41921D01*
X221533Y43062D01*
X221455Y43122D01*
X221383Y43190D01*
X221330Y43219D01*
X221282Y43256D01*
X221191Y43296D01*
X221104Y43344D01*
X221046Y43359D01*
X220990Y43383D01*
X220892Y43398D01*
X220796Y43423D01*
X220696Y43429D01*
X220676Y43433D01*
X220664Y43431D01*
X220636Y43433D01*
X219314Y43433D01*
X192785Y69962D01*
X192785Y117697D01*
X192773Y117795D01*
X192770Y117894D01*
X192753Y117952D01*
X192745Y118012D01*
X192709Y118104D01*
X192681Y118199D01*
X192651Y118252D01*
X192628Y118308D01*
X192570Y118388D01*
X192520Y118473D01*
X192454Y118549D01*
X192442Y118565D01*
X192432Y118573D01*
X192414Y118594D01*
X186920Y124088D01*
X186842Y124148D01*
X186770Y124216D01*
X186717Y124245D01*
X186669Y124282D01*
X186578Y124322D01*
X186491Y124370D01*
X186433Y124385D01*
X186377Y124409D01*
X186279Y124424D01*
X186183Y124449D01*
X186083Y124455D01*
X186063Y124459D01*
X186051Y124457D01*
X186023Y124459D01*
X184409Y124459D01*
X182542Y125233D01*
X181113Y126662D01*
X180339Y128529D01*
X180339Y130551D01*
X181113Y132418D01*
X182542Y133847D01*
X184409Y134621D01*
X186431Y134621D01*
X188298Y133847D01*
X189526Y132619D01*
X189565Y132589D01*
X189598Y132552D01*
X189690Y132492D01*
X189777Y132425D01*
X189823Y132405D01*
X189864Y132377D01*
X189968Y132342D01*
X190069Y132298D01*
X190118Y132290D01*
X190165Y132274D01*
X190274Y132266D01*
X190383Y132248D01*
X190433Y132253D01*
X190482Y132249D01*
X190590Y132268D01*
X190700Y132278D01*
X190746Y132295D01*
X190795Y132303D01*
X190896Y132349D01*
X190999Y132386D01*
X191040Y132414D01*
X191085Y132434D01*
X191171Y132503D01*
X191262Y132564D01*
X191295Y132602D01*
X191334Y132633D01*
X191400Y132720D01*
X191473Y132803D01*
X191495Y132847D01*
X191525Y132887D01*
X191596Y133031D01*
X192158Y134388D01*
X192171Y134436D01*
X192192Y134481D01*
X192213Y134589D01*
X192242Y134695D01*
X192243Y134745D01*
X192252Y134794D01*
X192245Y134903D01*
X192247Y135013D01*
X192235Y135061D01*
X192232Y135111D01*
X192198Y135215D01*
X192173Y135322D01*
X192150Y135366D01*
X192134Y135413D01*
X192076Y135506D01*
X192024Y135603D01*
X191991Y135640D01*
X191964Y135682D01*
X191884Y135757D01*
X191810Y135839D01*
X191769Y135866D01*
X191732Y135900D01*
X191636Y135953D01*
X191544Y136013D01*
X191497Y136030D01*
X191454Y136054D01*
X191348Y136081D01*
X191244Y136117D01*
X191194Y136121D01*
X191146Y136133D01*
X190985Y136143D01*
X189691Y136143D01*
X160781Y165053D01*
X160781Y182721D01*
X160769Y182819D01*
X160766Y182918D01*
X160749Y182976D01*
X160741Y183036D01*
X160705Y183128D01*
X160677Y183223D01*
X160647Y183276D01*
X160624Y183332D01*
X160566Y183412D01*
X160516Y183497D01*
X160450Y183573D01*
X160438Y183589D01*
X160428Y183597D01*
X160410Y183618D01*
X156186Y187842D01*
X156108Y187902D01*
X156036Y187970D01*
X155983Y187999D01*
X155935Y188036D01*
X155844Y188076D01*
X155757Y188124D01*
X155699Y188139D01*
X155643Y188163D01*
X155545Y188178D01*
X155449Y188203D01*
X155349Y188209D01*
X155329Y188213D01*
X155317Y188211D01*
X155289Y188213D01*
X139700Y188213D01*
X139582Y188198D01*
X139463Y188191D01*
X139425Y188178D01*
X139384Y188173D01*
X139274Y188130D01*
X139161Y188093D01*
X139126Y188071D01*
X139089Y188056D01*
X138993Y187987D01*
X138892Y187923D01*
X138864Y187893D01*
X138831Y187870D01*
X138755Y187778D01*
X138674Y187691D01*
X138654Y187656D01*
X138629Y187625D01*
X138578Y187517D01*
X138520Y187413D01*
X138510Y187373D01*
X138493Y187337D01*
X138471Y187220D01*
X138441Y187105D01*
X138437Y187045D01*
X138433Y187025D01*
X138435Y187004D01*
X138431Y186944D01*
X138431Y125820D01*
X138443Y125722D01*
X138446Y125623D01*
X138463Y125565D01*
X138471Y125505D01*
X138507Y125413D01*
X138535Y125318D01*
X138565Y125265D01*
X138588Y125209D01*
X138646Y125129D01*
X138696Y125044D01*
X138762Y124968D01*
X138774Y124952D01*
X138784Y124944D01*
X138802Y124923D01*
X139307Y124418D01*
X139402Y124345D01*
X139491Y124266D01*
X139527Y124248D01*
X139559Y124223D01*
X139668Y124176D01*
X139774Y124121D01*
X139813Y124113D01*
X139851Y124096D01*
X139968Y124078D01*
X140084Y124052D01*
X140125Y124053D01*
X140165Y124047D01*
X140283Y124058D01*
X140402Y124061D01*
X140441Y124073D01*
X140481Y124076D01*
X140593Y124117D01*
X140708Y124150D01*
X140743Y124170D01*
X140781Y124184D01*
X140879Y124251D01*
X140982Y124311D01*
X141027Y124351D01*
X141044Y124363D01*
X141057Y124378D01*
X141102Y124418D01*
X141902Y125217D01*
X143769Y125991D01*
X145791Y125991D01*
X147658Y125217D01*
X149087Y123788D01*
X149861Y121921D01*
X149861Y119899D01*
X149087Y118032D01*
X147946Y116891D01*
X147886Y116813D01*
X147818Y116741D01*
X147789Y116688D01*
X147752Y116640D01*
X147712Y116549D01*
X147664Y116462D01*
X147649Y116404D01*
X147625Y116348D01*
X147610Y116250D01*
X147585Y116154D01*
X147579Y116054D01*
X147575Y116034D01*
X147577Y116022D01*
X147575Y115994D01*
X147575Y103581D01*
X137719Y93725D01*
X129906Y93725D01*
X110489Y113142D01*
X110489Y153326D01*
X110472Y153464D01*
X110459Y153602D01*
X110452Y153621D01*
X110449Y153641D01*
X110398Y153771D01*
X110351Y153901D01*
X110340Y153918D01*
X110332Y153937D01*
X110251Y154049D01*
X110173Y154165D01*
X110157Y154178D01*
X110146Y154194D01*
X110039Y154283D01*
X109934Y154375D01*
X109916Y154384D01*
X109901Y154397D01*
X109775Y154456D01*
X109651Y154520D01*
X109631Y154524D01*
X109613Y154533D01*
X109477Y154559D01*
X109341Y154589D01*
X109320Y154589D01*
X109301Y154592D01*
X109162Y154584D01*
X109023Y154580D01*
X109003Y154574D01*
X108983Y154573D01*
X108851Y154530D01*
X108717Y154491D01*
X108700Y154481D01*
X108681Y154475D01*
X108563Y154400D01*
X108443Y154330D01*
X108422Y154311D01*
X108412Y154305D01*
X108398Y154290D01*
X108322Y154223D01*
X107924Y153824D01*
X107865Y153748D01*
X107798Y153678D01*
X107768Y153623D01*
X107729Y153573D01*
X107690Y153485D01*
X107644Y153400D01*
X107628Y153339D01*
X107602Y153281D01*
X107587Y153186D01*
X107563Y153093D01*
X107556Y152986D01*
X107553Y152967D01*
X107554Y152956D01*
X107552Y152932D01*
X107547Y151783D01*
X107548Y151781D01*
X107547Y151778D01*
X107547Y150204D01*
X107544Y150160D01*
X107541Y150140D01*
X107542Y150129D01*
X107540Y150102D01*
X107419Y120387D01*
X107419Y120385D01*
X107419Y120381D01*
X107419Y119228D01*
X106595Y118410D01*
X106594Y118409D01*
X106591Y118406D01*
X102207Y114022D01*
X100198Y112013D01*
X96350Y112013D01*
X96301Y112007D01*
X96251Y112009D01*
X96144Y111987D01*
X96035Y111973D01*
X95988Y111955D01*
X95940Y111945D01*
X95841Y111897D01*
X95739Y111856D01*
X95699Y111827D01*
X95654Y111805D01*
X95571Y111734D01*
X95482Y111670D01*
X95450Y111631D01*
X95412Y111599D01*
X95349Y111509D01*
X95279Y111425D01*
X95258Y111380D01*
X95229Y111339D01*
X95190Y111236D01*
X95143Y111137D01*
X95134Y111088D01*
X95116Y111042D01*
X95104Y110932D01*
X95084Y110825D01*
X95087Y110775D01*
X95081Y110726D01*
X95097Y110617D01*
X95103Y110507D01*
X95119Y110460D01*
X95126Y110411D01*
X95178Y110258D01*
X95505Y109469D01*
X95505Y107447D01*
X94731Y105580D01*
X93302Y104151D01*
X91435Y103377D01*
X89413Y103377D01*
X87546Y104151D01*
X86405Y105292D01*
X86327Y105352D01*
X86255Y105420D01*
X86202Y105449D01*
X86154Y105486D01*
X86063Y105526D01*
X85976Y105574D01*
X85918Y105589D01*
X85862Y105613D01*
X85764Y105628D01*
X85668Y105653D01*
X85568Y105659D01*
X85548Y105663D01*
X85536Y105661D01*
X85508Y105663D01*
X68580Y105663D01*
X68462Y105648D01*
X68343Y105641D01*
X68305Y105628D01*
X68264Y105623D01*
X68154Y105580D01*
X68041Y105543D01*
X68006Y105521D01*
X67969Y105506D01*
X67873Y105437D01*
X67772Y105373D01*
X67744Y105343D01*
X67711Y105320D01*
X67635Y105228D01*
X67554Y105141D01*
X67534Y105106D01*
X67509Y105075D01*
X67458Y104967D01*
X67400Y104863D01*
X67390Y104823D01*
X67373Y104787D01*
X67351Y104670D01*
X67321Y104555D01*
X67317Y104495D01*
X67313Y104475D01*
X67315Y104454D01*
X67311Y104394D01*
X67311Y103383D01*
X66537Y101516D01*
X65108Y100087D01*
X64847Y99979D01*
X64786Y99944D01*
X64721Y99918D01*
X64649Y99866D01*
X64571Y99821D01*
X64521Y99773D01*
X64464Y99732D01*
X64407Y99662D01*
X64342Y99600D01*
X64306Y99540D01*
X64261Y99487D01*
X64223Y99405D01*
X64176Y99329D01*
X64155Y99262D01*
X64126Y99199D01*
X64109Y99111D01*
X64082Y99025D01*
X64079Y98955D01*
X64066Y98886D01*
X64071Y98797D01*
X64067Y98707D01*
X64081Y98639D01*
X64086Y98569D01*
X64113Y98484D01*
X64132Y98396D01*
X64162Y98333D01*
X64184Y98267D01*
X64232Y98191D01*
X64271Y98110D01*
X64316Y98057D01*
X64354Y97998D01*
X64419Y97936D01*
X64478Y97868D01*
X64535Y97828D01*
X64585Y97780D01*
X64664Y97737D01*
X64738Y97685D01*
X64803Y97660D01*
X64864Y97626D01*
X64951Y97604D01*
X65035Y97572D01*
X65104Y97564D01*
X65172Y97547D01*
X65333Y97537D01*
X82855Y97537D01*
X100484Y79908D01*
X100562Y79848D01*
X100634Y79780D01*
X100687Y79751D01*
X100735Y79714D01*
X100826Y79674D01*
X100912Y79626D01*
X100971Y79611D01*
X101027Y79587D01*
X101125Y79572D01*
X101220Y79547D01*
X101320Y79541D01*
X101341Y79537D01*
X101353Y79539D01*
X101381Y79537D01*
X110143Y79537D01*
X119404Y70276D01*
X121413Y68267D01*
X121413Y18759D01*
X121425Y18661D01*
X121428Y18562D01*
X121445Y18504D01*
X121453Y18444D01*
X121489Y18352D01*
X121517Y18257D01*
X121547Y18204D01*
X121570Y18148D01*
X121628Y18068D01*
X121678Y17983D01*
X121744Y17907D01*
X121756Y17891D01*
X121766Y17883D01*
X121784Y17862D01*
X122925Y16721D01*
X123699Y14854D01*
X123699Y12832D01*
X122925Y10965D01*
X121496Y9536D01*
X119629Y8762D01*
X117607Y8762D01*
G37*
%LPD*%
%LPC*%
G36*
X143769Y40639D02*
X143769Y40639D01*
X141902Y41413D01*
X140473Y42842D01*
X139699Y44709D01*
X139699Y46731D01*
X140473Y48598D01*
X141777Y49902D01*
X141850Y49997D01*
X141929Y50086D01*
X141947Y50122D01*
X141972Y50154D01*
X142019Y50263D01*
X142074Y50369D01*
X142082Y50408D01*
X142099Y50446D01*
X142117Y50563D01*
X142143Y50679D01*
X142142Y50720D01*
X142148Y50760D01*
X142137Y50878D01*
X142134Y50997D01*
X142122Y51036D01*
X142119Y51076D01*
X142078Y51189D01*
X142045Y51303D01*
X142025Y51337D01*
X142011Y51376D01*
X141944Y51474D01*
X141884Y51577D01*
X141844Y51622D01*
X141832Y51639D01*
X141817Y51652D01*
X141777Y51697D01*
X140473Y53002D01*
X139699Y54869D01*
X139699Y56891D01*
X140473Y58758D01*
X141777Y60063D01*
X141850Y60157D01*
X141929Y60246D01*
X141947Y60282D01*
X141972Y60314D01*
X142020Y60423D01*
X142074Y60529D01*
X142082Y60568D01*
X142099Y60606D01*
X142117Y60723D01*
X142143Y60839D01*
X142142Y60880D01*
X142148Y60920D01*
X142137Y61038D01*
X142134Y61157D01*
X142122Y61196D01*
X142119Y61236D01*
X142078Y61348D01*
X142045Y61463D01*
X142025Y61498D01*
X142011Y61536D01*
X141944Y61634D01*
X141884Y61737D01*
X141844Y61782D01*
X141832Y61799D01*
X141817Y61812D01*
X141777Y61858D01*
X140473Y63162D01*
X139699Y65029D01*
X139699Y67051D01*
X140473Y68918D01*
X141902Y70347D01*
X142852Y70741D01*
X142860Y70745D01*
X142869Y70748D01*
X142997Y70824D01*
X143128Y70898D01*
X143135Y70905D01*
X143143Y70909D01*
X143263Y71016D01*
X172094Y99846D01*
X172154Y99924D01*
X172222Y99996D01*
X172251Y100049D01*
X172288Y100097D01*
X172328Y100188D01*
X172376Y100275D01*
X172391Y100333D01*
X172415Y100389D01*
X172430Y100487D01*
X172455Y100583D01*
X172461Y100683D01*
X172465Y100703D01*
X172463Y100715D01*
X172465Y100743D01*
X172465Y107859D01*
X172476Y107870D01*
X172505Y107923D01*
X172542Y107971D01*
X172582Y108062D01*
X172630Y108149D01*
X172645Y108207D01*
X172669Y108263D01*
X172684Y108361D01*
X172709Y108457D01*
X172715Y108557D01*
X172719Y108577D01*
X172717Y108589D01*
X172719Y108617D01*
X172719Y110231D01*
X173493Y112098D01*
X174922Y113527D01*
X176789Y114301D01*
X178811Y114301D01*
X180678Y113527D01*
X182107Y112098D01*
X182881Y110231D01*
X182881Y108209D01*
X182107Y106342D01*
X180678Y104913D01*
X178838Y104151D01*
X178813Y104136D01*
X178785Y104127D01*
X178675Y104058D01*
X178562Y103993D01*
X178541Y103973D01*
X178516Y103957D01*
X178427Y103862D01*
X178334Y103772D01*
X178318Y103747D01*
X178298Y103725D01*
X178235Y103611D01*
X178167Y103501D01*
X178159Y103473D01*
X178144Y103447D01*
X178112Y103321D01*
X178074Y103197D01*
X178072Y103167D01*
X178065Y103139D01*
X178055Y102978D01*
X178055Y101920D01*
X178061Y101871D01*
X178059Y101821D01*
X178081Y101714D01*
X178095Y101605D01*
X178113Y101558D01*
X178123Y101510D01*
X178171Y101411D01*
X178212Y101309D01*
X178241Y101269D01*
X178263Y101224D01*
X178334Y101141D01*
X178398Y101052D01*
X178437Y101020D01*
X178469Y100982D01*
X178559Y100919D01*
X178643Y100849D01*
X178688Y100828D01*
X178729Y100799D01*
X178832Y100760D01*
X178931Y100713D01*
X178980Y100704D01*
X179026Y100686D01*
X179136Y100674D01*
X179243Y100654D01*
X179293Y100657D01*
X179342Y100651D01*
X179451Y100666D01*
X179561Y100673D01*
X179608Y100689D01*
X179657Y100696D01*
X179810Y100748D01*
X181869Y101601D01*
X183891Y101601D01*
X185758Y100827D01*
X187187Y99398D01*
X187961Y97531D01*
X187961Y95509D01*
X187187Y93642D01*
X185758Y92213D01*
X185696Y92187D01*
X185671Y92173D01*
X185643Y92163D01*
X185533Y92094D01*
X185420Y92030D01*
X185399Y92009D01*
X185374Y91993D01*
X185285Y91899D01*
X185192Y91808D01*
X185176Y91783D01*
X185156Y91762D01*
X185093Y91648D01*
X185025Y91537D01*
X185017Y91509D01*
X185002Y91483D01*
X184970Y91358D01*
X184932Y91233D01*
X184930Y91204D01*
X184923Y91175D01*
X184913Y91015D01*
X184913Y79822D01*
X182904Y77813D01*
X181267Y76176D01*
X179258Y74167D01*
X170085Y74167D01*
X169987Y74155D01*
X169888Y74152D01*
X169830Y74135D01*
X169770Y74127D01*
X169678Y74091D01*
X169583Y74063D01*
X169530Y74033D01*
X169474Y74010D01*
X169394Y73952D01*
X169309Y73902D01*
X169233Y73836D01*
X169217Y73824D01*
X169209Y73814D01*
X169188Y73796D01*
X160646Y65254D01*
X160586Y65176D01*
X160518Y65104D01*
X160489Y65051D01*
X160452Y65003D01*
X160412Y64912D01*
X160364Y64825D01*
X160349Y64767D01*
X160325Y64711D01*
X160310Y64613D01*
X160285Y64517D01*
X160279Y64417D01*
X160275Y64397D01*
X160277Y64385D01*
X160275Y64357D01*
X160275Y57262D01*
X150232Y47220D01*
X150172Y47142D01*
X150104Y47070D01*
X150075Y47017D01*
X150038Y46969D01*
X149998Y46878D01*
X149950Y46791D01*
X149935Y46733D01*
X149911Y46677D01*
X149896Y46579D01*
X149871Y46483D01*
X149865Y46383D01*
X149861Y46363D01*
X149863Y46351D01*
X149861Y46323D01*
X149861Y44709D01*
X149087Y42842D01*
X147658Y41413D01*
X145791Y40639D01*
X143769Y40639D01*
G37*
%LPD*%
%LPC*%
G36*
X47503Y44957D02*
X47503Y44957D01*
X45636Y45731D01*
X44207Y47160D01*
X43433Y49027D01*
X43433Y51049D01*
X44207Y52916D01*
X44280Y53010D01*
X44358Y53099D01*
X44377Y53135D01*
X44402Y53167D01*
X44449Y53277D01*
X44503Y53383D01*
X44512Y53422D01*
X44528Y53459D01*
X44547Y53576D01*
X44573Y53693D01*
X44572Y53733D01*
X44578Y53773D01*
X44567Y53891D01*
X44563Y54011D01*
X44552Y54050D01*
X44548Y54090D01*
X44508Y54202D01*
X44475Y54316D01*
X44454Y54351D01*
X44440Y54389D01*
X44374Y54488D01*
X44313Y54590D01*
X44273Y54635D01*
X44262Y54652D01*
X44247Y54666D01*
X44207Y54711D01*
X28031Y70887D01*
X27948Y70951D01*
X27872Y71022D01*
X27823Y71048D01*
X27779Y71082D01*
X27683Y71123D01*
X27592Y71173D01*
X27538Y71186D01*
X27488Y71208D01*
X27384Y71225D01*
X27283Y71250D01*
X27228Y71249D01*
X27174Y71258D01*
X27069Y71248D01*
X26965Y71247D01*
X26912Y71233D01*
X26857Y71228D01*
X26758Y71193D01*
X26658Y71166D01*
X26610Y71139D01*
X26558Y71121D01*
X26471Y71062D01*
X26380Y71011D01*
X26340Y70973D01*
X26294Y70942D01*
X26225Y70864D01*
X26150Y70792D01*
X26120Y70745D01*
X26084Y70704D01*
X26036Y70611D01*
X25981Y70522D01*
X25964Y70469D01*
X25939Y70420D01*
X25917Y70319D01*
X25885Y70219D01*
X25882Y70164D01*
X25870Y70110D01*
X25873Y70006D01*
X25867Y69901D01*
X25879Y69814D01*
X25879Y69792D01*
X25884Y69778D01*
X25888Y69742D01*
X26091Y68724D01*
X26091Y63738D01*
X26090Y63738D01*
X25972Y63723D01*
X25853Y63716D01*
X25815Y63703D01*
X25774Y63698D01*
X25664Y63655D01*
X25551Y63618D01*
X25516Y63596D01*
X25479Y63581D01*
X25383Y63512D01*
X25282Y63448D01*
X25254Y63418D01*
X25221Y63395D01*
X25145Y63303D01*
X25064Y63216D01*
X25044Y63181D01*
X25019Y63150D01*
X24968Y63042D01*
X24910Y62938D01*
X24900Y62898D01*
X24883Y62862D01*
X24861Y62745D01*
X24831Y62630D01*
X24827Y62570D01*
X24823Y62550D01*
X24825Y62529D01*
X24821Y62469D01*
X24821Y61759D01*
X24836Y61641D01*
X24843Y61522D01*
X24856Y61484D01*
X24861Y61443D01*
X24904Y61333D01*
X24941Y61220D01*
X24963Y61185D01*
X24978Y61148D01*
X25047Y61051D01*
X25111Y60951D01*
X25141Y60923D01*
X25164Y60890D01*
X25256Y60814D01*
X25343Y60733D01*
X25378Y60713D01*
X25409Y60688D01*
X25517Y60637D01*
X25621Y60579D01*
X25661Y60569D01*
X25697Y60552D01*
X25814Y60530D01*
X25929Y60500D01*
X25989Y60496D01*
X26009Y60492D01*
X26030Y60494D01*
X26090Y60490D01*
X26438Y60490D01*
X26549Y60398D01*
X26662Y60301D01*
X26671Y60297D01*
X26679Y60290D01*
X26814Y60227D01*
X26948Y60161D01*
X26958Y60159D01*
X26967Y60154D01*
X27113Y60127D01*
X27259Y60096D01*
X27269Y60097D01*
X27279Y60095D01*
X27428Y60104D01*
X27577Y60111D01*
X27590Y60114D01*
X27597Y60114D01*
X27611Y60119D01*
X27733Y60148D01*
X30960Y61141D01*
X35059Y59880D01*
X37741Y56533D01*
X37762Y56263D01*
X37772Y56215D01*
X37773Y56166D01*
X37804Y56060D01*
X37826Y55952D01*
X37848Y55907D01*
X37862Y55860D01*
X37918Y55765D01*
X37921Y55759D01*
X37921Y55474D01*
X37927Y55425D01*
X37925Y55376D01*
X37947Y55268D01*
X37961Y55159D01*
X37979Y55113D01*
X37989Y55064D01*
X38037Y54966D01*
X38039Y54959D01*
X37960Y53948D01*
X37961Y53928D01*
X37957Y53909D01*
X37960Y53748D01*
X38039Y52747D01*
X38034Y52734D01*
X38010Y52690D01*
X37983Y52584D01*
X37947Y52480D01*
X37943Y52430D01*
X37931Y52383D01*
X37921Y52222D01*
X37921Y51947D01*
X37915Y51934D01*
X37888Y51893D01*
X37852Y51789D01*
X37809Y51688D01*
X37801Y51639D01*
X37785Y51592D01*
X37762Y51433D01*
X37741Y51163D01*
X35059Y47816D01*
X30960Y46555D01*
X26861Y47816D01*
X25155Y49945D01*
X25134Y49966D01*
X25117Y49991D01*
X25020Y50077D01*
X24926Y50167D01*
X24901Y50181D01*
X24878Y50201D01*
X24763Y50260D01*
X24650Y50324D01*
X24622Y50332D01*
X24595Y50346D01*
X24469Y50374D01*
X24344Y50408D01*
X24314Y50409D01*
X24285Y50415D01*
X24156Y50411D01*
X24026Y50414D01*
X23997Y50407D01*
X23967Y50406D01*
X23843Y50370D01*
X23716Y50339D01*
X23690Y50326D01*
X23662Y50317D01*
X23550Y50252D01*
X23435Y50191D01*
X23413Y50171D01*
X23388Y50156D01*
X23267Y50049D01*
X23071Y49853D01*
X21706Y48941D01*
X20190Y48313D01*
X19210Y48118D01*
X19136Y48220D01*
X19129Y48230D01*
X19075Y48310D01*
X19063Y48321D01*
X19046Y48346D01*
X19043Y48348D01*
X19041Y48351D01*
X18920Y48451D01*
X18914Y48456D01*
X18839Y48523D01*
X18818Y48536D01*
X18802Y48550D01*
X18798Y48552D01*
X18796Y48554D01*
X18766Y48568D01*
X18702Y48607D01*
X18689Y48614D01*
X18609Y48643D01*
X18532Y48682D01*
X18401Y48721D01*
X18391Y48724D01*
X18387Y48725D01*
X18378Y48727D01*
X18037Y48804D01*
X17998Y48807D01*
X17960Y48819D01*
X17840Y48822D01*
X17721Y48834D01*
X17681Y48828D01*
X17642Y48829D01*
X17483Y48804D01*
X17142Y48727D01*
X17061Y48698D01*
X16977Y48678D01*
X16887Y48639D01*
X16866Y48631D01*
X16859Y48627D01*
X16852Y48625D01*
X16845Y48620D01*
X16843Y48620D01*
X16839Y48617D01*
X16830Y48613D01*
X16817Y48606D01*
X16734Y48549D01*
X16725Y48542D01*
X16597Y48461D01*
X16592Y48456D01*
X16585Y48452D01*
X16568Y48432D01*
X16556Y48424D01*
X16495Y48353D01*
X16483Y48340D01*
X16379Y48230D01*
X16375Y48223D01*
X16370Y48218D01*
X16357Y48194D01*
X16349Y48183D01*
X16316Y48117D01*
X15330Y48313D01*
X13814Y48941D01*
X12449Y49853D01*
X11289Y51013D01*
X10377Y52378D01*
X9749Y53894D01*
X9429Y55504D01*
X9429Y60490D01*
X9430Y60490D01*
X9548Y60505D01*
X9667Y60512D01*
X9705Y60524D01*
X9746Y60530D01*
X9856Y60573D01*
X9969Y60610D01*
X10004Y60632D01*
X10041Y60647D01*
X10137Y60716D01*
X10238Y60780D01*
X10266Y60810D01*
X10299Y60833D01*
X10375Y60925D01*
X10456Y61012D01*
X10476Y61047D01*
X10501Y61078D01*
X10552Y61186D01*
X10610Y61290D01*
X10620Y61330D01*
X10637Y61366D01*
X10659Y61483D01*
X10689Y61598D01*
X10693Y61658D01*
X10697Y61678D01*
X10695Y61699D01*
X10699Y61759D01*
X10699Y62469D01*
X10684Y62587D01*
X10677Y62706D01*
X10664Y62744D01*
X10659Y62785D01*
X10616Y62895D01*
X10579Y63008D01*
X10557Y63043D01*
X10542Y63080D01*
X10473Y63176D01*
X10409Y63277D01*
X10379Y63305D01*
X10356Y63338D01*
X10264Y63414D01*
X10177Y63495D01*
X10142Y63515D01*
X10111Y63540D01*
X10003Y63591D01*
X9899Y63649D01*
X9859Y63659D01*
X9823Y63676D01*
X9706Y63698D01*
X9591Y63728D01*
X9531Y63732D01*
X9511Y63736D01*
X9490Y63734D01*
X9430Y63738D01*
X9429Y63738D01*
X9429Y68724D01*
X9749Y70334D01*
X10377Y71850D01*
X11289Y73215D01*
X12449Y74375D01*
X13814Y75287D01*
X15330Y75915D01*
X16136Y76075D01*
X16136Y74713D01*
X16155Y74562D01*
X16157Y74541D01*
X16165Y74451D01*
X16169Y74439D01*
X16172Y74412D01*
X16175Y74405D01*
X16176Y74398D01*
X16231Y74257D01*
X16240Y74235D01*
X16269Y74151D01*
X16276Y74140D01*
X16285Y74115D01*
X16290Y74109D01*
X16293Y74102D01*
X16381Y73981D01*
X16395Y73961D01*
X16445Y73886D01*
X16454Y73877D01*
X16469Y73856D01*
X16475Y73851D01*
X16479Y73845D01*
X16596Y73749D01*
X16610Y73737D01*
X16681Y73673D01*
X16697Y73663D01*
X16712Y73650D01*
X16719Y73647D01*
X16724Y73642D01*
X16754Y73628D01*
X16818Y73589D01*
X16831Y73582D01*
X16911Y73553D01*
X16988Y73514D01*
X17119Y73475D01*
X17129Y73472D01*
X17133Y73471D01*
X17142Y73469D01*
X17483Y73392D01*
X17522Y73389D01*
X17560Y73377D01*
X17680Y73374D01*
X17799Y73362D01*
X17839Y73368D01*
X17878Y73367D01*
X18037Y73392D01*
X18378Y73469D01*
X18459Y73498D01*
X18543Y73518D01*
X18633Y73557D01*
X18654Y73565D01*
X18658Y73566D01*
X18661Y73568D01*
X18672Y73574D01*
X18677Y73576D01*
X18681Y73579D01*
X18690Y73583D01*
X18703Y73590D01*
X18788Y73649D01*
X18790Y73650D01*
X18923Y73735D01*
X18926Y73737D01*
X18929Y73739D01*
X18949Y73761D01*
X18964Y73772D01*
X19028Y73846D01*
X19034Y73853D01*
X19141Y73966D01*
X19143Y73969D01*
X19145Y73972D01*
X19160Y74000D01*
X19171Y74013D01*
X19214Y74098D01*
X19220Y74109D01*
X19295Y74245D01*
X19295Y74248D01*
X19297Y74252D01*
X19305Y74282D01*
X19313Y74298D01*
X19332Y74390D01*
X19335Y74403D01*
X19374Y74553D01*
X19374Y74558D01*
X19375Y74560D01*
X19375Y74567D01*
X19377Y74603D01*
X19378Y74609D01*
X19378Y74616D01*
X19384Y74713D01*
X19384Y76075D01*
X19818Y75988D01*
X19903Y75983D01*
X19986Y75967D01*
X20060Y75971D01*
X20136Y75966D01*
X20219Y75981D01*
X20303Y75986D01*
X20374Y76010D01*
X20448Y76023D01*
X20525Y76058D01*
X20605Y76084D01*
X20669Y76125D01*
X20737Y76156D01*
X20803Y76209D01*
X20874Y76255D01*
X20926Y76309D01*
X20984Y76357D01*
X21034Y76425D01*
X21092Y76486D01*
X21128Y76552D01*
X21173Y76613D01*
X21205Y76691D01*
X21246Y76765D01*
X21264Y76837D01*
X21293Y76907D01*
X21304Y76991D01*
X21325Y77073D01*
X21334Y77214D01*
X21335Y77222D01*
X21335Y77226D01*
X21335Y77233D01*
X21335Y77465D01*
X22109Y79332D01*
X23538Y80761D01*
X25405Y81535D01*
X27427Y81535D01*
X29450Y80697D01*
X29465Y80687D01*
X29516Y80669D01*
X29527Y80665D01*
X29539Y80661D01*
X29568Y80652D01*
X29668Y80608D01*
X29718Y80600D01*
X29766Y80584D01*
X29874Y80575D01*
X29982Y80558D01*
X30032Y80562D01*
X30083Y80558D01*
X30190Y80577D01*
X30298Y80587D01*
X30346Y80604D01*
X30396Y80613D01*
X30496Y80658D01*
X30598Y80694D01*
X30640Y80723D01*
X30686Y80743D01*
X30771Y80811D01*
X30861Y80873D01*
X30895Y80911D01*
X30934Y80942D01*
X31000Y81029D01*
X31072Y81111D01*
X31095Y81156D01*
X31126Y81196D01*
X31197Y81341D01*
X31353Y81718D01*
X32782Y83147D01*
X34649Y83921D01*
X36671Y83921D01*
X38538Y83147D01*
X39967Y81718D01*
X40741Y79851D01*
X40741Y78237D01*
X40753Y78139D01*
X40756Y78040D01*
X40773Y77982D01*
X40781Y77922D01*
X40817Y77830D01*
X40845Y77735D01*
X40875Y77683D01*
X40898Y77626D01*
X40956Y77546D01*
X41006Y77461D01*
X41073Y77385D01*
X41085Y77369D01*
X41094Y77361D01*
X41113Y77340D01*
X66712Y51740D01*
X66751Y51710D01*
X66785Y51673D01*
X66877Y51613D01*
X66963Y51545D01*
X67009Y51526D01*
X67051Y51498D01*
X67154Y51463D01*
X67255Y51419D01*
X67304Y51411D01*
X67351Y51395D01*
X67461Y51386D01*
X67569Y51369D01*
X67619Y51374D01*
X67668Y51370D01*
X67777Y51389D01*
X67886Y51399D01*
X67933Y51416D01*
X67982Y51424D01*
X68082Y51469D01*
X68185Y51507D01*
X68226Y51534D01*
X68272Y51555D01*
X68357Y51623D01*
X68448Y51685D01*
X68481Y51722D01*
X68520Y51753D01*
X68586Y51841D01*
X68659Y51924D01*
X68682Y51968D01*
X68711Y52008D01*
X68782Y52152D01*
X69099Y52916D01*
X70528Y54345D01*
X72395Y55119D01*
X74417Y55119D01*
X76284Y54345D01*
X77713Y52916D01*
X78487Y51049D01*
X78487Y49027D01*
X77713Y47160D01*
X76284Y45731D01*
X74417Y44957D01*
X72395Y44957D01*
X72015Y45115D01*
X72006Y45117D01*
X71998Y45122D01*
X71854Y45159D01*
X71709Y45199D01*
X71699Y45199D01*
X71690Y45201D01*
X71530Y45211D01*
X65337Y45211D01*
X37160Y73388D01*
X37082Y73448D01*
X37010Y73516D01*
X36957Y73545D01*
X36909Y73583D01*
X36818Y73622D01*
X36731Y73670D01*
X36673Y73685D01*
X36617Y73709D01*
X36519Y73724D01*
X36423Y73749D01*
X36323Y73755D01*
X36303Y73759D01*
X36291Y73758D01*
X36263Y73759D01*
X36127Y73759D01*
X35990Y73742D01*
X35851Y73729D01*
X35832Y73722D01*
X35812Y73719D01*
X35683Y73668D01*
X35552Y73621D01*
X35535Y73610D01*
X35516Y73602D01*
X35404Y73521D01*
X35288Y73443D01*
X35275Y73427D01*
X35259Y73416D01*
X35170Y73309D01*
X35078Y73204D01*
X35069Y73186D01*
X35056Y73171D01*
X34997Y73045D01*
X34933Y72921D01*
X34929Y72901D01*
X34920Y72883D01*
X34894Y72747D01*
X34864Y72611D01*
X34864Y72590D01*
X34861Y72571D01*
X34869Y72432D01*
X34873Y72293D01*
X34879Y72273D01*
X34880Y72253D01*
X34923Y72121D01*
X34962Y71987D01*
X34972Y71970D01*
X34978Y71951D01*
X35053Y71833D01*
X35123Y71713D01*
X35142Y71692D01*
X35148Y71682D01*
X35163Y71668D01*
X35230Y71593D01*
X49300Y57522D01*
X51309Y55514D01*
X51309Y54954D01*
X51321Y54856D01*
X51324Y54757D01*
X51341Y54699D01*
X51349Y54639D01*
X51385Y54547D01*
X51413Y54452D01*
X51443Y54399D01*
X51466Y54343D01*
X51524Y54263D01*
X51574Y54178D01*
X51641Y54102D01*
X51652Y54086D01*
X51662Y54078D01*
X51680Y54057D01*
X52821Y52916D01*
X53595Y51049D01*
X53595Y49027D01*
X52821Y47160D01*
X51392Y45731D01*
X49525Y44957D01*
X47503Y44957D01*
G37*
%LPD*%
%LPC*%
G36*
X211587Y239387D02*
X211587Y239387D01*
X209720Y240161D01*
X208291Y241590D01*
X207517Y243457D01*
X207517Y245071D01*
X207505Y245169D01*
X207502Y245268D01*
X207485Y245326D01*
X207477Y245386D01*
X207441Y245478D01*
X207413Y245573D01*
X207383Y245626D01*
X207360Y245682D01*
X207302Y245762D01*
X207252Y245847D01*
X207186Y245923D01*
X207174Y245939D01*
X207164Y245947D01*
X207146Y245968D01*
X204334Y248780D01*
X204256Y248840D01*
X204184Y248908D01*
X204131Y248937D01*
X204083Y248975D01*
X203992Y249014D01*
X203905Y249062D01*
X203847Y249077D01*
X203791Y249101D01*
X203693Y249117D01*
X203597Y249141D01*
X203497Y249148D01*
X203477Y249151D01*
X203464Y249150D01*
X203436Y249151D01*
X168028Y249151D01*
X164060Y253120D01*
X163982Y253180D01*
X163910Y253248D01*
X163857Y253277D01*
X163809Y253314D01*
X163718Y253354D01*
X163631Y253402D01*
X163573Y253417D01*
X163517Y253441D01*
X163419Y253456D01*
X163323Y253481D01*
X163223Y253487D01*
X163203Y253491D01*
X163191Y253489D01*
X163163Y253491D01*
X161549Y253491D01*
X159682Y254265D01*
X158253Y255694D01*
X157479Y257561D01*
X157479Y259583D01*
X158253Y261450D01*
X159394Y262591D01*
X159454Y262669D01*
X159522Y262741D01*
X159551Y262794D01*
X159588Y262842D01*
X159628Y262933D01*
X159676Y263020D01*
X159691Y263078D01*
X159715Y263134D01*
X159730Y263232D01*
X159755Y263328D01*
X159761Y263428D01*
X159765Y263448D01*
X159763Y263460D01*
X159765Y263488D01*
X159765Y269046D01*
X159753Y269144D01*
X159750Y269243D01*
X159733Y269301D01*
X159725Y269361D01*
X159689Y269453D01*
X159661Y269548D01*
X159631Y269601D01*
X159608Y269657D01*
X159550Y269737D01*
X159500Y269822D01*
X159434Y269898D01*
X159422Y269914D01*
X159412Y269922D01*
X159394Y269943D01*
X159090Y270247D01*
X159011Y270308D01*
X158939Y270376D01*
X158886Y270405D01*
X158838Y270442D01*
X158747Y270481D01*
X158661Y270529D01*
X158602Y270544D01*
X158547Y270568D01*
X158449Y270584D01*
X158353Y270609D01*
X158253Y270615D01*
X158232Y270618D01*
X158220Y270617D01*
X158192Y270619D01*
X156579Y270619D01*
X154712Y271392D01*
X153282Y272822D01*
X152509Y274689D01*
X152509Y276710D01*
X153282Y278577D01*
X154712Y280007D01*
X156579Y280780D01*
X158600Y280780D01*
X160467Y280007D01*
X161608Y278866D01*
X161686Y278805D01*
X161759Y278737D01*
X161812Y278708D01*
X161860Y278671D01*
X161950Y278632D01*
X162037Y278584D01*
X162096Y278569D01*
X162151Y278545D01*
X162249Y278529D01*
X162345Y278504D01*
X162445Y278498D01*
X162465Y278495D01*
X162478Y278496D01*
X162506Y278494D01*
X164846Y278494D01*
X164964Y278509D01*
X165083Y278517D01*
X165121Y278529D01*
X165162Y278534D01*
X165272Y278578D01*
X165385Y278615D01*
X165420Y278636D01*
X165457Y278651D01*
X165553Y278721D01*
X165654Y278785D01*
X165682Y278814D01*
X165715Y278838D01*
X165791Y278930D01*
X165872Y279016D01*
X165892Y279052D01*
X165917Y279083D01*
X165968Y279191D01*
X166026Y279295D01*
X166036Y279334D01*
X166053Y279371D01*
X166075Y279487D01*
X166105Y279603D01*
X166109Y279663D01*
X166113Y279683D01*
X166111Y279703D01*
X166115Y279763D01*
X166115Y281088D01*
X166103Y281186D01*
X166100Y281285D01*
X166083Y281343D01*
X166075Y281403D01*
X166039Y281495D01*
X166011Y281590D01*
X165981Y281643D01*
X165958Y281699D01*
X165900Y281779D01*
X165850Y281864D01*
X165784Y281940D01*
X165772Y281956D01*
X165762Y281964D01*
X165744Y281985D01*
X164603Y283126D01*
X163829Y284993D01*
X163829Y287015D01*
X164603Y288882D01*
X166032Y290311D01*
X167899Y291085D01*
X169921Y291085D01*
X171788Y290311D01*
X173217Y288882D01*
X173991Y287015D01*
X173991Y284993D01*
X173217Y283126D01*
X172076Y281985D01*
X172016Y281907D01*
X171948Y281835D01*
X171919Y281782D01*
X171882Y281734D01*
X171842Y281643D01*
X171794Y281556D01*
X171779Y281498D01*
X171755Y281442D01*
X171740Y281344D01*
X171715Y281248D01*
X171709Y281148D01*
X171705Y281128D01*
X171707Y281116D01*
X171705Y281088D01*
X171705Y277527D01*
X171717Y277429D01*
X171720Y277330D01*
X171737Y277272D01*
X171745Y277212D01*
X171781Y277120D01*
X171809Y277025D01*
X171839Y276972D01*
X171862Y276916D01*
X171920Y276836D01*
X171970Y276751D01*
X172036Y276675D01*
X172048Y276659D01*
X172058Y276651D01*
X172076Y276630D01*
X172540Y276166D01*
X172618Y276106D01*
X172690Y276038D01*
X172743Y276009D01*
X172791Y275972D01*
X172882Y275932D01*
X172969Y275884D01*
X173027Y275869D01*
X173083Y275845D01*
X173181Y275830D01*
X173277Y275805D01*
X173377Y275799D01*
X173397Y275795D01*
X173409Y275797D01*
X173437Y275795D01*
X190246Y275795D01*
X190364Y275810D01*
X190483Y275817D01*
X190521Y275830D01*
X190562Y275835D01*
X190672Y275878D01*
X190785Y275915D01*
X190820Y275937D01*
X190857Y275952D01*
X190953Y276021D01*
X191054Y276085D01*
X191082Y276115D01*
X191115Y276138D01*
X191191Y276230D01*
X191272Y276317D01*
X191292Y276352D01*
X191317Y276383D01*
X191368Y276491D01*
X191426Y276595D01*
X191436Y276635D01*
X191453Y276671D01*
X191475Y276788D01*
X191505Y276903D01*
X191509Y276963D01*
X191513Y276983D01*
X191511Y277004D01*
X191515Y277064D01*
X191515Y291756D01*
X191503Y291854D01*
X191500Y291953D01*
X191483Y292011D01*
X191475Y292071D01*
X191439Y292163D01*
X191411Y292259D01*
X191381Y292311D01*
X191358Y292367D01*
X191300Y292447D01*
X191250Y292532D01*
X191184Y292608D01*
X191172Y292624D01*
X191162Y292632D01*
X191144Y292653D01*
X190003Y293794D01*
X189229Y295661D01*
X189229Y297683D01*
X190003Y299550D01*
X191432Y300979D01*
X193299Y301753D01*
X195321Y301753D01*
X197188Y300979D01*
X198617Y299550D01*
X199391Y297683D01*
X199391Y295661D01*
X198617Y293794D01*
X197476Y292653D01*
X197416Y292575D01*
X197348Y292503D01*
X197319Y292450D01*
X197282Y292402D01*
X197242Y292311D01*
X197194Y292224D01*
X197179Y292166D01*
X197155Y292110D01*
X197140Y292012D01*
X197115Y291916D01*
X197109Y291816D01*
X197105Y291796D01*
X197107Y291784D01*
X197105Y291756D01*
X197105Y277064D01*
X197120Y276946D01*
X197127Y276827D01*
X197140Y276789D01*
X197145Y276748D01*
X197188Y276638D01*
X197225Y276525D01*
X197247Y276490D01*
X197262Y276453D01*
X197331Y276357D01*
X197395Y276256D01*
X197425Y276228D01*
X197448Y276195D01*
X197540Y276119D01*
X197627Y276038D01*
X197662Y276018D01*
X197693Y275993D01*
X197801Y275942D01*
X197905Y275884D01*
X197945Y275874D01*
X197981Y275857D01*
X198098Y275835D01*
X198213Y275805D01*
X198273Y275801D01*
X198293Y275797D01*
X198314Y275799D01*
X198374Y275795D01*
X217696Y275795D01*
X217794Y275807D01*
X217893Y275810D01*
X217951Y275827D01*
X218011Y275835D01*
X218103Y275871D01*
X218199Y275899D01*
X218251Y275929D01*
X218307Y275952D01*
X218387Y276010D01*
X218473Y276060D01*
X218548Y276126D01*
X218564Y276138D01*
X218572Y276148D01*
X218593Y276166D01*
X219734Y277307D01*
X221601Y278081D01*
X223623Y278081D01*
X225490Y277307D01*
X226919Y275878D01*
X227693Y274011D01*
X227693Y271989D01*
X226919Y270122D01*
X225490Y268693D01*
X223623Y267919D01*
X221601Y267919D01*
X219734Y268693D01*
X218593Y269834D01*
X218515Y269894D01*
X218443Y269962D01*
X218390Y269991D01*
X218342Y270028D01*
X218251Y270068D01*
X218165Y270116D01*
X218106Y270131D01*
X218050Y270155D01*
X217952Y270170D01*
X217857Y270195D01*
X217757Y270201D01*
X217736Y270205D01*
X217724Y270203D01*
X217696Y270205D01*
X170596Y270205D01*
X168378Y272424D01*
X168300Y272484D01*
X168228Y272552D01*
X168175Y272581D01*
X168127Y272618D01*
X168036Y272658D01*
X167949Y272706D01*
X167891Y272721D01*
X167835Y272745D01*
X167737Y272760D01*
X167641Y272785D01*
X167541Y272791D01*
X167521Y272795D01*
X167509Y272793D01*
X167481Y272795D01*
X166624Y272795D01*
X166506Y272780D01*
X166387Y272773D01*
X166349Y272760D01*
X166308Y272755D01*
X166198Y272712D01*
X166085Y272675D01*
X166050Y272653D01*
X166013Y272638D01*
X165917Y272569D01*
X165816Y272505D01*
X165788Y272475D01*
X165755Y272452D01*
X165679Y272360D01*
X165598Y272273D01*
X165578Y272238D01*
X165553Y272207D01*
X165502Y272099D01*
X165444Y271995D01*
X165434Y271955D01*
X165417Y271919D01*
X165395Y271802D01*
X165365Y271687D01*
X165361Y271627D01*
X165357Y271607D01*
X165359Y271586D01*
X165355Y271526D01*
X165355Y263488D01*
X165367Y263390D01*
X165370Y263291D01*
X165387Y263233D01*
X165395Y263173D01*
X165431Y263081D01*
X165459Y262986D01*
X165489Y262933D01*
X165512Y262877D01*
X165570Y262797D01*
X165620Y262712D01*
X165686Y262636D01*
X165698Y262620D01*
X165708Y262612D01*
X165726Y262591D01*
X166867Y261450D01*
X167641Y259583D01*
X167641Y257969D01*
X167653Y257871D01*
X167656Y257772D01*
X167673Y257714D01*
X167681Y257654D01*
X167717Y257562D01*
X167745Y257467D01*
X167775Y257414D01*
X167798Y257358D01*
X167856Y257278D01*
X167906Y257193D01*
X167972Y257117D01*
X167984Y257101D01*
X167994Y257093D01*
X168012Y257072D01*
X169972Y255113D01*
X170050Y255052D01*
X170122Y254984D01*
X170175Y254955D01*
X170223Y254918D01*
X170314Y254878D01*
X170401Y254831D01*
X170459Y254815D01*
X170515Y254791D01*
X170613Y254776D01*
X170708Y254751D01*
X170809Y254745D01*
X170829Y254742D01*
X170841Y254743D01*
X170869Y254741D01*
X206277Y254741D01*
X211098Y249920D01*
X211176Y249860D01*
X211248Y249792D01*
X211301Y249763D01*
X211349Y249726D01*
X211440Y249686D01*
X211527Y249638D01*
X211585Y249623D01*
X211641Y249599D01*
X211739Y249584D01*
X211835Y249559D01*
X211935Y249553D01*
X211955Y249549D01*
X211967Y249551D01*
X211995Y249549D01*
X213609Y249549D01*
X215476Y248775D01*
X216905Y247346D01*
X217679Y245479D01*
X217679Y243457D01*
X216905Y241590D01*
X215476Y240161D01*
X213609Y239387D01*
X211587Y239387D01*
G37*
%LPD*%
%LPC*%
G36*
X18037Y9054D02*
X18037Y9054D01*
X17998Y9057D01*
X17960Y9069D01*
X17840Y9072D01*
X17721Y9084D01*
X17681Y9078D01*
X17642Y9079D01*
X17483Y9054D01*
X17454Y9047D01*
X17404Y9063D01*
X17369Y9069D01*
X17335Y9083D01*
X17212Y9098D01*
X17091Y9120D01*
X17055Y9117D01*
X17019Y9121D01*
X16859Y9110D01*
X16813Y9104D01*
X16765Y9124D01*
X16731Y9133D01*
X16699Y9149D01*
X16578Y9175D01*
X16458Y9208D01*
X16422Y9208D01*
X16388Y9215D01*
X16227Y9219D01*
X16170Y9216D01*
X16139Y9232D01*
X16103Y9246D01*
X16070Y9266D01*
X15954Y9301D01*
X15841Y9343D01*
X15803Y9347D01*
X15766Y9358D01*
X15606Y9375D01*
X15559Y9377D01*
X15518Y9403D01*
X15483Y9420D01*
X15452Y9442D01*
X15340Y9488D01*
X15231Y9540D01*
X15193Y9547D01*
X15158Y9561D01*
X15000Y9593D01*
X14971Y9596D01*
X14927Y9630D01*
X14897Y9647D01*
X14871Y9670D01*
X14760Y9727D01*
X14652Y9790D01*
X14619Y9799D01*
X14588Y9815D01*
X14433Y9860D01*
X14376Y9873D01*
X14354Y9894D01*
X14322Y9916D01*
X14295Y9944D01*
X14192Y10008D01*
X14094Y10078D01*
X14058Y10092D01*
X14025Y10112D01*
X13875Y10170D01*
X13828Y10185D01*
X13821Y10191D01*
X13773Y10244D01*
X13645Y10341D01*
X13483Y10450D01*
X13442Y10470D01*
X13406Y10498D01*
X13271Y10564D01*
X13236Y10603D01*
X13200Y10630D01*
X13188Y10643D01*
X13169Y10654D01*
X13108Y10701D01*
X12316Y11230D01*
X11126Y12420D01*
X10191Y13818D01*
X9548Y15373D01*
X9219Y17023D01*
X9219Y22240D01*
X9430Y22240D01*
X9548Y22255D01*
X9667Y22262D01*
X9705Y22274D01*
X9746Y22280D01*
X9856Y22323D01*
X9969Y22360D01*
X10004Y22382D01*
X10041Y22397D01*
X10137Y22466D01*
X10238Y22530D01*
X10266Y22560D01*
X10299Y22583D01*
X10375Y22675D01*
X10456Y22762D01*
X10476Y22797D01*
X10501Y22828D01*
X10552Y22936D01*
X10610Y23040D01*
X10620Y23080D01*
X10637Y23116D01*
X10659Y23233D01*
X10689Y23348D01*
X10693Y23408D01*
X10697Y23428D01*
X10695Y23449D01*
X10699Y23509D01*
X10699Y24219D01*
X10684Y24337D01*
X10677Y24456D01*
X10664Y24494D01*
X10659Y24535D01*
X10616Y24645D01*
X10579Y24758D01*
X10557Y24793D01*
X10542Y24830D01*
X10473Y24926D01*
X10409Y25027D01*
X10379Y25055D01*
X10356Y25088D01*
X10264Y25164D01*
X10177Y25245D01*
X10142Y25265D01*
X10111Y25290D01*
X10003Y25341D01*
X9899Y25399D01*
X9859Y25409D01*
X9823Y25426D01*
X9706Y25448D01*
X9591Y25478D01*
X9531Y25482D01*
X9511Y25486D01*
X9490Y25484D01*
X9430Y25488D01*
X9219Y25488D01*
X9219Y30705D01*
X9548Y32355D01*
X10191Y33910D01*
X11126Y35308D01*
X12316Y36498D01*
X13714Y37433D01*
X15269Y38076D01*
X16136Y38249D01*
X16136Y37963D01*
X16155Y37812D01*
X16157Y37791D01*
X16165Y37701D01*
X16169Y37689D01*
X16172Y37662D01*
X16175Y37655D01*
X16176Y37648D01*
X16231Y37507D01*
X16240Y37485D01*
X16269Y37401D01*
X16276Y37390D01*
X16285Y37365D01*
X16290Y37359D01*
X16293Y37352D01*
X16381Y37231D01*
X16395Y37211D01*
X16445Y37136D01*
X16454Y37127D01*
X16469Y37106D01*
X16475Y37101D01*
X16479Y37095D01*
X16596Y36999D01*
X16609Y36987D01*
X16681Y36923D01*
X16697Y36913D01*
X16712Y36900D01*
X16719Y36897D01*
X16724Y36892D01*
X16754Y36878D01*
X16818Y36839D01*
X16831Y36832D01*
X16911Y36803D01*
X16988Y36764D01*
X17119Y36725D01*
X17129Y36722D01*
X17133Y36721D01*
X17142Y36719D01*
X17483Y36642D01*
X17522Y36639D01*
X17560Y36627D01*
X17680Y36624D01*
X17799Y36612D01*
X17839Y36618D01*
X17878Y36617D01*
X18037Y36642D01*
X18378Y36719D01*
X18459Y36748D01*
X18543Y36768D01*
X18633Y36807D01*
X18654Y36815D01*
X18658Y36816D01*
X18661Y36818D01*
X18672Y36824D01*
X18677Y36826D01*
X18681Y36829D01*
X18690Y36833D01*
X18703Y36840D01*
X18788Y36899D01*
X18790Y36900D01*
X18923Y36985D01*
X18926Y36987D01*
X18929Y36989D01*
X18949Y37011D01*
X18964Y37022D01*
X19028Y37096D01*
X19034Y37103D01*
X19141Y37216D01*
X19143Y37219D01*
X19145Y37222D01*
X19160Y37250D01*
X19171Y37263D01*
X19214Y37348D01*
X19220Y37359D01*
X19295Y37495D01*
X19295Y37498D01*
X19297Y37502D01*
X19305Y37532D01*
X19313Y37548D01*
X19332Y37640D01*
X19335Y37653D01*
X19374Y37803D01*
X19374Y37808D01*
X19375Y37810D01*
X19375Y37817D01*
X19377Y37853D01*
X19378Y37859D01*
X19378Y37866D01*
X19384Y37963D01*
X19384Y38249D01*
X20251Y38076D01*
X21806Y37433D01*
X23204Y36498D01*
X24394Y35308D01*
X25329Y33910D01*
X25972Y32355D01*
X26301Y30705D01*
X26301Y25488D01*
X26090Y25488D01*
X25972Y25473D01*
X25853Y25466D01*
X25815Y25453D01*
X25774Y25448D01*
X25664Y25405D01*
X25551Y25368D01*
X25516Y25346D01*
X25479Y25331D01*
X25383Y25262D01*
X25282Y25198D01*
X25254Y25168D01*
X25221Y25145D01*
X25145Y25053D01*
X25064Y24966D01*
X25044Y24931D01*
X25019Y24900D01*
X24968Y24792D01*
X24910Y24688D01*
X24900Y24648D01*
X24883Y24612D01*
X24861Y24495D01*
X24831Y24380D01*
X24827Y24320D01*
X24823Y24300D01*
X24825Y24279D01*
X24821Y24219D01*
X24821Y23509D01*
X24836Y23391D01*
X24843Y23272D01*
X24856Y23234D01*
X24861Y23193D01*
X24904Y23083D01*
X24941Y22970D01*
X24963Y22935D01*
X24978Y22898D01*
X25047Y22801D01*
X25111Y22701D01*
X25141Y22673D01*
X25164Y22640D01*
X25256Y22564D01*
X25343Y22483D01*
X25378Y22463D01*
X25409Y22438D01*
X25517Y22387D01*
X25621Y22329D01*
X25661Y22319D01*
X25697Y22302D01*
X25814Y22280D01*
X25929Y22250D01*
X25989Y22246D01*
X26009Y22242D01*
X26030Y22244D01*
X26090Y22240D01*
X26301Y22240D01*
X26301Y17023D01*
X25972Y15373D01*
X25329Y13818D01*
X24394Y12420D01*
X23204Y11230D01*
X22412Y10701D01*
X22316Y10617D01*
X22241Y10558D01*
X22219Y10546D01*
X22177Y10531D01*
X22037Y10450D01*
X21875Y10342D01*
X21821Y10295D01*
X21761Y10256D01*
X21684Y10182D01*
X21645Y10170D01*
X21610Y10154D01*
X21572Y10145D01*
X21466Y10088D01*
X21356Y10038D01*
X21326Y10013D01*
X21292Y9995D01*
X21166Y9894D01*
X21144Y9873D01*
X21087Y9860D01*
X21054Y9849D01*
X21020Y9843D01*
X20905Y9795D01*
X20787Y9753D01*
X20759Y9733D01*
X20727Y9720D01*
X20593Y9630D01*
X20549Y9596D01*
X20520Y9593D01*
X20483Y9583D01*
X20445Y9580D01*
X20330Y9543D01*
X20213Y9512D01*
X20179Y9493D01*
X20143Y9481D01*
X20002Y9403D01*
X19961Y9377D01*
X19914Y9375D01*
X19876Y9369D01*
X19838Y9370D01*
X19720Y9342D01*
X19601Y9322D01*
X19566Y9306D01*
X19528Y9298D01*
X19381Y9232D01*
X19350Y9216D01*
X19293Y9219D01*
X19258Y9216D01*
X19223Y9220D01*
X19100Y9203D01*
X18976Y9192D01*
X18943Y9181D01*
X18908Y9176D01*
X18755Y9124D01*
X18707Y9104D01*
X18662Y9110D01*
X18626Y9111D01*
X18590Y9118D01*
X18467Y9111D01*
X18344Y9112D01*
X18308Y9103D01*
X18273Y9101D01*
X18116Y9063D01*
X18066Y9047D01*
X18037Y9054D01*
G37*
%LPD*%
G36*
X139250Y103640D02*
X139250Y103640D01*
X139389Y103644D01*
X139409Y103650D01*
X139429Y103651D01*
X139561Y103694D01*
X139695Y103733D01*
X139712Y103743D01*
X139731Y103749D01*
X139849Y103824D01*
X139969Y103894D01*
X139990Y103913D01*
X140000Y103919D01*
X140014Y103934D01*
X140089Y104001D01*
X141614Y105525D01*
X141674Y105603D01*
X141742Y105675D01*
X141771Y105728D01*
X141808Y105776D01*
X141848Y105867D01*
X141896Y105954D01*
X141911Y106012D01*
X141935Y106068D01*
X141950Y106166D01*
X141975Y106261D01*
X141981Y106362D01*
X141985Y106382D01*
X141983Y106394D01*
X141985Y106422D01*
X141985Y115994D01*
X141973Y116092D01*
X141970Y116191D01*
X141953Y116249D01*
X141945Y116309D01*
X141909Y116401D01*
X141881Y116496D01*
X141851Y116549D01*
X141828Y116605D01*
X141770Y116685D01*
X141720Y116770D01*
X141654Y116846D01*
X141642Y116862D01*
X141632Y116870D01*
X141614Y116891D01*
X141108Y117396D01*
X141014Y117469D01*
X140925Y117548D01*
X140889Y117566D01*
X140857Y117591D01*
X140748Y117639D01*
X140642Y117693D01*
X140603Y117701D01*
X140565Y117718D01*
X140448Y117736D01*
X140332Y117762D01*
X140291Y117761D01*
X140251Y117767D01*
X140133Y117756D01*
X140014Y117753D01*
X139975Y117741D01*
X139935Y117738D01*
X139823Y117697D01*
X139708Y117664D01*
X139673Y117644D01*
X139635Y117630D01*
X139537Y117563D01*
X139434Y117503D01*
X139389Y117463D01*
X139372Y117451D01*
X139359Y117436D01*
X139313Y117396D01*
X138514Y116597D01*
X136647Y115823D01*
X134625Y115823D01*
X132758Y116597D01*
X131961Y117393D01*
X131867Y117466D01*
X131778Y117545D01*
X131742Y117563D01*
X131710Y117588D01*
X131601Y117636D01*
X131495Y117690D01*
X131456Y117698D01*
X131418Y117715D01*
X131301Y117733D01*
X131185Y117759D01*
X131144Y117758D01*
X131104Y117764D01*
X130986Y117753D01*
X130867Y117750D01*
X130828Y117738D01*
X130788Y117735D01*
X130676Y117694D01*
X130561Y117661D01*
X130526Y117641D01*
X130488Y117627D01*
X130390Y117560D01*
X130287Y117500D01*
X130242Y117460D01*
X130225Y117448D01*
X130212Y117433D01*
X130166Y117393D01*
X129370Y116597D01*
X127567Y115850D01*
X127523Y115825D01*
X127477Y115808D01*
X127386Y115747D01*
X127290Y115692D01*
X127255Y115658D01*
X127213Y115630D01*
X127141Y115547D01*
X127062Y115471D01*
X127036Y115429D01*
X127003Y115391D01*
X126953Y115293D01*
X126896Y115200D01*
X126881Y115152D01*
X126858Y115108D01*
X126834Y115001D01*
X126802Y114896D01*
X126800Y114846D01*
X126789Y114798D01*
X126792Y114688D01*
X126787Y114578D01*
X126797Y114530D01*
X126798Y114480D01*
X126829Y114374D01*
X126851Y114267D01*
X126873Y114222D01*
X126887Y114174D01*
X126943Y114080D01*
X126991Y113981D01*
X127023Y113943D01*
X127048Y113900D01*
X127155Y113780D01*
X131342Y109592D01*
X131420Y109532D01*
X131492Y109464D01*
X131545Y109435D01*
X131593Y109398D01*
X131684Y109358D01*
X131771Y109310D01*
X131829Y109295D01*
X131885Y109271D01*
X131983Y109256D01*
X132079Y109231D01*
X132179Y109225D01*
X132199Y109221D01*
X132211Y109223D01*
X132239Y109221D01*
X133853Y109221D01*
X135720Y108447D01*
X137149Y107018D01*
X137923Y105151D01*
X137923Y104898D01*
X137940Y104760D01*
X137953Y104622D01*
X137960Y104603D01*
X137963Y104583D01*
X138014Y104453D01*
X138061Y104322D01*
X138072Y104306D01*
X138080Y104287D01*
X138161Y104174D01*
X138239Y104059D01*
X138255Y104046D01*
X138266Y104030D01*
X138374Y103941D01*
X138478Y103849D01*
X138496Y103840D01*
X138511Y103827D01*
X138637Y103767D01*
X138761Y103704D01*
X138781Y103700D01*
X138799Y103691D01*
X138936Y103665D01*
X139071Y103635D01*
X139092Y103635D01*
X139111Y103631D01*
X139250Y103640D01*
G37*
%LPC*%
G36*
X259079Y195579D02*
X259079Y195579D01*
X259079Y201600D01*
X259133Y201589D01*
X260751Y200919D01*
X262208Y199946D01*
X263446Y198708D01*
X264419Y197251D01*
X265089Y195633D01*
X265100Y195579D01*
X259079Y195579D01*
G37*
%LPD*%
%LPC*%
G36*
X247980Y195579D02*
X247980Y195579D01*
X247991Y195633D01*
X248661Y197251D01*
X249634Y198708D01*
X250872Y199946D01*
X252329Y200919D01*
X253947Y201589D01*
X254001Y201600D01*
X254001Y195579D01*
X247980Y195579D01*
G37*
%LPD*%
%LPC*%
G36*
X259079Y190501D02*
X259079Y190501D01*
X265100Y190501D01*
X265089Y190447D01*
X264419Y188829D01*
X263446Y187372D01*
X262208Y186134D01*
X260751Y185161D01*
X259133Y184491D01*
X259079Y184480D01*
X259079Y190501D01*
G37*
%LPD*%
%LPC*%
G36*
X253947Y184491D02*
X253947Y184491D01*
X252329Y185161D01*
X250872Y186134D01*
X249634Y187372D01*
X248661Y188829D01*
X247991Y190447D01*
X247980Y190501D01*
X254001Y190501D01*
X254001Y184480D01*
X253947Y184491D01*
G37*
%LPD*%
%LPC*%
G36*
X256539Y193039D02*
X256539Y193039D01*
X256539Y193041D01*
X256541Y193041D01*
X256541Y193039D01*
X256539Y193039D01*
G37*
%LPD*%
D10*
X256540Y116840D03*
X256540Y142240D03*
X256540Y167640D03*
D11*
X17760Y67904D02*
X17760Y56324D01*
X104160Y56324D02*
X104160Y67904D01*
D12*
X17760Y29864D02*
X17760Y17864D01*
X104160Y17864D02*
X104160Y29864D01*
D10*
X256540Y91440D03*
X256540Y193040D03*
D13*
X144780Y66040D03*
D14*
X175260Y106680D02*
X177800Y109220D01*
X144780Y68580D02*
X144780Y66040D01*
X144780Y68580D02*
X175260Y99060D01*
X175260Y106680D01*
D13*
X177800Y109220D03*
X154940Y162560D03*
X213250Y107128D03*
X260096Y311658D03*
X265430Y180213D03*
X244856Y195580D03*
X65786Y282194D03*
X12954Y246634D03*
X8890Y43180D03*
X8890Y7620D03*
X60960Y7620D03*
X160020Y7620D03*
X194056Y21082D03*
X251460Y257810D03*
X234950Y227330D03*
X248920Y228600D03*
X192405Y265430D03*
X77470Y231140D03*
X62738Y263652D03*
X226060Y59690D03*
X26924Y204978D03*
X229870Y310388D03*
X30353Y282448D03*
X102108Y287274D03*
X124206Y277368D03*
X45466Y80518D03*
X7874Y78486D03*
X33274Y263398D03*
X159512Y301244D03*
X224172Y129226D03*
X138066Y111700D03*
X53594Y165608D03*
X65532Y140970D03*
X160528Y249428D03*
X159766Y224536D03*
X23114Y186690D03*
X133240Y89856D03*
X119651Y76394D03*
X94996Y99314D03*
X49784Y137668D03*
X142240Y24384D03*
X186326Y112462D03*
X26924Y228854D03*
X144780Y55880D03*
X175260Y83820D03*
D14*
X151638Y67818D02*
X151638Y63199D01*
X144780Y56341D02*
X144780Y55880D01*
X144780Y56341D02*
X151638Y63199D01*
X167640Y83820D02*
X175260Y83820D01*
X167640Y83820D02*
X151638Y67818D01*
D13*
X166878Y203454D03*
X114551Y169167D03*
X132842Y104140D03*
D14*
X118872Y164846D02*
X114551Y169167D01*
D13*
X201676Y150368D03*
D14*
X192278Y150368D01*
X172346Y170300D01*
X172346Y197986D02*
X166878Y203454D01*
X172346Y197986D02*
X172346Y170300D01*
D13*
X121412Y192786D03*
D14*
X165862Y202438D02*
X166878Y203454D01*
X165862Y202438D02*
X133096Y202438D01*
D13*
X25908Y109474D03*
D14*
X118872Y118110D02*
X132842Y104140D01*
X118872Y118110D02*
X118872Y164846D01*
X114551Y169167D02*
X123698Y178314D01*
X114551Y169167D02*
X114548Y169164D01*
X123698Y178314D02*
X123698Y193040D01*
D13*
X247142Y104902D03*
D14*
X247142Y100838D01*
X256540Y91440D01*
X121666Y192786D02*
X121412Y192786D01*
X121666Y192786D02*
X123444Y192786D01*
X122174Y191516D02*
X120396Y191516D01*
X122174Y191516D02*
X123698Y193040D01*
X123444Y192786D02*
X133096Y202438D01*
X121666Y192786D02*
X120396Y191516D01*
X23114Y135636D02*
X23114Y112268D01*
X25908Y109474D01*
X97028Y169164D02*
X114548Y169164D01*
X35560Y148082D02*
X24892Y137414D01*
X35560Y148082D02*
X76295Y148082D01*
X97028Y168815D02*
X97028Y169164D01*
X97028Y168815D02*
X76295Y148082D01*
D13*
X24892Y137414D03*
D14*
X23114Y135636D01*
X253746Y167640D02*
X256540Y167640D01*
X253746Y167640D02*
X224028Y197358D01*
D13*
X195580Y192024D03*
D14*
X210312Y192024D02*
X215646Y197358D01*
X224028Y197358D01*
X210312Y192024D02*
X195580Y192024D01*
D13*
X62230Y104394D03*
X90424Y108458D03*
D14*
X66294Y108458D02*
X62230Y104394D01*
X66294Y108458D02*
X90424Y108458D01*
X104624Y120392D02*
X104753Y151787D01*
D13*
X104902Y157988D03*
D14*
X104753Y157839D02*
X104753Y151787D01*
X104753Y157839D02*
X104902Y157988D01*
D13*
X60960Y114808D03*
D14*
X99040Y114808D01*
X104624Y120392D01*
D13*
X144780Y45720D03*
X182880Y96520D03*
D14*
X157480Y58420D02*
X144780Y45720D01*
X157480Y58420D02*
X157480Y66040D01*
X178101Y76962D02*
X182118Y80979D01*
X168402Y76962D02*
X157480Y66040D01*
X168402Y76962D02*
X178101Y76962D01*
X182118Y95758D02*
X182880Y96520D01*
X182118Y95758D02*
X182118Y80979D01*
D13*
X113789Y178816D03*
X20574Y165608D03*
D14*
X108455Y173482D02*
X113789Y178816D01*
X76643Y154178D02*
X32004Y154178D01*
X92964Y170499D02*
X92964Y170847D01*
X95599Y173482D01*
X108455Y173482D01*
X32004Y154178D02*
X20574Y165608D01*
X76643Y154178D02*
X92964Y170499D01*
D13*
X144780Y120910D03*
D14*
X131064Y96520D02*
X113284Y114300D01*
X131064Y96520D02*
X136561Y96520D01*
D13*
X57912Y130048D03*
D14*
X84218Y150258D02*
X98806Y164846D01*
X144780Y104739D02*
X136561Y96520D01*
X144780Y104739D02*
X144780Y120910D01*
X113284Y159766D02*
X108204Y164846D01*
X98806Y164846D01*
X113284Y159766D02*
X113284Y114300D01*
X84218Y149970D02*
X84218Y150258D01*
X84218Y149970D02*
X64296Y130048D01*
X57912Y130048D01*
D13*
X22352Y101346D03*
X12192Y201168D03*
D14*
X9398Y198374D01*
X19050Y104648D02*
X22352Y101346D01*
X19050Y104648D02*
X19050Y117004D01*
X9398Y126656D02*
X9398Y198374D01*
X9398Y126656D02*
X19050Y117004D01*
X167640Y167894D02*
X192024Y143510D01*
X167640Y167894D02*
X167640Y190500D01*
X192024Y143510D02*
X207724Y143510D01*
D13*
X126492Y120904D03*
D14*
X207724Y143510D02*
X208994Y142240D01*
X160020Y198120D02*
X134620Y198120D01*
X160020Y198120D02*
X167640Y190500D01*
X134620Y198120D02*
X129032Y192532D01*
X129032Y123444D01*
X126492Y120904D01*
X216662Y142240D02*
X256540Y142240D01*
X216662Y142240D02*
X208994Y142240D01*
D13*
X218186Y189230D03*
D14*
X219456Y187960D01*
X219456Y145034D01*
X216662Y142240D01*
D13*
X135636Y120904D03*
D14*
X190849Y138938D02*
X204771Y138938D01*
X206549Y137160D01*
X236220Y137160D01*
X137668Y191008D02*
X135636Y188976D01*
X135636Y120904D01*
D13*
X257810Y104648D03*
D14*
X256540Y105918D01*
X256540Y116840D01*
X236220Y137160D01*
X156972Y191008D02*
X137668Y191008D01*
X163576Y184404D02*
X163576Y166211D01*
X190849Y138938D01*
X163576Y184404D02*
X156972Y191008D01*
D13*
X118618Y13843D03*
X41148Y137541D03*
D14*
X118618Y67110D02*
X118618Y13843D01*
X81698Y94742D02*
X57060Y94742D01*
X41148Y110654D01*
X41148Y137541D01*
X99698Y76742D02*
X108986Y76742D01*
X118618Y67110D01*
X99698Y76742D02*
X81698Y94742D01*
D13*
X185420Y129540D03*
D14*
X195580Y119380D01*
D13*
X225552Y46228D03*
D14*
X220472Y46228D01*
X195580Y71120D01*
X195580Y119380D01*
D13*
X196596Y131826D03*
D14*
X225806Y119634D02*
X225806Y71120D01*
X197866Y131826D02*
X196596Y131826D01*
X197866Y131826D02*
X207070Y122622D01*
X222818Y122622D02*
X225806Y119634D01*
X222818Y122622D02*
X207070Y122622D01*
D13*
X225806Y71120D03*
X172322Y212030D03*
X158453Y214757D03*
D14*
X165718Y212030D02*
X172322Y212030D01*
X165718Y212030D02*
X162991Y214757D01*
X158453Y214757D01*
D13*
X202184Y159766D03*
D14*
X192532Y159766D01*
X179324Y172974D01*
X179324Y214948D01*
X159925Y234347D01*
X159163Y234347D01*
D13*
X159163Y234347D03*
X177038Y236474D03*
D14*
X188722Y224790D01*
D13*
X202946Y174498D03*
D14*
X188722Y188214D02*
X188722Y224790D01*
X188722Y188214D02*
X202438Y174498D01*
X202946Y174498D01*
D13*
X212598Y244468D03*
X222612Y273000D03*
X157590Y275700D03*
X162560Y258572D03*
D14*
X162560Y270729D01*
X162560Y275590D01*
X162560Y270729D02*
X157590Y275700D01*
X162560Y258572D02*
X169186Y251946D01*
X205120Y251946D01*
X212598Y244468D01*
D13*
X194310Y296672D03*
X168910Y286004D03*
D14*
X168910Y275700D02*
X157590Y275700D01*
X168910Y275700D02*
X168910Y286004D01*
X195580Y273000D02*
X222612Y273000D01*
X195580Y273000D02*
X171754Y273000D01*
X169164Y275590D01*
X162560Y275590D01*
X194310Y274270D02*
X194310Y296672D01*
X194310Y274270D02*
X195580Y273000D01*
D13*
X73406Y50038D03*
X35660Y78840D03*
D14*
X66494Y48006D01*
X71374Y48006D02*
X73406Y50038D01*
X71374Y48006D02*
X66494Y48006D01*
D13*
X48514Y50038D03*
X26416Y76454D03*
D14*
X48514Y54356D01*
X48514Y50038D01*
D13*
X16510Y128524D03*
X127000Y206248D03*
D14*
X14224Y168238D02*
X14224Y162978D01*
X14224Y168238D02*
X17944Y171958D01*
X14224Y162978D02*
X16510Y160692D01*
X16510Y128524D01*
X17944Y171958D02*
X23204Y171958D01*
X36412Y158750D01*
X119888Y199136D02*
X127000Y206248D01*
X103539Y177546D02*
X93915Y177546D01*
X75119Y158750D01*
X115062Y195416D02*
X118782Y199136D01*
X119888Y199136D01*
X115062Y195416D02*
X115062Y189069D01*
X75119Y158750D02*
X36412Y158750D01*
X103539Y177546D02*
X115062Y189069D01*
M02*
