G04 EAGLE Gerber RS-274X export*
G75*
%MOMM*%
%FSLAX34Y34*%
%LPD*%
%IN*%
%IPPOS*%
%AMOC8*
5,1,8,0,0,1.08239X$1,22.5*%
G01*
%ADD10C,0.000000*%
%ADD11C,0.254000*%
%ADD12C,0.254000*%


D10*
X87810Y53848D02*
X87812Y53960D01*
X87818Y54071D01*
X87828Y54183D01*
X87842Y54294D01*
X87859Y54404D01*
X87881Y54514D01*
X87907Y54623D01*
X87936Y54731D01*
X87969Y54837D01*
X88006Y54943D01*
X88047Y55047D01*
X88092Y55150D01*
X88140Y55251D01*
X88191Y55350D01*
X88246Y55447D01*
X88305Y55542D01*
X88366Y55636D01*
X88431Y55727D01*
X88500Y55815D01*
X88571Y55901D01*
X88645Y55985D01*
X88723Y56065D01*
X88803Y56143D01*
X88886Y56219D01*
X88971Y56291D01*
X89059Y56360D01*
X89149Y56426D01*
X89242Y56488D01*
X89337Y56548D01*
X89434Y56604D01*
X89532Y56656D01*
X89633Y56705D01*
X89735Y56750D01*
X89839Y56792D01*
X89944Y56830D01*
X90051Y56864D01*
X90158Y56894D01*
X90267Y56921D01*
X90376Y56943D01*
X90487Y56962D01*
X90597Y56977D01*
X90709Y56988D01*
X90820Y56995D01*
X90932Y56998D01*
X91044Y56997D01*
X91156Y56992D01*
X91267Y56983D01*
X91378Y56970D01*
X91489Y56953D01*
X91599Y56933D01*
X91708Y56908D01*
X91816Y56880D01*
X91923Y56847D01*
X92029Y56811D01*
X92133Y56771D01*
X92236Y56728D01*
X92338Y56681D01*
X92437Y56630D01*
X92535Y56576D01*
X92631Y56518D01*
X92725Y56457D01*
X92816Y56393D01*
X92905Y56326D01*
X92992Y56255D01*
X93076Y56181D01*
X93158Y56105D01*
X93236Y56025D01*
X93312Y55943D01*
X93385Y55858D01*
X93455Y55771D01*
X93521Y55681D01*
X93585Y55589D01*
X93645Y55495D01*
X93702Y55399D01*
X93755Y55300D01*
X93805Y55200D01*
X93851Y55099D01*
X93894Y54995D01*
X93933Y54890D01*
X93968Y54784D01*
X93999Y54677D01*
X94027Y54568D01*
X94050Y54459D01*
X94070Y54349D01*
X94086Y54238D01*
X94098Y54127D01*
X94106Y54016D01*
X94110Y53904D01*
X94110Y53792D01*
X94106Y53680D01*
X94098Y53569D01*
X94086Y53458D01*
X94070Y53347D01*
X94050Y53237D01*
X94027Y53128D01*
X93999Y53019D01*
X93968Y52912D01*
X93933Y52806D01*
X93894Y52701D01*
X93851Y52597D01*
X93805Y52496D01*
X93755Y52396D01*
X93702Y52297D01*
X93645Y52201D01*
X93585Y52107D01*
X93521Y52015D01*
X93455Y51925D01*
X93385Y51838D01*
X93312Y51753D01*
X93236Y51671D01*
X93158Y51591D01*
X93076Y51515D01*
X92992Y51441D01*
X92905Y51370D01*
X92816Y51303D01*
X92725Y51239D01*
X92631Y51178D01*
X92535Y51120D01*
X92437Y51066D01*
X92338Y51015D01*
X92236Y50968D01*
X92133Y50925D01*
X92029Y50885D01*
X91923Y50849D01*
X91816Y50816D01*
X91708Y50788D01*
X91599Y50763D01*
X91489Y50743D01*
X91378Y50726D01*
X91267Y50713D01*
X91156Y50704D01*
X91044Y50699D01*
X90932Y50698D01*
X90820Y50701D01*
X90709Y50708D01*
X90597Y50719D01*
X90487Y50734D01*
X90376Y50753D01*
X90267Y50775D01*
X90158Y50802D01*
X90051Y50832D01*
X89944Y50866D01*
X89839Y50904D01*
X89735Y50946D01*
X89633Y50991D01*
X89532Y51040D01*
X89434Y51092D01*
X89337Y51148D01*
X89242Y51208D01*
X89149Y51270D01*
X89059Y51336D01*
X88971Y51405D01*
X88886Y51477D01*
X88803Y51553D01*
X88723Y51631D01*
X88645Y51711D01*
X88571Y51795D01*
X88500Y51881D01*
X88431Y51969D01*
X88366Y52060D01*
X88305Y52154D01*
X88246Y52249D01*
X88191Y52346D01*
X88140Y52445D01*
X88092Y52546D01*
X88047Y52649D01*
X88006Y52753D01*
X87969Y52859D01*
X87936Y52965D01*
X87907Y53073D01*
X87881Y53182D01*
X87859Y53292D01*
X87842Y53402D01*
X87828Y53513D01*
X87818Y53625D01*
X87812Y53736D01*
X87810Y53848D01*
X27810Y53848D02*
X27812Y53960D01*
X27818Y54071D01*
X27828Y54183D01*
X27842Y54294D01*
X27859Y54404D01*
X27881Y54514D01*
X27907Y54623D01*
X27936Y54731D01*
X27969Y54837D01*
X28006Y54943D01*
X28047Y55047D01*
X28092Y55150D01*
X28140Y55251D01*
X28191Y55350D01*
X28246Y55447D01*
X28305Y55542D01*
X28366Y55636D01*
X28431Y55727D01*
X28500Y55815D01*
X28571Y55901D01*
X28645Y55985D01*
X28723Y56065D01*
X28803Y56143D01*
X28886Y56219D01*
X28971Y56291D01*
X29059Y56360D01*
X29149Y56426D01*
X29242Y56488D01*
X29337Y56548D01*
X29434Y56604D01*
X29532Y56656D01*
X29633Y56705D01*
X29735Y56750D01*
X29839Y56792D01*
X29944Y56830D01*
X30051Y56864D01*
X30158Y56894D01*
X30267Y56921D01*
X30376Y56943D01*
X30487Y56962D01*
X30597Y56977D01*
X30709Y56988D01*
X30820Y56995D01*
X30932Y56998D01*
X31044Y56997D01*
X31156Y56992D01*
X31267Y56983D01*
X31378Y56970D01*
X31489Y56953D01*
X31599Y56933D01*
X31708Y56908D01*
X31816Y56880D01*
X31923Y56847D01*
X32029Y56811D01*
X32133Y56771D01*
X32236Y56728D01*
X32338Y56681D01*
X32437Y56630D01*
X32535Y56576D01*
X32631Y56518D01*
X32725Y56457D01*
X32816Y56393D01*
X32905Y56326D01*
X32992Y56255D01*
X33076Y56181D01*
X33158Y56105D01*
X33236Y56025D01*
X33312Y55943D01*
X33385Y55858D01*
X33455Y55771D01*
X33521Y55681D01*
X33585Y55589D01*
X33645Y55495D01*
X33702Y55399D01*
X33755Y55300D01*
X33805Y55200D01*
X33851Y55099D01*
X33894Y54995D01*
X33933Y54890D01*
X33968Y54784D01*
X33999Y54677D01*
X34027Y54568D01*
X34050Y54459D01*
X34070Y54349D01*
X34086Y54238D01*
X34098Y54127D01*
X34106Y54016D01*
X34110Y53904D01*
X34110Y53792D01*
X34106Y53680D01*
X34098Y53569D01*
X34086Y53458D01*
X34070Y53347D01*
X34050Y53237D01*
X34027Y53128D01*
X33999Y53019D01*
X33968Y52912D01*
X33933Y52806D01*
X33894Y52701D01*
X33851Y52597D01*
X33805Y52496D01*
X33755Y52396D01*
X33702Y52297D01*
X33645Y52201D01*
X33585Y52107D01*
X33521Y52015D01*
X33455Y51925D01*
X33385Y51838D01*
X33312Y51753D01*
X33236Y51671D01*
X33158Y51591D01*
X33076Y51515D01*
X32992Y51441D01*
X32905Y51370D01*
X32816Y51303D01*
X32725Y51239D01*
X32631Y51178D01*
X32535Y51120D01*
X32437Y51066D01*
X32338Y51015D01*
X32236Y50968D01*
X32133Y50925D01*
X32029Y50885D01*
X31923Y50849D01*
X31816Y50816D01*
X31708Y50788D01*
X31599Y50763D01*
X31489Y50743D01*
X31378Y50726D01*
X31267Y50713D01*
X31156Y50704D01*
X31044Y50699D01*
X30932Y50698D01*
X30820Y50701D01*
X30709Y50708D01*
X30597Y50719D01*
X30487Y50734D01*
X30376Y50753D01*
X30267Y50775D01*
X30158Y50802D01*
X30051Y50832D01*
X29944Y50866D01*
X29839Y50904D01*
X29735Y50946D01*
X29633Y50991D01*
X29532Y51040D01*
X29434Y51092D01*
X29337Y51148D01*
X29242Y51208D01*
X29149Y51270D01*
X29059Y51336D01*
X28971Y51405D01*
X28886Y51477D01*
X28803Y51553D01*
X28723Y51631D01*
X28645Y51711D01*
X28571Y51795D01*
X28500Y51881D01*
X28431Y51969D01*
X28366Y52060D01*
X28305Y52154D01*
X28246Y52249D01*
X28191Y52346D01*
X28140Y52445D01*
X28092Y52546D01*
X28047Y52649D01*
X28006Y52753D01*
X27969Y52859D01*
X27936Y52965D01*
X27907Y53073D01*
X27881Y53182D01*
X27859Y53292D01*
X27842Y53402D01*
X27828Y53513D01*
X27818Y53625D01*
X27812Y53736D01*
X27810Y53848D01*
X87960Y53848D02*
X87962Y53957D01*
X87968Y54066D01*
X87978Y54174D01*
X87992Y54282D01*
X88009Y54390D01*
X88031Y54497D01*
X88056Y54603D01*
X88086Y54707D01*
X88119Y54811D01*
X88156Y54914D01*
X88196Y55015D01*
X88240Y55114D01*
X88288Y55212D01*
X88340Y55309D01*
X88394Y55403D01*
X88452Y55495D01*
X88514Y55585D01*
X88579Y55672D01*
X88646Y55758D01*
X88717Y55841D01*
X88791Y55921D01*
X88868Y55998D01*
X88947Y56073D01*
X89029Y56144D01*
X89114Y56213D01*
X89201Y56278D01*
X89290Y56341D01*
X89382Y56399D01*
X89476Y56455D01*
X89571Y56507D01*
X89669Y56556D01*
X89768Y56601D01*
X89869Y56643D01*
X89971Y56680D01*
X90074Y56714D01*
X90179Y56745D01*
X90285Y56771D01*
X90391Y56794D01*
X90499Y56812D01*
X90607Y56827D01*
X90715Y56838D01*
X90824Y56845D01*
X90933Y56848D01*
X91042Y56847D01*
X91151Y56842D01*
X91259Y56833D01*
X91367Y56820D01*
X91475Y56803D01*
X91582Y56783D01*
X91688Y56758D01*
X91793Y56730D01*
X91897Y56698D01*
X92000Y56662D01*
X92102Y56622D01*
X92202Y56579D01*
X92300Y56532D01*
X92397Y56482D01*
X92491Y56428D01*
X92584Y56370D01*
X92675Y56310D01*
X92763Y56246D01*
X92849Y56179D01*
X92932Y56109D01*
X93013Y56036D01*
X93091Y55960D01*
X93166Y55881D01*
X93239Y55799D01*
X93308Y55715D01*
X93374Y55629D01*
X93437Y55540D01*
X93497Y55449D01*
X93554Y55356D01*
X93607Y55261D01*
X93656Y55164D01*
X93702Y55065D01*
X93744Y54965D01*
X93783Y54863D01*
X93818Y54759D01*
X93849Y54655D01*
X93877Y54550D01*
X93900Y54443D01*
X93920Y54336D01*
X93936Y54228D01*
X93948Y54120D01*
X93956Y54011D01*
X93960Y53902D01*
X93960Y53794D01*
X93956Y53685D01*
X93948Y53576D01*
X93936Y53468D01*
X93920Y53360D01*
X93900Y53253D01*
X93877Y53146D01*
X93849Y53041D01*
X93818Y52937D01*
X93783Y52833D01*
X93744Y52731D01*
X93702Y52631D01*
X93656Y52532D01*
X93607Y52435D01*
X93554Y52340D01*
X93497Y52247D01*
X93437Y52156D01*
X93374Y52067D01*
X93308Y51981D01*
X93239Y51897D01*
X93166Y51815D01*
X93091Y51736D01*
X93013Y51660D01*
X92932Y51587D01*
X92849Y51517D01*
X92763Y51450D01*
X92675Y51386D01*
X92584Y51326D01*
X92491Y51268D01*
X92397Y51214D01*
X92300Y51164D01*
X92202Y51117D01*
X92102Y51074D01*
X92000Y51034D01*
X91897Y50998D01*
X91793Y50966D01*
X91688Y50938D01*
X91582Y50913D01*
X91475Y50893D01*
X91367Y50876D01*
X91259Y50863D01*
X91151Y50854D01*
X91042Y50849D01*
X90933Y50848D01*
X90824Y50851D01*
X90715Y50858D01*
X90607Y50869D01*
X90499Y50884D01*
X90391Y50902D01*
X90285Y50925D01*
X90179Y50951D01*
X90074Y50982D01*
X89971Y51016D01*
X89869Y51053D01*
X89768Y51095D01*
X89669Y51140D01*
X89571Y51189D01*
X89476Y51241D01*
X89382Y51297D01*
X89290Y51355D01*
X89201Y51418D01*
X89114Y51483D01*
X89029Y51552D01*
X88947Y51623D01*
X88868Y51698D01*
X88791Y51775D01*
X88717Y51855D01*
X88646Y51938D01*
X88579Y52024D01*
X88514Y52111D01*
X88452Y52201D01*
X88394Y52293D01*
X88340Y52387D01*
X88288Y52484D01*
X88240Y52582D01*
X88196Y52681D01*
X88156Y52782D01*
X88119Y52885D01*
X88086Y52989D01*
X88056Y53093D01*
X88031Y53199D01*
X88009Y53306D01*
X87992Y53414D01*
X87978Y53522D01*
X87968Y53630D01*
X87962Y53739D01*
X87960Y53848D01*
D11*
X86560Y53848D02*
X86572Y54123D01*
X86608Y54395D01*
X86667Y54663D01*
X86750Y54925D01*
X86855Y55179D01*
X86982Y55423D01*
X87130Y55655D01*
X87297Y55873D01*
X87483Y56075D01*
X87685Y56261D01*
X87903Y56428D01*
X88135Y56576D01*
X88379Y56703D01*
X88633Y56808D01*
X88895Y56891D01*
X89163Y56950D01*
X89436Y56986D01*
X89710Y56998D01*
X90712Y56998D01*
X90811Y57004D01*
X90910Y57008D01*
X91010Y57008D01*
X91109Y57004D01*
X91208Y56998D01*
X92210Y56998D01*
X92485Y56986D01*
X92757Y56950D01*
X93025Y56891D01*
X93287Y56808D01*
X93541Y56703D01*
X93785Y56576D01*
X94017Y56428D01*
X94235Y56261D01*
X94437Y56075D01*
X94623Y55873D01*
X94790Y55655D01*
X94938Y55423D01*
X95065Y55179D01*
X95170Y54925D01*
X95253Y54663D01*
X95312Y54395D01*
X95348Y54123D01*
X95360Y53848D01*
X95348Y53574D01*
X95312Y53301D01*
X95253Y53033D01*
X95170Y52771D01*
X95065Y52517D01*
X94938Y52273D01*
X94790Y52041D01*
X94623Y51823D01*
X94437Y51621D01*
X94235Y51435D01*
X94017Y51268D01*
X93785Y51120D01*
X93541Y50993D01*
X93287Y50888D01*
X93025Y50805D01*
X92757Y50746D01*
X92485Y50710D01*
X92210Y50698D01*
X91208Y50698D01*
X91109Y50692D01*
X91010Y50688D01*
X90910Y50688D01*
X90811Y50692D01*
X90712Y50698D01*
X89710Y50698D01*
X89436Y50710D01*
X89163Y50746D01*
X88895Y50805D01*
X88633Y50888D01*
X88379Y50993D01*
X88135Y51120D01*
X87903Y51268D01*
X87685Y51435D01*
X87483Y51621D01*
X87297Y51823D01*
X87130Y52041D01*
X86982Y52273D01*
X86855Y52517D01*
X86750Y52771D01*
X86667Y53033D01*
X86608Y53301D01*
X86572Y53574D01*
X86560Y53848D01*
X100910Y56098D02*
X100910Y66098D01*
X100922Y66381D01*
X100959Y66662D01*
X101021Y66939D01*
X101106Y67210D01*
X101215Y67472D01*
X101345Y67723D01*
X101498Y67962D01*
X101670Y68187D01*
X101862Y68396D01*
X102071Y68588D01*
X102296Y68760D01*
X102535Y68913D01*
X102787Y69043D01*
X103048Y69152D01*
X103319Y69237D01*
X103596Y69299D01*
X103877Y69336D01*
X104160Y69348D01*
X104443Y69336D01*
X104724Y69299D01*
X105001Y69237D01*
X105272Y69152D01*
X105534Y69043D01*
X105785Y68913D01*
X106024Y68760D01*
X106249Y68588D01*
X106458Y68396D01*
X106650Y68187D01*
X106822Y67962D01*
X106975Y67723D01*
X107106Y67472D01*
X107214Y67210D01*
X107299Y66939D01*
X107361Y66662D01*
X107398Y66381D01*
X107410Y66098D01*
X107410Y56098D01*
X107398Y55815D01*
X107361Y55534D01*
X107299Y55257D01*
X107214Y54986D01*
X107106Y54725D01*
X106975Y54473D01*
X106822Y54234D01*
X106650Y54009D01*
X106458Y53800D01*
X106249Y53608D01*
X106024Y53436D01*
X105785Y53283D01*
X105534Y53152D01*
X105272Y53044D01*
X105001Y52959D01*
X104724Y52897D01*
X104443Y52860D01*
X104160Y52848D01*
X103877Y52860D01*
X103596Y52897D01*
X103319Y52959D01*
X103048Y53044D01*
X102787Y53152D01*
X102535Y53283D01*
X102296Y53436D01*
X102071Y53608D01*
X101862Y53800D01*
X101670Y54009D01*
X101498Y54234D01*
X101345Y54473D01*
X101215Y54725D01*
X101106Y54986D01*
X101021Y55257D01*
X100959Y55534D01*
X100922Y55815D01*
X100910Y56098D01*
X14510Y29348D02*
X14510Y16348D01*
X14510Y29348D02*
X14522Y29631D01*
X14559Y29912D01*
X14621Y30189D01*
X14706Y30460D01*
X14814Y30722D01*
X14945Y30973D01*
X15098Y31212D01*
X15270Y31437D01*
X15462Y31646D01*
X15671Y31838D01*
X15896Y32010D01*
X16135Y32163D01*
X16386Y32294D01*
X16648Y32402D01*
X16919Y32487D01*
X17196Y32549D01*
X17477Y32586D01*
X17760Y32598D01*
X18043Y32586D01*
X18324Y32549D01*
X18601Y32487D01*
X18872Y32402D01*
X19134Y32294D01*
X19385Y32163D01*
X19624Y32010D01*
X19849Y31838D01*
X20058Y31646D01*
X20250Y31437D01*
X20422Y31212D01*
X20575Y30973D01*
X20705Y30722D01*
X20814Y30460D01*
X20899Y30189D01*
X20961Y29912D01*
X20998Y29631D01*
X21010Y29348D01*
X21010Y16348D01*
X20998Y16065D01*
X20961Y15784D01*
X20899Y15507D01*
X20814Y15236D01*
X20705Y14974D01*
X20575Y14723D01*
X20422Y14484D01*
X20250Y14259D01*
X20058Y14050D01*
X19849Y13858D01*
X19624Y13686D01*
X19385Y13533D01*
X19134Y13402D01*
X18872Y13294D01*
X18601Y13209D01*
X18324Y13147D01*
X18043Y13110D01*
X17760Y13098D01*
X17477Y13110D01*
X17196Y13147D01*
X16919Y13209D01*
X16648Y13294D01*
X16386Y13402D01*
X16135Y13533D01*
X15896Y13686D01*
X15671Y13858D01*
X15462Y14050D01*
X15270Y14259D01*
X15098Y14484D01*
X14945Y14723D01*
X14814Y14974D01*
X14706Y15236D01*
X14621Y15507D01*
X14559Y15784D01*
X14522Y16065D01*
X14510Y16348D01*
X14510Y56098D02*
X14510Y66098D01*
X14522Y66381D01*
X14559Y66662D01*
X14621Y66939D01*
X14706Y67210D01*
X14814Y67472D01*
X14945Y67723D01*
X15098Y67962D01*
X15270Y68187D01*
X15462Y68396D01*
X15671Y68588D01*
X15896Y68760D01*
X16135Y68913D01*
X16386Y69043D01*
X16648Y69152D01*
X16919Y69237D01*
X17196Y69299D01*
X17477Y69336D01*
X17760Y69348D01*
X18043Y69336D01*
X18324Y69299D01*
X18601Y69237D01*
X18872Y69152D01*
X19134Y69043D01*
X19385Y68913D01*
X19624Y68760D01*
X19849Y68588D01*
X20058Y68396D01*
X20250Y68187D01*
X20422Y67962D01*
X20575Y67723D01*
X20705Y67472D01*
X20814Y67210D01*
X20899Y66939D01*
X20961Y66662D01*
X20998Y66381D01*
X21010Y66098D01*
X21010Y56098D01*
X20998Y55815D01*
X20961Y55534D01*
X20899Y55257D01*
X20814Y54986D01*
X20705Y54725D01*
X20575Y54473D01*
X20422Y54234D01*
X20250Y54009D01*
X20058Y53800D01*
X19849Y53608D01*
X19624Y53436D01*
X19385Y53283D01*
X19134Y53152D01*
X18872Y53044D01*
X18601Y52959D01*
X18324Y52897D01*
X18043Y52860D01*
X17760Y52848D01*
X17477Y52860D01*
X17196Y52897D01*
X16919Y52959D01*
X16648Y53044D01*
X16386Y53152D01*
X16135Y53283D01*
X15896Y53436D01*
X15671Y53608D01*
X15462Y53800D01*
X15270Y54009D01*
X15098Y54234D01*
X14945Y54473D01*
X14814Y54725D01*
X14706Y54986D01*
X14621Y55257D01*
X14559Y55534D01*
X14522Y55815D01*
X14510Y56098D01*
X100910Y29348D02*
X100910Y16348D01*
X100910Y29348D02*
X100922Y29631D01*
X100959Y29912D01*
X101021Y30189D01*
X101106Y30460D01*
X101215Y30722D01*
X101345Y30973D01*
X101498Y31212D01*
X101670Y31437D01*
X101862Y31646D01*
X102071Y31838D01*
X102296Y32010D01*
X102535Y32163D01*
X102787Y32294D01*
X103048Y32402D01*
X103319Y32487D01*
X103596Y32549D01*
X103877Y32586D01*
X104160Y32598D01*
X104443Y32586D01*
X104724Y32549D01*
X105001Y32487D01*
X105272Y32402D01*
X105534Y32294D01*
X105785Y32163D01*
X106024Y32010D01*
X106249Y31838D01*
X106458Y31646D01*
X106650Y31437D01*
X106822Y31212D01*
X106975Y30973D01*
X107106Y30722D01*
X107214Y30460D01*
X107299Y30189D01*
X107361Y29912D01*
X107398Y29631D01*
X107410Y29348D01*
X107410Y16348D01*
X107398Y16065D01*
X107361Y15784D01*
X107299Y15507D01*
X107214Y15236D01*
X107106Y14974D01*
X106975Y14723D01*
X106822Y14484D01*
X106650Y14259D01*
X106458Y14050D01*
X106249Y13858D01*
X106024Y13686D01*
X105785Y13533D01*
X105534Y13402D01*
X105272Y13294D01*
X105001Y13209D01*
X104724Y13147D01*
X104443Y13110D01*
X104160Y13098D01*
X103877Y13110D01*
X103596Y13147D01*
X103319Y13209D01*
X103048Y13294D01*
X102787Y13402D01*
X102535Y13533D01*
X102296Y13686D01*
X102071Y13858D01*
X101862Y14050D01*
X101670Y14259D01*
X101498Y14484D01*
X101345Y14723D01*
X101215Y14974D01*
X101106Y15236D01*
X101021Y15507D01*
X100959Y15784D01*
X100922Y16065D01*
X100910Y16348D01*
X34110Y53600D02*
X34100Y53490D01*
X34085Y53380D01*
X34067Y53270D01*
X34045Y53162D01*
X34019Y53054D01*
X33989Y52947D01*
X33955Y52841D01*
X33918Y52736D01*
X33877Y52633D01*
X33833Y52532D01*
X33785Y52432D01*
X33733Y52333D01*
X33678Y52237D01*
X33620Y52142D01*
X33559Y52050D01*
X33494Y51960D01*
X33426Y51872D01*
X33355Y51787D01*
X33281Y51704D01*
X33205Y51624D01*
X33125Y51546D01*
X33043Y51472D01*
X32958Y51400D01*
X32871Y51332D01*
X32782Y51266D01*
X32690Y51204D01*
X32596Y51145D01*
X32500Y51089D01*
X32402Y51036D01*
X32303Y50988D01*
X32202Y50942D01*
X32099Y50900D01*
X31995Y50862D01*
X31889Y50828D01*
X31783Y50797D01*
X31675Y50770D01*
X31566Y50747D01*
X31457Y50727D01*
X31347Y50712D01*
X31237Y50700D01*
X31126Y50692D01*
X31015Y50688D01*
X30905Y50688D01*
X30794Y50692D01*
X30683Y50700D01*
X30573Y50712D01*
X30463Y50727D01*
X30354Y50747D01*
X30245Y50770D01*
X30137Y50797D01*
X30031Y50828D01*
X29925Y50862D01*
X29821Y50900D01*
X29718Y50942D01*
X29617Y50988D01*
X29518Y51036D01*
X29420Y51089D01*
X29324Y51145D01*
X29230Y51204D01*
X29138Y51266D01*
X29049Y51332D01*
X28962Y51400D01*
X28877Y51472D01*
X28795Y51546D01*
X28715Y51624D01*
X28639Y51704D01*
X28565Y51787D01*
X28494Y51872D01*
X28426Y51960D01*
X28361Y52050D01*
X28300Y52142D01*
X28242Y52237D01*
X28187Y52333D01*
X28135Y52432D01*
X28087Y52532D01*
X28043Y52633D01*
X28002Y52736D01*
X27965Y52841D01*
X27931Y52947D01*
X27901Y53054D01*
X27875Y53162D01*
X27853Y53270D01*
X27835Y53380D01*
X27820Y53490D01*
X27810Y53600D01*
X27810Y54096D01*
X27820Y54206D01*
X27835Y54316D01*
X27853Y54426D01*
X27875Y54534D01*
X27901Y54642D01*
X27931Y54749D01*
X27965Y54855D01*
X28002Y54960D01*
X28043Y55063D01*
X28087Y55164D01*
X28135Y55264D01*
X28187Y55363D01*
X28242Y55459D01*
X28300Y55554D01*
X28361Y55646D01*
X28426Y55736D01*
X28494Y55824D01*
X28565Y55909D01*
X28639Y55992D01*
X28715Y56072D01*
X28795Y56150D01*
X28877Y56224D01*
X28962Y56296D01*
X29049Y56364D01*
X29138Y56430D01*
X29230Y56492D01*
X29324Y56551D01*
X29420Y56607D01*
X29518Y56660D01*
X29617Y56708D01*
X29718Y56754D01*
X29821Y56796D01*
X29925Y56834D01*
X30031Y56868D01*
X30137Y56899D01*
X30245Y56926D01*
X30354Y56949D01*
X30463Y56969D01*
X30573Y56984D01*
X30683Y56996D01*
X30794Y57004D01*
X30905Y57008D01*
X31015Y57008D01*
X31126Y57004D01*
X31237Y56996D01*
X31347Y56984D01*
X31457Y56969D01*
X31566Y56949D01*
X31675Y56926D01*
X31783Y56899D01*
X31889Y56868D01*
X31995Y56834D01*
X32099Y56796D01*
X32202Y56754D01*
X32303Y56708D01*
X32402Y56660D01*
X32500Y56607D01*
X32596Y56551D01*
X32690Y56492D01*
X32782Y56430D01*
X32871Y56364D01*
X32958Y56296D01*
X33043Y56224D01*
X33125Y56150D01*
X33205Y56072D01*
X33281Y55992D01*
X33355Y55909D01*
X33426Y55824D01*
X33494Y55736D01*
X33559Y55646D01*
X33620Y55554D01*
X33678Y55459D01*
X33733Y55363D01*
X33785Y55264D01*
X33833Y55164D01*
X33877Y55063D01*
X33918Y54960D01*
X33955Y54855D01*
X33989Y54749D01*
X34019Y54642D01*
X34045Y54534D01*
X34067Y54426D01*
X34085Y54316D01*
X34100Y54206D01*
X34110Y54096D01*
X34110Y53600D01*
X0Y5842D02*
X0Y284988D01*
X0Y5842D02*
X9Y5688D01*
X21Y5534D01*
X37Y5380D01*
X57Y5227D01*
X81Y5074D01*
X109Y4922D01*
X141Y4771D01*
X176Y4620D01*
X215Y4471D01*
X259Y4322D01*
X305Y4175D01*
X356Y4029D01*
X410Y3884D01*
X468Y3741D01*
X529Y3599D01*
X594Y3459D01*
X663Y3320D01*
X735Y3183D01*
X811Y3049D01*
X889Y2916D01*
X972Y2785D01*
X1057Y2656D01*
X1146Y2530D01*
X1238Y2405D01*
X1333Y2283D01*
X1431Y2164D01*
X1532Y2047D01*
X1636Y1933D01*
X1743Y1821D01*
X1853Y1712D01*
X1965Y1606D01*
X2080Y1503D01*
X2198Y1403D01*
X2318Y1305D01*
X2441Y1211D01*
X2566Y1120D01*
X2693Y1032D01*
X2822Y948D01*
X2954Y866D01*
X3087Y789D01*
X3223Y714D01*
X3360Y643D01*
X3499Y575D01*
X3640Y511D01*
X3782Y451D01*
X3926Y394D01*
X4071Y341D01*
X4217Y292D01*
X4365Y246D01*
X4514Y204D01*
X4663Y166D01*
X4814Y131D01*
X4965Y101D01*
X5118Y74D01*
X5271Y51D01*
X5424Y32D01*
X5578Y17D01*
X5732Y6D01*
X5886Y-1D01*
X6041Y-5D01*
X6195Y-4D01*
X6350Y0D01*
X266700Y0D01*
X267253Y24D01*
X267410Y40D01*
X267565Y59D01*
X267721Y83D01*
X267875Y110D01*
X268029Y141D01*
X268182Y175D01*
X268334Y214D01*
X268486Y256D01*
X268636Y302D01*
X268785Y352D01*
X268932Y405D01*
X269079Y462D01*
X269223Y523D01*
X269367Y587D01*
X269508Y655D01*
X269648Y726D01*
X269786Y801D01*
X269923Y879D01*
X270057Y960D01*
X270189Y1045D01*
X270319Y1132D01*
X270447Y1224D01*
X270573Y1318D01*
X270696Y1415D01*
X270817Y1515D01*
X270935Y1619D01*
X271051Y1725D01*
X271164Y1834D01*
X271274Y1945D01*
X271382Y2060D01*
X271486Y2177D01*
X271588Y2297D01*
X271687Y2419D01*
X271782Y2543D01*
X271875Y2670D01*
X271964Y2799D01*
X272050Y2930D01*
X272133Y3064D01*
X272213Y3199D01*
X272289Y3336D01*
X272362Y3475D01*
X272431Y3616D01*
X272497Y3759D01*
X272559Y3903D01*
X272618Y4048D01*
X272673Y4195D01*
X272725Y4344D01*
X272772Y4493D01*
X272817Y4644D01*
X272857Y4796D01*
X272893Y4948D01*
X272926Y5102D01*
X272955Y5256D01*
X272980Y5411D01*
X273002Y5567D01*
X273019Y5723D01*
X273033Y5879D01*
X273042Y6036D01*
X273048Y6193D01*
X273050Y6350D01*
X272796Y314198D01*
X272772Y314751D01*
X272756Y314908D01*
X272737Y315063D01*
X272713Y315219D01*
X272686Y315373D01*
X272655Y315527D01*
X272621Y315680D01*
X272582Y315832D01*
X272540Y315984D01*
X272494Y316134D01*
X272444Y316283D01*
X272391Y316430D01*
X272334Y316577D01*
X272273Y316721D01*
X272209Y316865D01*
X272141Y317006D01*
X272070Y317146D01*
X271995Y317284D01*
X271917Y317421D01*
X271836Y317555D01*
X271751Y317687D01*
X271664Y317817D01*
X271572Y317945D01*
X271478Y318071D01*
X271381Y318194D01*
X271281Y318315D01*
X271177Y318433D01*
X271071Y318549D01*
X270962Y318662D01*
X270851Y318772D01*
X270736Y318880D01*
X270619Y318984D01*
X270499Y319086D01*
X270377Y319185D01*
X270253Y319280D01*
X270126Y319373D01*
X269997Y319462D01*
X269866Y319548D01*
X269732Y319631D01*
X269597Y319711D01*
X269460Y319787D01*
X269321Y319860D01*
X269180Y319929D01*
X269037Y319995D01*
X268893Y320057D01*
X268748Y320116D01*
X268601Y320171D01*
X268452Y320223D01*
X268303Y320270D01*
X268152Y320315D01*
X268000Y320355D01*
X267848Y320391D01*
X267694Y320424D01*
X267540Y320453D01*
X267385Y320478D01*
X267229Y320500D01*
X267073Y320517D01*
X266917Y320531D01*
X266760Y320540D01*
X266603Y320546D01*
X266446Y320548D01*
X131796Y320548D01*
X131640Y320546D01*
X131483Y320540D01*
X131327Y320531D01*
X131171Y320517D01*
X131015Y320500D01*
X130860Y320479D01*
X130706Y320454D01*
X130552Y320425D01*
X130399Y320392D01*
X130247Y320356D01*
X130095Y320316D01*
X129945Y320272D01*
X129796Y320225D01*
X129648Y320174D01*
X129501Y320119D01*
X129356Y320061D01*
X129212Y319999D01*
X129070Y319933D01*
X128930Y319864D01*
X128791Y319792D01*
X128654Y319716D01*
X128519Y319637D01*
X128386Y319555D01*
X128255Y319469D01*
X128126Y319380D01*
X128000Y319288D01*
X127875Y319193D01*
X127753Y319095D01*
X127634Y318994D01*
X127517Y318890D01*
X127403Y318783D01*
X127291Y318673D01*
X127182Y318561D01*
X127076Y318446D01*
X126973Y318328D01*
X126872Y318208D01*
X97918Y293678D01*
X97917Y293678D02*
X97794Y293550D01*
X97668Y293424D01*
X97538Y293301D01*
X97406Y293181D01*
X97271Y293065D01*
X97133Y292952D01*
X96993Y292842D01*
X96849Y292736D01*
X96704Y292633D01*
X96556Y292534D01*
X96405Y292438D01*
X96253Y292346D01*
X96098Y292257D01*
X95941Y292172D01*
X95782Y292091D01*
X95621Y292014D01*
X95459Y291941D01*
X95294Y291872D01*
X95128Y291806D01*
X94961Y291745D01*
X94792Y291688D01*
X94622Y291634D01*
X94451Y291585D01*
X94278Y291540D01*
X94104Y291499D01*
X93930Y291463D01*
X93755Y291430D01*
X93579Y291402D01*
X93402Y291378D01*
X93225Y291358D01*
X93047Y291342D01*
X92869Y291331D01*
X92691Y291324D01*
X92513Y291321D01*
X92334Y291323D01*
X92156Y291328D01*
X91978Y291338D01*
X6858Y291338D01*
X5797Y291314D01*
X5640Y291298D01*
X5485Y291279D01*
X5329Y291255D01*
X5175Y291228D01*
X5021Y291197D01*
X4868Y291163D01*
X4716Y291124D01*
X4564Y291082D01*
X4414Y291036D01*
X4265Y290986D01*
X4118Y290933D01*
X3971Y290876D01*
X3827Y290815D01*
X3683Y290751D01*
X3542Y290683D01*
X3402Y290612D01*
X3264Y290537D01*
X3127Y290459D01*
X2993Y290378D01*
X2861Y290293D01*
X2731Y290206D01*
X2603Y290114D01*
X2477Y290020D01*
X2354Y289923D01*
X2233Y289823D01*
X2115Y289719D01*
X1999Y289613D01*
X1886Y289504D01*
X1776Y289393D01*
X1668Y289278D01*
X1564Y289161D01*
X1462Y289041D01*
X1363Y288919D01*
X1268Y288795D01*
X1175Y288668D01*
X1086Y288539D01*
X1000Y288408D01*
X917Y288274D01*
X837Y288139D01*
X761Y288002D01*
X688Y287863D01*
X619Y287722D01*
X553Y287579D01*
X491Y287435D01*
X432Y287290D01*
X377Y287143D01*
X325Y286994D01*
X278Y286845D01*
X233Y286694D01*
X193Y286542D01*
X157Y286390D01*
X124Y286236D01*
X95Y286082D01*
X70Y285927D01*
X48Y285771D01*
X31Y285615D01*
X17Y285459D01*
X8Y285302D01*
X2Y285145D01*
X0Y284988D01*
D10*
X104160Y70364D02*
X104271Y70362D01*
X104382Y70356D01*
X104492Y70347D01*
X104603Y70334D01*
X104712Y70317D01*
X104821Y70296D01*
X104929Y70272D01*
X105037Y70243D01*
X105143Y70212D01*
X105248Y70176D01*
X105352Y70137D01*
X105455Y70095D01*
X105556Y70049D01*
X105655Y70000D01*
X105753Y69947D01*
X105849Y69891D01*
X105942Y69832D01*
X106034Y69769D01*
X106124Y69704D01*
X106211Y69635D01*
X106296Y69564D01*
X106378Y69489D01*
X106458Y69412D01*
X106535Y69332D01*
X106610Y69250D01*
X106681Y69165D01*
X106750Y69078D01*
X106815Y68988D01*
X106878Y68896D01*
X106937Y68803D01*
X106993Y68707D01*
X107046Y68609D01*
X107095Y68510D01*
X107141Y68409D01*
X107183Y68306D01*
X107222Y68202D01*
X107258Y68097D01*
X107289Y67991D01*
X107318Y67883D01*
X107342Y67775D01*
X107363Y67666D01*
X107380Y67557D01*
X107393Y67446D01*
X107402Y67336D01*
X107408Y67225D01*
X107410Y67114D01*
X107410Y57114D01*
X107408Y57003D01*
X107402Y56892D01*
X107393Y56782D01*
X107380Y56671D01*
X107363Y56562D01*
X107342Y56453D01*
X107318Y56345D01*
X107289Y56237D01*
X107258Y56131D01*
X107222Y56026D01*
X107183Y55922D01*
X107141Y55819D01*
X107095Y55718D01*
X107046Y55619D01*
X106993Y55521D01*
X106937Y55425D01*
X106878Y55332D01*
X106815Y55240D01*
X106750Y55150D01*
X106681Y55063D01*
X106610Y54978D01*
X106535Y54896D01*
X106458Y54816D01*
X106378Y54739D01*
X106296Y54664D01*
X106211Y54593D01*
X106124Y54524D01*
X106034Y54459D01*
X105942Y54396D01*
X105849Y54337D01*
X105753Y54281D01*
X105655Y54228D01*
X105556Y54179D01*
X105455Y54133D01*
X105352Y54091D01*
X105248Y54052D01*
X105143Y54016D01*
X105037Y53985D01*
X104929Y53956D01*
X104821Y53932D01*
X104712Y53911D01*
X104603Y53894D01*
X104492Y53881D01*
X104382Y53872D01*
X104271Y53866D01*
X104160Y53864D01*
X104049Y53866D01*
X103938Y53872D01*
X103828Y53881D01*
X103717Y53894D01*
X103608Y53911D01*
X103499Y53932D01*
X103391Y53956D01*
X103283Y53985D01*
X103177Y54016D01*
X103072Y54052D01*
X102968Y54091D01*
X102865Y54133D01*
X102764Y54179D01*
X102665Y54228D01*
X102567Y54281D01*
X102471Y54337D01*
X102378Y54396D01*
X102286Y54459D01*
X102196Y54524D01*
X102109Y54593D01*
X102024Y54664D01*
X101942Y54739D01*
X101862Y54816D01*
X101785Y54896D01*
X101710Y54978D01*
X101639Y55063D01*
X101570Y55150D01*
X101505Y55240D01*
X101442Y55332D01*
X101383Y55425D01*
X101327Y55521D01*
X101274Y55619D01*
X101225Y55718D01*
X101179Y55819D01*
X101137Y55922D01*
X101098Y56026D01*
X101062Y56131D01*
X101031Y56237D01*
X101002Y56345D01*
X100978Y56453D01*
X100957Y56562D01*
X100940Y56671D01*
X100927Y56782D01*
X100918Y56892D01*
X100912Y57003D01*
X100910Y57114D01*
X100910Y67114D01*
X100912Y67225D01*
X100918Y67336D01*
X100927Y67446D01*
X100940Y67557D01*
X100957Y67666D01*
X100978Y67775D01*
X101002Y67883D01*
X101031Y67991D01*
X101062Y68097D01*
X101098Y68202D01*
X101137Y68306D01*
X101179Y68409D01*
X101225Y68510D01*
X101274Y68609D01*
X101327Y68707D01*
X101383Y68803D01*
X101442Y68896D01*
X101505Y68988D01*
X101570Y69078D01*
X101639Y69165D01*
X101710Y69250D01*
X101785Y69332D01*
X101862Y69412D01*
X101942Y69489D01*
X102024Y69564D01*
X102109Y69635D01*
X102196Y69704D01*
X102286Y69769D01*
X102378Y69832D01*
X102471Y69891D01*
X102567Y69947D01*
X102665Y70000D01*
X102764Y70049D01*
X102865Y70095D01*
X102968Y70137D01*
X103072Y70176D01*
X103177Y70212D01*
X103283Y70243D01*
X103391Y70272D01*
X103499Y70296D01*
X103608Y70317D01*
X103717Y70334D01*
X103828Y70347D01*
X103938Y70356D01*
X104049Y70362D01*
X104160Y70364D01*
X21010Y67114D02*
X21008Y67225D01*
X21002Y67336D01*
X20993Y67446D01*
X20980Y67557D01*
X20963Y67666D01*
X20942Y67775D01*
X20918Y67883D01*
X20889Y67991D01*
X20858Y68097D01*
X20822Y68202D01*
X20783Y68306D01*
X20741Y68409D01*
X20695Y68510D01*
X20646Y68609D01*
X20593Y68707D01*
X20537Y68803D01*
X20478Y68896D01*
X20415Y68988D01*
X20350Y69078D01*
X20281Y69165D01*
X20210Y69250D01*
X20135Y69332D01*
X20058Y69412D01*
X19978Y69489D01*
X19896Y69564D01*
X19811Y69635D01*
X19724Y69704D01*
X19634Y69769D01*
X19542Y69832D01*
X19449Y69891D01*
X19353Y69947D01*
X19255Y70000D01*
X19156Y70049D01*
X19055Y70095D01*
X18952Y70137D01*
X18848Y70176D01*
X18743Y70212D01*
X18637Y70243D01*
X18529Y70272D01*
X18421Y70296D01*
X18312Y70317D01*
X18203Y70334D01*
X18092Y70347D01*
X17982Y70356D01*
X17871Y70362D01*
X17760Y70364D01*
X21010Y67114D02*
X21010Y57114D01*
X21008Y57003D01*
X21002Y56892D01*
X20993Y56782D01*
X20980Y56671D01*
X20963Y56562D01*
X20942Y56453D01*
X20918Y56345D01*
X20889Y56237D01*
X20858Y56131D01*
X20822Y56026D01*
X20783Y55922D01*
X20741Y55819D01*
X20695Y55718D01*
X20646Y55619D01*
X20593Y55521D01*
X20537Y55425D01*
X20478Y55332D01*
X20415Y55240D01*
X20350Y55150D01*
X20281Y55063D01*
X20210Y54978D01*
X20135Y54896D01*
X20058Y54816D01*
X19978Y54739D01*
X19896Y54664D01*
X19811Y54593D01*
X19724Y54524D01*
X19634Y54459D01*
X19542Y54396D01*
X19449Y54337D01*
X19353Y54281D01*
X19255Y54228D01*
X19156Y54179D01*
X19055Y54133D01*
X18952Y54091D01*
X18848Y54052D01*
X18743Y54016D01*
X18637Y53985D01*
X18529Y53956D01*
X18421Y53932D01*
X18312Y53911D01*
X18203Y53894D01*
X18092Y53881D01*
X17982Y53872D01*
X17871Y53866D01*
X17760Y53864D01*
X17649Y53866D01*
X17538Y53872D01*
X17428Y53881D01*
X17317Y53894D01*
X17208Y53911D01*
X17099Y53932D01*
X16991Y53956D01*
X16883Y53985D01*
X16777Y54016D01*
X16672Y54052D01*
X16568Y54091D01*
X16465Y54133D01*
X16364Y54179D01*
X16265Y54228D01*
X16167Y54281D01*
X16071Y54337D01*
X15978Y54396D01*
X15886Y54459D01*
X15796Y54524D01*
X15709Y54593D01*
X15624Y54664D01*
X15542Y54739D01*
X15462Y54816D01*
X15385Y54896D01*
X15310Y54978D01*
X15239Y55063D01*
X15170Y55150D01*
X15105Y55240D01*
X15042Y55332D01*
X14983Y55425D01*
X14927Y55521D01*
X14874Y55619D01*
X14825Y55718D01*
X14779Y55819D01*
X14737Y55922D01*
X14698Y56026D01*
X14662Y56131D01*
X14631Y56237D01*
X14602Y56345D01*
X14578Y56453D01*
X14557Y56562D01*
X14540Y56671D01*
X14527Y56782D01*
X14518Y56892D01*
X14512Y57003D01*
X14510Y57114D01*
X14510Y67114D01*
X14512Y67225D01*
X14518Y67336D01*
X14527Y67446D01*
X14540Y67557D01*
X14557Y67666D01*
X14578Y67775D01*
X14602Y67883D01*
X14631Y67991D01*
X14662Y68097D01*
X14698Y68202D01*
X14737Y68306D01*
X14779Y68409D01*
X14825Y68510D01*
X14874Y68609D01*
X14927Y68707D01*
X14983Y68803D01*
X15042Y68896D01*
X15105Y68988D01*
X15170Y69078D01*
X15239Y69165D01*
X15310Y69250D01*
X15385Y69332D01*
X15462Y69412D01*
X15542Y69489D01*
X15624Y69564D01*
X15709Y69635D01*
X15796Y69704D01*
X15886Y69769D01*
X15978Y69832D01*
X16071Y69891D01*
X16167Y69947D01*
X16265Y70000D01*
X16364Y70049D01*
X16465Y70095D01*
X16568Y70137D01*
X16672Y70176D01*
X16777Y70212D01*
X16883Y70243D01*
X16991Y70272D01*
X17099Y70296D01*
X17208Y70317D01*
X17317Y70334D01*
X17428Y70347D01*
X17538Y70356D01*
X17649Y70362D01*
X17760Y70364D01*
X107410Y30364D02*
X107410Y17364D01*
X107408Y17253D01*
X107402Y17142D01*
X107393Y17032D01*
X107380Y16921D01*
X107363Y16812D01*
X107342Y16703D01*
X107318Y16595D01*
X107289Y16487D01*
X107258Y16381D01*
X107222Y16276D01*
X107183Y16172D01*
X107141Y16069D01*
X107095Y15968D01*
X107046Y15869D01*
X106993Y15771D01*
X106937Y15675D01*
X106878Y15582D01*
X106815Y15490D01*
X106750Y15400D01*
X106681Y15313D01*
X106610Y15228D01*
X106535Y15146D01*
X106458Y15066D01*
X106378Y14989D01*
X106296Y14914D01*
X106211Y14843D01*
X106124Y14774D01*
X106034Y14709D01*
X105942Y14646D01*
X105849Y14587D01*
X105753Y14531D01*
X105655Y14478D01*
X105556Y14429D01*
X105455Y14383D01*
X105352Y14341D01*
X105248Y14302D01*
X105143Y14266D01*
X105037Y14235D01*
X104929Y14206D01*
X104821Y14182D01*
X104712Y14161D01*
X104603Y14144D01*
X104492Y14131D01*
X104382Y14122D01*
X104271Y14116D01*
X104160Y14114D01*
X104049Y14116D01*
X103938Y14122D01*
X103828Y14131D01*
X103717Y14144D01*
X103608Y14161D01*
X103499Y14182D01*
X103391Y14206D01*
X103283Y14235D01*
X103177Y14266D01*
X103072Y14302D01*
X102968Y14341D01*
X102865Y14383D01*
X102764Y14429D01*
X102665Y14478D01*
X102567Y14531D01*
X102471Y14587D01*
X102378Y14646D01*
X102286Y14709D01*
X102196Y14774D01*
X102109Y14843D01*
X102024Y14914D01*
X101942Y14989D01*
X101862Y15066D01*
X101785Y15146D01*
X101710Y15228D01*
X101639Y15313D01*
X101570Y15400D01*
X101505Y15490D01*
X101442Y15582D01*
X101383Y15675D01*
X101327Y15771D01*
X101274Y15869D01*
X101225Y15968D01*
X101179Y16069D01*
X101137Y16172D01*
X101098Y16276D01*
X101062Y16381D01*
X101031Y16487D01*
X101002Y16595D01*
X100978Y16703D01*
X100957Y16812D01*
X100940Y16921D01*
X100927Y17032D01*
X100918Y17142D01*
X100912Y17253D01*
X100910Y17364D01*
X100910Y30364D01*
X100912Y30475D01*
X100918Y30586D01*
X100927Y30696D01*
X100940Y30807D01*
X100957Y30916D01*
X100978Y31025D01*
X101002Y31133D01*
X101031Y31241D01*
X101062Y31347D01*
X101098Y31452D01*
X101137Y31556D01*
X101179Y31659D01*
X101225Y31760D01*
X101274Y31859D01*
X101327Y31957D01*
X101383Y32053D01*
X101442Y32146D01*
X101505Y32238D01*
X101570Y32328D01*
X101639Y32415D01*
X101710Y32500D01*
X101785Y32582D01*
X101862Y32662D01*
X101942Y32739D01*
X102024Y32814D01*
X102109Y32885D01*
X102196Y32954D01*
X102286Y33019D01*
X102378Y33082D01*
X102471Y33141D01*
X102567Y33197D01*
X102665Y33250D01*
X102764Y33299D01*
X102865Y33345D01*
X102968Y33387D01*
X103072Y33426D01*
X103177Y33462D01*
X103283Y33493D01*
X103391Y33522D01*
X103499Y33546D01*
X103608Y33567D01*
X103717Y33584D01*
X103828Y33597D01*
X103938Y33606D01*
X104049Y33612D01*
X104160Y33614D01*
X104271Y33612D01*
X104382Y33606D01*
X104492Y33597D01*
X104603Y33584D01*
X104712Y33567D01*
X104821Y33546D01*
X104929Y33522D01*
X105037Y33493D01*
X105143Y33462D01*
X105248Y33426D01*
X105352Y33387D01*
X105455Y33345D01*
X105556Y33299D01*
X105655Y33250D01*
X105753Y33197D01*
X105849Y33141D01*
X105942Y33082D01*
X106034Y33019D01*
X106124Y32954D01*
X106211Y32885D01*
X106296Y32814D01*
X106378Y32739D01*
X106458Y32662D01*
X106535Y32582D01*
X106610Y32500D01*
X106681Y32415D01*
X106750Y32328D01*
X106815Y32238D01*
X106878Y32146D01*
X106937Y32053D01*
X106993Y31957D01*
X107046Y31859D01*
X107095Y31760D01*
X107141Y31659D01*
X107183Y31556D01*
X107222Y31452D01*
X107258Y31347D01*
X107289Y31241D01*
X107318Y31133D01*
X107342Y31025D01*
X107363Y30916D01*
X107380Y30807D01*
X107393Y30696D01*
X107402Y30586D01*
X107408Y30475D01*
X107410Y30364D01*
X21010Y30364D02*
X21010Y17364D01*
X21008Y17253D01*
X21002Y17142D01*
X20993Y17032D01*
X20980Y16921D01*
X20963Y16812D01*
X20942Y16703D01*
X20918Y16595D01*
X20889Y16487D01*
X20858Y16381D01*
X20822Y16276D01*
X20783Y16172D01*
X20741Y16069D01*
X20695Y15968D01*
X20646Y15869D01*
X20593Y15771D01*
X20537Y15675D01*
X20478Y15582D01*
X20415Y15490D01*
X20350Y15400D01*
X20281Y15313D01*
X20210Y15228D01*
X20135Y15146D01*
X20058Y15066D01*
X19978Y14989D01*
X19896Y14914D01*
X19811Y14843D01*
X19724Y14774D01*
X19634Y14709D01*
X19542Y14646D01*
X19449Y14587D01*
X19353Y14531D01*
X19255Y14478D01*
X19156Y14429D01*
X19055Y14383D01*
X18952Y14341D01*
X18848Y14302D01*
X18743Y14266D01*
X18637Y14235D01*
X18529Y14206D01*
X18421Y14182D01*
X18312Y14161D01*
X18203Y14144D01*
X18092Y14131D01*
X17982Y14122D01*
X17871Y14116D01*
X17760Y14114D01*
X17649Y14116D01*
X17538Y14122D01*
X17428Y14131D01*
X17317Y14144D01*
X17208Y14161D01*
X17099Y14182D01*
X16991Y14206D01*
X16883Y14235D01*
X16777Y14266D01*
X16672Y14302D01*
X16568Y14341D01*
X16465Y14383D01*
X16364Y14429D01*
X16265Y14478D01*
X16167Y14531D01*
X16071Y14587D01*
X15978Y14646D01*
X15886Y14709D01*
X15796Y14774D01*
X15709Y14843D01*
X15624Y14914D01*
X15542Y14989D01*
X15462Y15066D01*
X15385Y15146D01*
X15310Y15228D01*
X15239Y15313D01*
X15170Y15400D01*
X15105Y15490D01*
X15042Y15582D01*
X14983Y15675D01*
X14927Y15771D01*
X14874Y15869D01*
X14825Y15968D01*
X14779Y16069D01*
X14737Y16172D01*
X14698Y16276D01*
X14662Y16381D01*
X14631Y16487D01*
X14602Y16595D01*
X14578Y16703D01*
X14557Y16812D01*
X14540Y16921D01*
X14527Y17032D01*
X14518Y17142D01*
X14512Y17253D01*
X14510Y17364D01*
X14510Y30364D01*
X14512Y30475D01*
X14518Y30586D01*
X14527Y30696D01*
X14540Y30807D01*
X14557Y30916D01*
X14578Y31025D01*
X14602Y31133D01*
X14631Y31241D01*
X14662Y31347D01*
X14698Y31452D01*
X14737Y31556D01*
X14779Y31659D01*
X14825Y31760D01*
X14874Y31859D01*
X14927Y31957D01*
X14983Y32053D01*
X15042Y32146D01*
X15105Y32238D01*
X15170Y32328D01*
X15239Y32415D01*
X15310Y32500D01*
X15385Y32582D01*
X15462Y32662D01*
X15542Y32739D01*
X15624Y32814D01*
X15709Y32885D01*
X15796Y32954D01*
X15886Y33019D01*
X15978Y33082D01*
X16071Y33141D01*
X16167Y33197D01*
X16265Y33250D01*
X16364Y33299D01*
X16465Y33345D01*
X16568Y33387D01*
X16672Y33426D01*
X16777Y33462D01*
X16883Y33493D01*
X16991Y33522D01*
X17099Y33546D01*
X17208Y33567D01*
X17317Y33584D01*
X17428Y33597D01*
X17538Y33606D01*
X17649Y33612D01*
X17760Y33614D01*
X17871Y33612D01*
X17982Y33606D01*
X18092Y33597D01*
X18203Y33584D01*
X18312Y33567D01*
X18421Y33546D01*
X18529Y33522D01*
X18637Y33493D01*
X18743Y33462D01*
X18848Y33426D01*
X18952Y33387D01*
X19055Y33345D01*
X19156Y33299D01*
X19255Y33250D01*
X19353Y33197D01*
X19449Y33141D01*
X19542Y33082D01*
X19634Y33019D01*
X19724Y32954D01*
X19811Y32885D01*
X19896Y32814D01*
X19978Y32739D01*
X20058Y32662D01*
X20135Y32582D01*
X20210Y32500D01*
X20281Y32415D01*
X20350Y32328D01*
X20415Y32238D01*
X20478Y32146D01*
X20537Y32053D01*
X20593Y31957D01*
X20646Y31859D01*
X20695Y31760D01*
X20741Y31659D01*
X20783Y31556D01*
X20822Y31452D01*
X20858Y31347D01*
X20889Y31241D01*
X20918Y31133D01*
X20942Y31025D01*
X20963Y30916D01*
X20980Y30807D01*
X20993Y30696D01*
X21002Y30586D01*
X21008Y30475D01*
X21010Y30364D01*
X89710Y58014D02*
X92210Y58014D01*
X92320Y58012D01*
X92430Y58006D01*
X92539Y57997D01*
X92648Y57983D01*
X92757Y57966D01*
X92865Y57945D01*
X92972Y57920D01*
X93078Y57892D01*
X93183Y57860D01*
X93287Y57824D01*
X93390Y57785D01*
X93491Y57742D01*
X93591Y57695D01*
X93689Y57645D01*
X93785Y57592D01*
X93879Y57535D01*
X93971Y57475D01*
X94062Y57412D01*
X94149Y57346D01*
X94235Y57277D01*
X94318Y57205D01*
X94398Y57130D01*
X94476Y57052D01*
X94551Y56972D01*
X94623Y56889D01*
X94692Y56803D01*
X94758Y56716D01*
X94821Y56625D01*
X94881Y56533D01*
X94938Y56439D01*
X94991Y56343D01*
X95041Y56245D01*
X95088Y56145D01*
X95131Y56044D01*
X95170Y55941D01*
X95206Y55837D01*
X95238Y55732D01*
X95266Y55626D01*
X95291Y55519D01*
X95312Y55411D01*
X95329Y55302D01*
X95343Y55193D01*
X95352Y55084D01*
X95358Y54974D01*
X95360Y54864D01*
X95358Y54754D01*
X95352Y54644D01*
X95343Y54535D01*
X95329Y54426D01*
X95312Y54317D01*
X95291Y54209D01*
X95266Y54102D01*
X95238Y53996D01*
X95206Y53891D01*
X95170Y53787D01*
X95131Y53684D01*
X95088Y53583D01*
X95041Y53483D01*
X94991Y53385D01*
X94938Y53289D01*
X94881Y53195D01*
X94821Y53103D01*
X94758Y53012D01*
X94692Y52925D01*
X94623Y52839D01*
X94551Y52756D01*
X94476Y52676D01*
X94398Y52598D01*
X94318Y52523D01*
X94235Y52451D01*
X94149Y52382D01*
X94062Y52316D01*
X93971Y52253D01*
X93879Y52193D01*
X93785Y52136D01*
X93689Y52083D01*
X93591Y52033D01*
X93491Y51986D01*
X93390Y51943D01*
X93287Y51904D01*
X93183Y51868D01*
X93078Y51836D01*
X92972Y51808D01*
X92865Y51783D01*
X92757Y51762D01*
X92648Y51745D01*
X92539Y51731D01*
X92430Y51722D01*
X92320Y51716D01*
X92210Y51714D01*
X89710Y51714D01*
X89600Y51716D01*
X89490Y51722D01*
X89381Y51731D01*
X89272Y51745D01*
X89163Y51762D01*
X89055Y51783D01*
X88948Y51808D01*
X88842Y51836D01*
X88737Y51868D01*
X88633Y51904D01*
X88530Y51943D01*
X88429Y51986D01*
X88329Y52033D01*
X88231Y52083D01*
X88135Y52136D01*
X88041Y52193D01*
X87949Y52253D01*
X87858Y52316D01*
X87771Y52382D01*
X87685Y52451D01*
X87602Y52523D01*
X87522Y52598D01*
X87444Y52676D01*
X87369Y52756D01*
X87297Y52839D01*
X87228Y52925D01*
X87162Y53012D01*
X87099Y53103D01*
X87039Y53195D01*
X86982Y53289D01*
X86929Y53385D01*
X86879Y53483D01*
X86832Y53583D01*
X86789Y53684D01*
X86750Y53787D01*
X86714Y53891D01*
X86682Y53996D01*
X86654Y54102D01*
X86629Y54209D01*
X86608Y54317D01*
X86591Y54426D01*
X86577Y54535D01*
X86568Y54644D01*
X86562Y54754D01*
X86560Y54864D01*
X86562Y54974D01*
X86568Y55084D01*
X86577Y55193D01*
X86591Y55302D01*
X86608Y55411D01*
X86629Y55519D01*
X86654Y55626D01*
X86682Y55732D01*
X86714Y55837D01*
X86750Y55941D01*
X86789Y56044D01*
X86832Y56145D01*
X86879Y56245D01*
X86929Y56343D01*
X86982Y56439D01*
X87039Y56533D01*
X87099Y56625D01*
X87162Y56716D01*
X87228Y56803D01*
X87297Y56889D01*
X87369Y56972D01*
X87444Y57052D01*
X87522Y57130D01*
X87602Y57205D01*
X87685Y57277D01*
X87771Y57346D01*
X87858Y57412D01*
X87949Y57475D01*
X88041Y57535D01*
X88135Y57592D01*
X88231Y57645D01*
X88329Y57695D01*
X88429Y57742D01*
X88530Y57785D01*
X88633Y57824D01*
X88737Y57860D01*
X88842Y57892D01*
X88948Y57920D01*
X89055Y57945D01*
X89163Y57966D01*
X89272Y57983D01*
X89381Y57997D01*
X89490Y58006D01*
X89600Y58012D01*
X89710Y58014D01*
X87960Y54864D02*
X87962Y54973D01*
X87968Y55082D01*
X87978Y55190D01*
X87992Y55298D01*
X88009Y55406D01*
X88031Y55513D01*
X88056Y55619D01*
X88086Y55723D01*
X88119Y55827D01*
X88156Y55930D01*
X88196Y56031D01*
X88240Y56130D01*
X88288Y56228D01*
X88340Y56325D01*
X88394Y56419D01*
X88452Y56511D01*
X88514Y56601D01*
X88579Y56688D01*
X88646Y56774D01*
X88717Y56857D01*
X88791Y56937D01*
X88868Y57014D01*
X88947Y57089D01*
X89029Y57160D01*
X89114Y57229D01*
X89201Y57294D01*
X89290Y57357D01*
X89382Y57415D01*
X89476Y57471D01*
X89571Y57523D01*
X89669Y57572D01*
X89768Y57617D01*
X89869Y57659D01*
X89971Y57696D01*
X90074Y57730D01*
X90179Y57761D01*
X90285Y57787D01*
X90391Y57810D01*
X90499Y57828D01*
X90607Y57843D01*
X90715Y57854D01*
X90824Y57861D01*
X90933Y57864D01*
X91042Y57863D01*
X91151Y57858D01*
X91259Y57849D01*
X91367Y57836D01*
X91475Y57819D01*
X91582Y57799D01*
X91688Y57774D01*
X91793Y57746D01*
X91897Y57714D01*
X92000Y57678D01*
X92102Y57638D01*
X92202Y57595D01*
X92300Y57548D01*
X92397Y57498D01*
X92491Y57444D01*
X92584Y57386D01*
X92675Y57326D01*
X92763Y57262D01*
X92849Y57195D01*
X92932Y57125D01*
X93013Y57052D01*
X93091Y56976D01*
X93166Y56897D01*
X93239Y56815D01*
X93308Y56731D01*
X93374Y56645D01*
X93437Y56556D01*
X93497Y56465D01*
X93554Y56372D01*
X93607Y56277D01*
X93656Y56180D01*
X93702Y56081D01*
X93744Y55981D01*
X93783Y55879D01*
X93818Y55775D01*
X93849Y55671D01*
X93877Y55566D01*
X93900Y55459D01*
X93920Y55352D01*
X93936Y55244D01*
X93948Y55136D01*
X93956Y55027D01*
X93960Y54918D01*
X93960Y54810D01*
X93956Y54701D01*
X93948Y54592D01*
X93936Y54484D01*
X93920Y54376D01*
X93900Y54269D01*
X93877Y54162D01*
X93849Y54057D01*
X93818Y53953D01*
X93783Y53849D01*
X93744Y53747D01*
X93702Y53647D01*
X93656Y53548D01*
X93607Y53451D01*
X93554Y53356D01*
X93497Y53263D01*
X93437Y53172D01*
X93374Y53083D01*
X93308Y52997D01*
X93239Y52913D01*
X93166Y52831D01*
X93091Y52752D01*
X93013Y52676D01*
X92932Y52603D01*
X92849Y52533D01*
X92763Y52466D01*
X92675Y52402D01*
X92584Y52342D01*
X92491Y52284D01*
X92397Y52230D01*
X92300Y52180D01*
X92202Y52133D01*
X92102Y52090D01*
X92000Y52050D01*
X91897Y52014D01*
X91793Y51982D01*
X91688Y51954D01*
X91582Y51929D01*
X91475Y51909D01*
X91367Y51892D01*
X91259Y51879D01*
X91151Y51870D01*
X91042Y51865D01*
X90933Y51864D01*
X90824Y51867D01*
X90715Y51874D01*
X90607Y51885D01*
X90499Y51900D01*
X90391Y51918D01*
X90285Y51941D01*
X90179Y51967D01*
X90074Y51998D01*
X89971Y52032D01*
X89869Y52069D01*
X89768Y52111D01*
X89669Y52156D01*
X89571Y52205D01*
X89476Y52257D01*
X89382Y52313D01*
X89290Y52371D01*
X89201Y52434D01*
X89114Y52499D01*
X89029Y52568D01*
X88947Y52639D01*
X88868Y52714D01*
X88791Y52791D01*
X88717Y52871D01*
X88646Y52954D01*
X88579Y53040D01*
X88514Y53127D01*
X88452Y53217D01*
X88394Y53309D01*
X88340Y53403D01*
X88288Y53500D01*
X88240Y53598D01*
X88196Y53697D01*
X88156Y53798D01*
X88119Y53901D01*
X88086Y54005D01*
X88056Y54109D01*
X88031Y54215D01*
X88009Y54322D01*
X87992Y54430D01*
X87978Y54538D01*
X87968Y54646D01*
X87962Y54755D01*
X87960Y54864D01*
X87810Y54864D02*
X87812Y54976D01*
X87818Y55087D01*
X87828Y55199D01*
X87842Y55310D01*
X87859Y55420D01*
X87881Y55530D01*
X87907Y55639D01*
X87936Y55747D01*
X87969Y55853D01*
X88006Y55959D01*
X88047Y56063D01*
X88092Y56166D01*
X88140Y56267D01*
X88191Y56366D01*
X88246Y56463D01*
X88305Y56558D01*
X88366Y56652D01*
X88431Y56743D01*
X88500Y56831D01*
X88571Y56917D01*
X88645Y57001D01*
X88723Y57081D01*
X88803Y57159D01*
X88886Y57235D01*
X88971Y57307D01*
X89059Y57376D01*
X89149Y57442D01*
X89242Y57504D01*
X89337Y57564D01*
X89434Y57620D01*
X89532Y57672D01*
X89633Y57721D01*
X89735Y57766D01*
X89839Y57808D01*
X89944Y57846D01*
X90051Y57880D01*
X90158Y57910D01*
X90267Y57937D01*
X90376Y57959D01*
X90487Y57978D01*
X90597Y57993D01*
X90709Y58004D01*
X90820Y58011D01*
X90932Y58014D01*
X91044Y58013D01*
X91156Y58008D01*
X91267Y57999D01*
X91378Y57986D01*
X91489Y57969D01*
X91599Y57949D01*
X91708Y57924D01*
X91816Y57896D01*
X91923Y57863D01*
X92029Y57827D01*
X92133Y57787D01*
X92236Y57744D01*
X92338Y57697D01*
X92437Y57646D01*
X92535Y57592D01*
X92631Y57534D01*
X92725Y57473D01*
X92816Y57409D01*
X92905Y57342D01*
X92992Y57271D01*
X93076Y57197D01*
X93158Y57121D01*
X93236Y57041D01*
X93312Y56959D01*
X93385Y56874D01*
X93455Y56787D01*
X93521Y56697D01*
X93585Y56605D01*
X93645Y56511D01*
X93702Y56415D01*
X93755Y56316D01*
X93805Y56216D01*
X93851Y56115D01*
X93894Y56011D01*
X93933Y55906D01*
X93968Y55800D01*
X93999Y55693D01*
X94027Y55584D01*
X94050Y55475D01*
X94070Y55365D01*
X94086Y55254D01*
X94098Y55143D01*
X94106Y55032D01*
X94110Y54920D01*
X94110Y54808D01*
X94106Y54696D01*
X94098Y54585D01*
X94086Y54474D01*
X94070Y54363D01*
X94050Y54253D01*
X94027Y54144D01*
X93999Y54035D01*
X93968Y53928D01*
X93933Y53822D01*
X93894Y53717D01*
X93851Y53613D01*
X93805Y53512D01*
X93755Y53412D01*
X93702Y53313D01*
X93645Y53217D01*
X93585Y53123D01*
X93521Y53031D01*
X93455Y52941D01*
X93385Y52854D01*
X93312Y52769D01*
X93236Y52687D01*
X93158Y52607D01*
X93076Y52531D01*
X92992Y52457D01*
X92905Y52386D01*
X92816Y52319D01*
X92725Y52255D01*
X92631Y52194D01*
X92535Y52136D01*
X92437Y52082D01*
X92338Y52031D01*
X92236Y51984D01*
X92133Y51941D01*
X92029Y51901D01*
X91923Y51865D01*
X91816Y51832D01*
X91708Y51804D01*
X91599Y51779D01*
X91489Y51759D01*
X91378Y51742D01*
X91267Y51729D01*
X91156Y51720D01*
X91044Y51715D01*
X90932Y51714D01*
X90820Y51717D01*
X90709Y51724D01*
X90597Y51735D01*
X90487Y51750D01*
X90376Y51769D01*
X90267Y51791D01*
X90158Y51818D01*
X90051Y51848D01*
X89944Y51882D01*
X89839Y51920D01*
X89735Y51962D01*
X89633Y52007D01*
X89532Y52056D01*
X89434Y52108D01*
X89337Y52164D01*
X89242Y52224D01*
X89149Y52286D01*
X89059Y52352D01*
X88971Y52421D01*
X88886Y52493D01*
X88803Y52569D01*
X88723Y52647D01*
X88645Y52727D01*
X88571Y52811D01*
X88500Y52897D01*
X88431Y52985D01*
X88366Y53076D01*
X88305Y53170D01*
X88246Y53265D01*
X88191Y53362D01*
X88140Y53461D01*
X88092Y53562D01*
X88047Y53665D01*
X88006Y53769D01*
X87969Y53875D01*
X87936Y53981D01*
X87907Y54089D01*
X87881Y54198D01*
X87859Y54308D01*
X87842Y54418D01*
X87828Y54529D01*
X87818Y54641D01*
X87812Y54752D01*
X87810Y54864D01*
X27810Y54864D02*
X27812Y54976D01*
X27818Y55087D01*
X27828Y55199D01*
X27842Y55310D01*
X27859Y55420D01*
X27881Y55530D01*
X27907Y55639D01*
X27936Y55747D01*
X27969Y55853D01*
X28006Y55959D01*
X28047Y56063D01*
X28092Y56166D01*
X28140Y56267D01*
X28191Y56366D01*
X28246Y56463D01*
X28305Y56558D01*
X28366Y56652D01*
X28431Y56743D01*
X28500Y56831D01*
X28571Y56917D01*
X28645Y57001D01*
X28723Y57081D01*
X28803Y57159D01*
X28886Y57235D01*
X28971Y57307D01*
X29059Y57376D01*
X29149Y57442D01*
X29242Y57504D01*
X29337Y57564D01*
X29434Y57620D01*
X29532Y57672D01*
X29633Y57721D01*
X29735Y57766D01*
X29839Y57808D01*
X29944Y57846D01*
X30051Y57880D01*
X30158Y57910D01*
X30267Y57937D01*
X30376Y57959D01*
X30487Y57978D01*
X30597Y57993D01*
X30709Y58004D01*
X30820Y58011D01*
X30932Y58014D01*
X31044Y58013D01*
X31156Y58008D01*
X31267Y57999D01*
X31378Y57986D01*
X31489Y57969D01*
X31599Y57949D01*
X31708Y57924D01*
X31816Y57896D01*
X31923Y57863D01*
X32029Y57827D01*
X32133Y57787D01*
X32236Y57744D01*
X32338Y57697D01*
X32437Y57646D01*
X32535Y57592D01*
X32631Y57534D01*
X32725Y57473D01*
X32816Y57409D01*
X32905Y57342D01*
X32992Y57271D01*
X33076Y57197D01*
X33158Y57121D01*
X33236Y57041D01*
X33312Y56959D01*
X33385Y56874D01*
X33455Y56787D01*
X33521Y56697D01*
X33585Y56605D01*
X33645Y56511D01*
X33702Y56415D01*
X33755Y56316D01*
X33805Y56216D01*
X33851Y56115D01*
X33894Y56011D01*
X33933Y55906D01*
X33968Y55800D01*
X33999Y55693D01*
X34027Y55584D01*
X34050Y55475D01*
X34070Y55365D01*
X34086Y55254D01*
X34098Y55143D01*
X34106Y55032D01*
X34110Y54920D01*
X34110Y54808D01*
X34106Y54696D01*
X34098Y54585D01*
X34086Y54474D01*
X34070Y54363D01*
X34050Y54253D01*
X34027Y54144D01*
X33999Y54035D01*
X33968Y53928D01*
X33933Y53822D01*
X33894Y53717D01*
X33851Y53613D01*
X33805Y53512D01*
X33755Y53412D01*
X33702Y53313D01*
X33645Y53217D01*
X33585Y53123D01*
X33521Y53031D01*
X33455Y52941D01*
X33385Y52854D01*
X33312Y52769D01*
X33236Y52687D01*
X33158Y52607D01*
X33076Y52531D01*
X32992Y52457D01*
X32905Y52386D01*
X32816Y52319D01*
X32725Y52255D01*
X32631Y52194D01*
X32535Y52136D01*
X32437Y52082D01*
X32338Y52031D01*
X32236Y51984D01*
X32133Y51941D01*
X32029Y51901D01*
X31923Y51865D01*
X31816Y51832D01*
X31708Y51804D01*
X31599Y51779D01*
X31489Y51759D01*
X31378Y51742D01*
X31267Y51729D01*
X31156Y51720D01*
X31044Y51715D01*
X30932Y51714D01*
X30820Y51717D01*
X30709Y51724D01*
X30597Y51735D01*
X30487Y51750D01*
X30376Y51769D01*
X30267Y51791D01*
X30158Y51818D01*
X30051Y51848D01*
X29944Y51882D01*
X29839Y51920D01*
X29735Y51962D01*
X29633Y52007D01*
X29532Y52056D01*
X29434Y52108D01*
X29337Y52164D01*
X29242Y52224D01*
X29149Y52286D01*
X29059Y52352D01*
X28971Y52421D01*
X28886Y52493D01*
X28803Y52569D01*
X28723Y52647D01*
X28645Y52727D01*
X28571Y52811D01*
X28500Y52897D01*
X28431Y52985D01*
X28366Y53076D01*
X28305Y53170D01*
X28246Y53265D01*
X28191Y53362D01*
X28140Y53461D01*
X28092Y53562D01*
X28047Y53665D01*
X28006Y53769D01*
X27969Y53875D01*
X27936Y53981D01*
X27907Y54089D01*
X27881Y54198D01*
X27859Y54308D01*
X27842Y54418D01*
X27828Y54529D01*
X27818Y54641D01*
X27812Y54752D01*
X27810Y54864D01*
D12*
X0Y5842D02*
X0Y5842D01*
X45Y5312D01*
X137Y4787D01*
X273Y4273D01*
X455Y3772D01*
X679Y3289D01*
X944Y2828D01*
X1248Y2391D01*
X1589Y1983D01*
X1965Y1606D01*
X2372Y1263D01*
X2808Y957D01*
X3268Y690D01*
X3750Y464D01*
X4250Y281D01*
X4764Y142D01*
X5288Y49D01*
X5818Y1D01*
X6350Y0D01*
X266700Y0D01*
X267253Y24D01*
X267253Y24D01*
X267802Y96D01*
X268343Y216D01*
X268872Y383D01*
X269383Y595D01*
X269875Y851D01*
X270342Y1148D01*
X270782Y1485D01*
X271190Y1860D01*
X271564Y2268D01*
X271902Y2708D01*
X272199Y3175D01*
X272455Y3666D01*
X272667Y4178D01*
X272834Y4706D01*
X272954Y5247D01*
X273026Y5797D01*
X273050Y6350D01*
X272796Y314198D01*
X272772Y314751D01*
X272700Y315300D01*
X272580Y315841D01*
X272413Y316369D01*
X272201Y316881D01*
X271945Y317373D01*
X271648Y317840D01*
X271311Y318279D01*
X270936Y318688D01*
X270528Y319062D01*
X270088Y319399D01*
X269621Y319697D01*
X269130Y319953D01*
X268618Y320165D01*
X268090Y320332D01*
X267549Y320452D01*
X266999Y320524D01*
X266446Y320548D01*
X131796Y320548D01*
X131703Y320547D01*
X131150Y320515D01*
X130602Y320435D01*
X130063Y320307D01*
X129537Y320133D01*
X129028Y319913D01*
X128541Y319650D01*
X128078Y319346D01*
X127643Y319002D01*
X127240Y318622D01*
X126872Y318208D01*
X97918Y293678D01*
X97843Y293599D01*
X97373Y293152D01*
X96866Y292747D01*
X96325Y292388D01*
X95756Y292078D01*
X95161Y291818D01*
X94546Y291612D01*
X93916Y291459D01*
X93274Y291363D01*
X92627Y291322D01*
X91978Y291338D01*
X6858Y291338D01*
X5797Y291314D01*
X5797Y291314D01*
X5248Y291242D01*
X4707Y291122D01*
X4179Y290955D01*
X3667Y290743D01*
X3175Y290487D01*
X2708Y290190D01*
X2269Y289853D01*
X1860Y289478D01*
X1486Y289070D01*
X1149Y288630D01*
X851Y288163D01*
X595Y287672D01*
X383Y287160D01*
X216Y286632D01*
X97Y286091D01*
X24Y285541D01*
X0Y284988D01*
X0Y5842D01*
X86560Y54864D02*
X86572Y54589D01*
X86608Y54317D01*
X86667Y54049D01*
X86750Y53787D01*
X86855Y53533D01*
X86982Y53289D01*
X87130Y53057D01*
X87297Y52839D01*
X87483Y52637D01*
X87685Y52451D01*
X87903Y52284D01*
X88135Y52136D01*
X88379Y52009D01*
X88633Y51904D01*
X88895Y51821D01*
X89163Y51762D01*
X89435Y51726D01*
X89710Y51714D01*
X92210Y51714D01*
X92485Y51726D01*
X92757Y51762D01*
X93025Y51821D01*
X93287Y51904D01*
X93541Y52009D01*
X93785Y52136D01*
X94017Y52284D01*
X94235Y52451D01*
X94437Y52637D01*
X94623Y52839D01*
X94790Y53057D01*
X94938Y53289D01*
X95065Y53533D01*
X95170Y53787D01*
X95253Y54049D01*
X95312Y54317D01*
X95348Y54589D01*
X95360Y54864D01*
X95348Y55139D01*
X95312Y55411D01*
X95253Y55679D01*
X95170Y55941D01*
X95065Y56195D01*
X94938Y56439D01*
X94790Y56671D01*
X94623Y56889D01*
X94437Y57091D01*
X94235Y57277D01*
X94017Y57444D01*
X93785Y57592D01*
X93541Y57719D01*
X93287Y57824D01*
X93025Y57907D01*
X92757Y57966D01*
X92485Y58002D01*
X92210Y58014D01*
X89710Y58014D01*
X89435Y58002D01*
X89163Y57966D01*
X88895Y57907D01*
X88633Y57824D01*
X88379Y57719D01*
X88135Y57592D01*
X87903Y57444D01*
X87685Y57277D01*
X87483Y57091D01*
X87297Y56889D01*
X87130Y56671D01*
X86982Y56439D01*
X86855Y56195D01*
X86750Y55941D01*
X86667Y55679D01*
X86608Y55411D01*
X86572Y55139D01*
X86560Y54864D01*
X100910Y57114D02*
X100922Y56831D01*
X100959Y56550D01*
X101021Y56273D01*
X101106Y56002D01*
X101215Y55741D01*
X101345Y55489D01*
X101498Y55250D01*
X101670Y55025D01*
X101862Y54816D01*
X102071Y54624D01*
X102296Y54452D01*
X102535Y54299D01*
X102787Y54169D01*
X103048Y54060D01*
X103319Y53975D01*
X103596Y53913D01*
X103877Y53876D01*
X104160Y53864D01*
X104443Y53876D01*
X104724Y53913D01*
X105001Y53975D01*
X105272Y54060D01*
X105534Y54169D01*
X105785Y54299D01*
X106024Y54452D01*
X106249Y54624D01*
X106458Y54816D01*
X106650Y55025D01*
X106822Y55250D01*
X106975Y55489D01*
X107106Y55741D01*
X107214Y56002D01*
X107299Y56273D01*
X107361Y56550D01*
X107398Y56831D01*
X107410Y57114D01*
X107410Y67114D01*
X107398Y67397D01*
X107361Y67678D01*
X107299Y67955D01*
X107214Y68226D01*
X107106Y68488D01*
X106975Y68739D01*
X106822Y68978D01*
X106650Y69203D01*
X106458Y69412D01*
X106249Y69604D01*
X106024Y69776D01*
X105785Y69929D01*
X105534Y70060D01*
X105272Y70168D01*
X105001Y70253D01*
X104724Y70315D01*
X104443Y70352D01*
X104160Y70364D01*
X103877Y70352D01*
X103596Y70315D01*
X103319Y70253D01*
X103048Y70168D01*
X102787Y70060D01*
X102535Y69929D01*
X102296Y69776D01*
X102071Y69604D01*
X101862Y69412D01*
X101670Y69203D01*
X101498Y68978D01*
X101345Y68739D01*
X101215Y68488D01*
X101106Y68226D01*
X101021Y67955D01*
X100959Y67678D01*
X100922Y67397D01*
X100910Y67114D01*
X100910Y57114D01*
X14510Y17364D02*
X14522Y17081D01*
X14559Y16800D01*
X14621Y16523D01*
X14706Y16252D01*
X14815Y15991D01*
X14945Y15739D01*
X15098Y15500D01*
X15270Y15275D01*
X15462Y15066D01*
X15671Y14874D01*
X15896Y14702D01*
X16135Y14549D01*
X16387Y14419D01*
X16648Y14310D01*
X16919Y14225D01*
X17196Y14163D01*
X17477Y14126D01*
X17760Y14114D01*
X18043Y14126D01*
X18324Y14163D01*
X18601Y14225D01*
X18872Y14310D01*
X19134Y14419D01*
X19385Y14549D01*
X19624Y14702D01*
X19849Y14874D01*
X20058Y15066D01*
X20250Y15275D01*
X20422Y15500D01*
X20575Y15739D01*
X20706Y15991D01*
X20814Y16252D01*
X20899Y16523D01*
X20961Y16800D01*
X20998Y17081D01*
X21010Y17364D01*
X21010Y30364D01*
X20998Y30647D01*
X20961Y30928D01*
X20899Y31205D01*
X20814Y31476D01*
X20706Y31738D01*
X20575Y31989D01*
X20422Y32228D01*
X20250Y32453D01*
X20058Y32662D01*
X19849Y32854D01*
X19624Y33026D01*
X19385Y33179D01*
X19134Y33310D01*
X18872Y33418D01*
X18601Y33503D01*
X18324Y33565D01*
X18043Y33602D01*
X17760Y33614D01*
X17477Y33602D01*
X17196Y33565D01*
X16919Y33503D01*
X16648Y33418D01*
X16387Y33310D01*
X16135Y33179D01*
X15896Y33026D01*
X15671Y32854D01*
X15462Y32662D01*
X15270Y32453D01*
X15098Y32228D01*
X14945Y31989D01*
X14815Y31738D01*
X14706Y31476D01*
X14621Y31205D01*
X14559Y30928D01*
X14522Y30647D01*
X14510Y30364D01*
X14510Y17364D01*
X100910Y17364D02*
X100922Y17081D01*
X100959Y16800D01*
X101021Y16523D01*
X101106Y16252D01*
X101215Y15991D01*
X101345Y15739D01*
X101498Y15500D01*
X101670Y15275D01*
X101862Y15066D01*
X102071Y14874D01*
X102296Y14702D01*
X102535Y14549D01*
X102787Y14419D01*
X103048Y14310D01*
X103319Y14225D01*
X103596Y14163D01*
X103877Y14126D01*
X104160Y14114D01*
X104443Y14126D01*
X104724Y14163D01*
X105001Y14225D01*
X105272Y14310D01*
X105534Y14419D01*
X105785Y14549D01*
X106024Y14702D01*
X106249Y14874D01*
X106458Y15066D01*
X106650Y15275D01*
X106822Y15500D01*
X106975Y15739D01*
X107106Y15991D01*
X107214Y16252D01*
X107299Y16523D01*
X107361Y16800D01*
X107398Y17081D01*
X107410Y17364D01*
X107410Y30364D01*
X107398Y30647D01*
X107361Y30928D01*
X107299Y31205D01*
X107214Y31476D01*
X107106Y31738D01*
X106975Y31989D01*
X106822Y32228D01*
X106650Y32453D01*
X106458Y32662D01*
X106249Y32854D01*
X106024Y33026D01*
X105785Y33179D01*
X105534Y33310D01*
X105272Y33418D01*
X105001Y33503D01*
X104724Y33565D01*
X104443Y33602D01*
X104160Y33614D01*
X103877Y33602D01*
X103596Y33565D01*
X103319Y33503D01*
X103048Y33418D01*
X102787Y33310D01*
X102535Y33179D01*
X102296Y33026D01*
X102071Y32854D01*
X101862Y32662D01*
X101670Y32453D01*
X101498Y32228D01*
X101345Y31989D01*
X101215Y31738D01*
X101106Y31476D01*
X101021Y31205D01*
X100959Y30928D01*
X100922Y30647D01*
X100910Y30364D01*
X100910Y17364D01*
X14510Y57114D02*
X14522Y56831D01*
X14559Y56550D01*
X14621Y56273D01*
X14706Y56002D01*
X14815Y55741D01*
X14945Y55489D01*
X15098Y55250D01*
X15270Y55025D01*
X15462Y54816D01*
X15671Y54624D01*
X15896Y54452D01*
X16135Y54299D01*
X16387Y54169D01*
X16648Y54060D01*
X16919Y53975D01*
X17196Y53913D01*
X17477Y53876D01*
X17760Y53864D01*
X18043Y53876D01*
X18324Y53913D01*
X18601Y53975D01*
X18872Y54060D01*
X19134Y54169D01*
X19385Y54299D01*
X19624Y54452D01*
X19849Y54624D01*
X20058Y54816D01*
X20250Y55025D01*
X20422Y55250D01*
X20575Y55489D01*
X20706Y55741D01*
X20814Y56002D01*
X20899Y56273D01*
X20961Y56550D01*
X20998Y56831D01*
X21010Y57114D01*
X21010Y67114D01*
X20998Y67397D01*
X20961Y67678D01*
X20899Y67955D01*
X20814Y68226D01*
X20706Y68488D01*
X20575Y68739D01*
X20422Y68978D01*
X20250Y69203D01*
X20058Y69412D01*
X19849Y69604D01*
X19624Y69776D01*
X19385Y69929D01*
X19134Y70060D01*
X18872Y70168D01*
X18601Y70253D01*
X18324Y70315D01*
X18043Y70352D01*
X17760Y70364D01*
X17477Y70352D01*
X17196Y70315D01*
X16919Y70253D01*
X16648Y70168D01*
X16387Y70060D01*
X16135Y69929D01*
X15896Y69776D01*
X15671Y69604D01*
X15462Y69412D01*
X15270Y69203D01*
X15098Y68978D01*
X14945Y68739D01*
X14815Y68488D01*
X14706Y68226D01*
X14621Y67955D01*
X14559Y67678D01*
X14522Y67397D01*
X14510Y67114D01*
X14510Y57114D01*
X27810Y53600D02*
X27844Y53326D01*
X27901Y53057D01*
X27982Y52793D01*
X28085Y52538D01*
X28210Y52292D01*
X28356Y52058D01*
X28522Y51838D01*
X28706Y51633D01*
X28908Y51445D01*
X29125Y51276D01*
X29356Y51125D01*
X29600Y50996D01*
X29853Y50888D01*
X30116Y50803D01*
X30384Y50741D01*
X30657Y50703D01*
X30932Y50688D01*
X31208Y50698D01*
X31481Y50731D01*
X31751Y50789D01*
X32015Y50869D01*
X32270Y50973D01*
X32516Y51098D01*
X32750Y51244D01*
X32970Y51410D01*
X33175Y51594D01*
X33363Y51796D01*
X33532Y52013D01*
X33683Y52244D01*
X33812Y52488D01*
X33920Y52741D01*
X34005Y53003D01*
X34067Y53272D01*
X34105Y53545D01*
X34110Y53600D01*
X34110Y54096D01*
X34076Y54370D01*
X34019Y54639D01*
X33939Y54903D01*
X33835Y55158D01*
X33710Y55404D01*
X33564Y55638D01*
X33398Y55858D01*
X33214Y56063D01*
X33012Y56251D01*
X32795Y56421D01*
X32564Y56571D01*
X32320Y56700D01*
X32067Y56808D01*
X31804Y56893D01*
X31536Y56955D01*
X31263Y56993D01*
X30988Y57008D01*
X30712Y56998D01*
X30439Y56965D01*
X30169Y56907D01*
X29905Y56827D01*
X29650Y56723D01*
X29404Y56598D01*
X29170Y56452D01*
X28950Y56286D01*
X28745Y56102D01*
X28557Y55900D01*
X28388Y55683D01*
X28237Y55452D01*
X28108Y55208D01*
X28000Y54955D01*
X27915Y54693D01*
X27853Y54424D01*
X27815Y54151D01*
X27810Y54096D01*
X27810Y53600D01*
X100910Y16348D02*
X100922Y16065D01*
X100959Y15784D01*
X101021Y15507D01*
X101106Y15236D01*
X101215Y14974D01*
X101345Y14723D01*
X101498Y14484D01*
X101670Y14259D01*
X101862Y14050D01*
X102071Y13858D01*
X102296Y13686D01*
X102535Y13533D01*
X102787Y13402D01*
X103048Y13294D01*
X103319Y13209D01*
X103596Y13147D01*
X103877Y13110D01*
X104160Y13098D01*
X104443Y13110D01*
X104724Y13147D01*
X105001Y13209D01*
X105272Y13294D01*
X105534Y13402D01*
X105785Y13533D01*
X106024Y13686D01*
X106249Y13858D01*
X106458Y14050D01*
X106650Y14259D01*
X106822Y14484D01*
X106975Y14723D01*
X107106Y14974D01*
X107214Y15236D01*
X107299Y15507D01*
X107361Y15784D01*
X107398Y16065D01*
X107410Y16348D01*
X107410Y29348D01*
X107398Y29631D01*
X107361Y29912D01*
X107299Y30189D01*
X107214Y30460D01*
X107106Y30722D01*
X106975Y30973D01*
X106822Y31212D01*
X106650Y31437D01*
X106458Y31646D01*
X106249Y31838D01*
X106024Y32010D01*
X105785Y32163D01*
X105534Y32294D01*
X105272Y32402D01*
X105001Y32487D01*
X104724Y32549D01*
X104443Y32586D01*
X104160Y32598D01*
X103877Y32586D01*
X103596Y32549D01*
X103319Y32487D01*
X103048Y32402D01*
X102787Y32294D01*
X102535Y32163D01*
X102296Y32010D01*
X102071Y31838D01*
X101862Y31646D01*
X101670Y31437D01*
X101498Y31212D01*
X101345Y30973D01*
X101215Y30722D01*
X101106Y30460D01*
X101021Y30189D01*
X100959Y29912D01*
X100922Y29631D01*
X100910Y29348D01*
X100910Y16348D01*
X14510Y56098D02*
X14522Y55815D01*
X14559Y55534D01*
X14621Y55257D01*
X14706Y54986D01*
X14814Y54725D01*
X14945Y54473D01*
X15098Y54234D01*
X15270Y54009D01*
X15462Y53800D01*
X15671Y53608D01*
X15896Y53436D01*
X16135Y53283D01*
X16386Y53152D01*
X16648Y53044D01*
X16919Y52959D01*
X17196Y52897D01*
X17477Y52860D01*
X17760Y52848D01*
X18043Y52860D01*
X18324Y52897D01*
X18601Y52959D01*
X18872Y53044D01*
X19134Y53152D01*
X19385Y53283D01*
X19624Y53436D01*
X19849Y53608D01*
X20058Y53800D01*
X20250Y54009D01*
X20422Y54234D01*
X20575Y54473D01*
X20705Y54725D01*
X20814Y54986D01*
X20899Y55257D01*
X20961Y55534D01*
X20998Y55815D01*
X21010Y56098D01*
X21010Y66098D01*
X20998Y66381D01*
X20961Y66662D01*
X20899Y66939D01*
X20814Y67210D01*
X20705Y67472D01*
X20575Y67723D01*
X20422Y67962D01*
X20250Y68187D01*
X20058Y68396D01*
X19849Y68588D01*
X19624Y68760D01*
X19385Y68913D01*
X19134Y69043D01*
X18872Y69152D01*
X18601Y69237D01*
X18324Y69299D01*
X18043Y69336D01*
X17760Y69348D01*
X17477Y69336D01*
X17196Y69299D01*
X16919Y69237D01*
X16648Y69152D01*
X16386Y69043D01*
X16135Y68913D01*
X15896Y68760D01*
X15671Y68588D01*
X15462Y68396D01*
X15270Y68187D01*
X15098Y67962D01*
X14945Y67723D01*
X14814Y67472D01*
X14706Y67210D01*
X14621Y66939D01*
X14559Y66662D01*
X14522Y66381D01*
X14510Y66098D01*
X14510Y56098D01*
X14510Y16348D02*
X14522Y16065D01*
X14559Y15784D01*
X14621Y15507D01*
X14706Y15236D01*
X14814Y14974D01*
X14945Y14723D01*
X15098Y14484D01*
X15270Y14259D01*
X15462Y14050D01*
X15671Y13858D01*
X15896Y13686D01*
X16135Y13533D01*
X16386Y13402D01*
X16648Y13294D01*
X16919Y13209D01*
X17196Y13147D01*
X17477Y13110D01*
X17760Y13098D01*
X18043Y13110D01*
X18324Y13147D01*
X18601Y13209D01*
X18872Y13294D01*
X19134Y13402D01*
X19385Y13533D01*
X19624Y13686D01*
X19849Y13858D01*
X20058Y14050D01*
X20250Y14259D01*
X20422Y14484D01*
X20575Y14723D01*
X20705Y14974D01*
X20814Y15236D01*
X20899Y15507D01*
X20961Y15784D01*
X20998Y16065D01*
X21010Y16348D01*
X21010Y29348D01*
X20998Y29631D01*
X20961Y29912D01*
X20899Y30189D01*
X20814Y30460D01*
X20705Y30722D01*
X20575Y30973D01*
X20422Y31212D01*
X20250Y31437D01*
X20058Y31646D01*
X19849Y31838D01*
X19624Y32010D01*
X19385Y32163D01*
X19134Y32294D01*
X18872Y32402D01*
X18601Y32487D01*
X18324Y32549D01*
X18043Y32586D01*
X17760Y32598D01*
X17477Y32586D01*
X17196Y32549D01*
X16919Y32487D01*
X16648Y32402D01*
X16386Y32294D01*
X16135Y32163D01*
X15896Y32010D01*
X15671Y31838D01*
X15462Y31646D01*
X15270Y31437D01*
X15098Y31212D01*
X14945Y30973D01*
X14814Y30722D01*
X14706Y30460D01*
X14621Y30189D01*
X14559Y29912D01*
X14522Y29631D01*
X14510Y29348D01*
X14510Y16348D01*
X100910Y56098D02*
X100922Y55815D01*
X100959Y55534D01*
X101021Y55257D01*
X101106Y54986D01*
X101215Y54725D01*
X101345Y54473D01*
X101498Y54234D01*
X101670Y54009D01*
X101862Y53800D01*
X102071Y53608D01*
X102296Y53436D01*
X102535Y53283D01*
X102787Y53152D01*
X103048Y53044D01*
X103319Y52959D01*
X103596Y52897D01*
X103877Y52860D01*
X104160Y52848D01*
X104443Y52860D01*
X104724Y52897D01*
X105001Y52959D01*
X105272Y53044D01*
X105534Y53152D01*
X105785Y53283D01*
X106024Y53436D01*
X106249Y53608D01*
X106458Y53800D01*
X106650Y54009D01*
X106822Y54234D01*
X106975Y54473D01*
X107106Y54725D01*
X107214Y54986D01*
X107299Y55257D01*
X107361Y55534D01*
X107398Y55815D01*
X107410Y56098D01*
X107410Y66098D01*
X107398Y66381D01*
X107361Y66662D01*
X107299Y66939D01*
X107214Y67210D01*
X107106Y67472D01*
X106975Y67723D01*
X106822Y67962D01*
X106650Y68187D01*
X106458Y68396D01*
X106249Y68588D01*
X106024Y68760D01*
X105785Y68913D01*
X105534Y69043D01*
X105272Y69152D01*
X105001Y69237D01*
X104724Y69299D01*
X104443Y69336D01*
X104160Y69348D01*
X103877Y69336D01*
X103596Y69299D01*
X103319Y69237D01*
X103048Y69152D01*
X102787Y69043D01*
X102535Y68913D01*
X102296Y68760D01*
X102071Y68588D01*
X101862Y68396D01*
X101670Y68187D01*
X101498Y67962D01*
X101345Y67723D01*
X101215Y67472D01*
X101106Y67210D01*
X101021Y66939D01*
X100959Y66662D01*
X100922Y66381D01*
X100910Y66098D01*
X100910Y56098D01*
X86560Y53848D02*
X86572Y53574D01*
X86608Y53301D01*
X86667Y53033D01*
X86750Y52771D01*
X86855Y52517D01*
X86982Y52273D01*
X87130Y52041D01*
X87297Y51823D01*
X87483Y51621D01*
X87685Y51435D01*
X87903Y51268D01*
X88135Y51120D01*
X88379Y50993D01*
X88633Y50888D01*
X88895Y50805D01*
X89163Y50746D01*
X89436Y50710D01*
X89710Y50698D01*
X90712Y50698D01*
X90988Y50688D01*
X91208Y50698D01*
X92210Y50698D01*
X92485Y50710D01*
X92757Y50746D01*
X93025Y50805D01*
X93287Y50888D01*
X93541Y50993D01*
X93785Y51120D01*
X94017Y51268D01*
X94235Y51435D01*
X94437Y51621D01*
X94623Y51823D01*
X94790Y52041D01*
X94938Y52273D01*
X95065Y52517D01*
X95170Y52771D01*
X95253Y53033D01*
X95312Y53301D01*
X95348Y53574D01*
X95360Y53848D01*
X95348Y54123D01*
X95312Y54395D01*
X95253Y54663D01*
X95170Y54925D01*
X95065Y55179D01*
X94938Y55423D01*
X94790Y55655D01*
X94623Y55873D01*
X94437Y56075D01*
X94235Y56261D01*
X94017Y56428D01*
X93785Y56576D01*
X93541Y56703D01*
X93287Y56808D01*
X93025Y56891D01*
X92757Y56950D01*
X92485Y56986D01*
X92210Y56998D01*
X91208Y56998D01*
X90932Y57008D01*
X90712Y56998D01*
X89710Y56998D01*
X89436Y56986D01*
X89163Y56950D01*
X88895Y56891D01*
X88633Y56808D01*
X88379Y56703D01*
X88135Y56576D01*
X87903Y56428D01*
X87685Y56261D01*
X87483Y56075D01*
X87297Y55873D01*
X87130Y55655D01*
X86982Y55423D01*
X86855Y55179D01*
X86750Y54925D01*
X86667Y54663D01*
X86608Y54395D01*
X86572Y54123D01*
X86560Y53848D01*
X94110Y53600D02*
X94032Y53110D01*
X93879Y52639D01*
X93654Y52197D01*
X93363Y51796D01*
X93012Y51445D01*
X92611Y51154D01*
X92169Y50929D01*
X91698Y50776D01*
X91208Y50698D01*
X90712Y50698D01*
X90222Y50776D01*
X89751Y50929D01*
X89309Y51154D01*
X88908Y51445D01*
X88557Y51796D01*
X88266Y52197D01*
X88041Y52639D01*
X87888Y53110D01*
X87810Y53600D01*
X87810Y54096D01*
X87888Y54586D01*
X88041Y55057D01*
X88266Y55499D01*
X88557Y55900D01*
X88908Y56251D01*
X89309Y56542D01*
X89751Y56767D01*
X90222Y56920D01*
X90712Y56998D01*
X91208Y56998D01*
X91698Y56920D01*
X92169Y56767D01*
X92611Y56542D01*
X93012Y56251D01*
X93363Y55900D01*
X93654Y55499D01*
X93879Y55057D01*
X94032Y54586D01*
X94110Y54096D01*
X94110Y53600D01*
X34110Y53600D02*
X34032Y53110D01*
X33879Y52639D01*
X33654Y52197D01*
X33363Y51796D01*
X33012Y51445D01*
X32611Y51154D01*
X32169Y50929D01*
X31698Y50776D01*
X31208Y50698D01*
X30712Y50698D01*
X30222Y50776D01*
X29751Y50929D01*
X29309Y51154D01*
X28908Y51445D01*
X28557Y51796D01*
X28266Y52197D01*
X28041Y52639D01*
X27888Y53110D01*
X27810Y53600D01*
X27810Y54096D01*
X27888Y54586D01*
X28041Y55057D01*
X28266Y55499D01*
X28557Y55900D01*
X28908Y56251D01*
X29309Y56542D01*
X29751Y56767D01*
X30222Y56920D01*
X30712Y56998D01*
X31208Y56998D01*
X31698Y56920D01*
X32169Y56767D01*
X32611Y56542D01*
X33012Y56251D01*
X33363Y55900D01*
X33654Y55499D01*
X33879Y55057D01*
X34032Y54586D01*
X34110Y54096D01*
X34110Y53600D01*
X93960Y53612D02*
X93886Y53146D01*
X93740Y52696D01*
X93526Y52276D01*
X93248Y51894D01*
X92914Y51560D01*
X92532Y51282D01*
X92112Y51068D01*
X91663Y50922D01*
X91196Y50848D01*
X90724Y50848D01*
X90258Y50922D01*
X89808Y51068D01*
X89388Y51282D01*
X89006Y51560D01*
X88672Y51894D01*
X88394Y52276D01*
X88180Y52696D01*
X88034Y53146D01*
X87960Y53612D01*
X87960Y54084D01*
X88034Y54551D01*
X88180Y55000D01*
X88394Y55420D01*
X88672Y55802D01*
X89006Y56136D01*
X89388Y56414D01*
X89808Y56628D01*
X90258Y56774D01*
X90724Y56848D01*
X91196Y56848D01*
X91663Y56774D01*
X92112Y56628D01*
X92532Y56414D01*
X92914Y56136D01*
X93248Y55802D01*
X93526Y55420D01*
X93740Y55000D01*
X93886Y54551D01*
X93960Y54084D01*
X93960Y53612D01*
X93960Y54628D02*
X93886Y54162D01*
X93740Y53712D01*
X93526Y53292D01*
X93248Y52910D01*
X92914Y52576D01*
X92532Y52298D01*
X92112Y52084D01*
X91663Y51938D01*
X91196Y51864D01*
X90724Y51864D01*
X90258Y51938D01*
X89808Y52084D01*
X89388Y52298D01*
X89006Y52576D01*
X88672Y52910D01*
X88394Y53292D01*
X88180Y53712D01*
X88034Y54162D01*
X87960Y54628D01*
X87960Y55100D01*
X88034Y55567D01*
X88180Y56016D01*
X88394Y56436D01*
X88672Y56818D01*
X89006Y57152D01*
X89388Y57430D01*
X89808Y57644D01*
X90258Y57790D01*
X90724Y57864D01*
X91196Y57864D01*
X91663Y57790D01*
X92112Y57644D01*
X92532Y57430D01*
X92914Y57152D01*
X93248Y56818D01*
X93526Y56436D01*
X93740Y56016D01*
X93886Y55567D01*
X93960Y55100D01*
X93960Y54628D01*
X94110Y54616D02*
X94032Y54126D01*
X93879Y53655D01*
X93654Y53213D01*
X93363Y52812D01*
X93012Y52461D01*
X92611Y52170D01*
X92169Y51945D01*
X91698Y51792D01*
X91208Y51714D01*
X90712Y51714D01*
X90222Y51792D01*
X89751Y51945D01*
X89309Y52170D01*
X88908Y52461D01*
X88557Y52812D01*
X88266Y53213D01*
X88041Y53655D01*
X87888Y54126D01*
X87810Y54616D01*
X87810Y55112D01*
X87888Y55602D01*
X88041Y56073D01*
X88266Y56515D01*
X88557Y56916D01*
X88908Y57267D01*
X89309Y57558D01*
X89751Y57783D01*
X90222Y57936D01*
X90712Y58014D01*
X91208Y58014D01*
X91698Y57936D01*
X92169Y57783D01*
X92611Y57558D01*
X93012Y57267D01*
X93363Y56916D01*
X93654Y56515D01*
X93879Y56073D01*
X94032Y55602D01*
X94110Y55112D01*
X94110Y54616D01*
X34110Y54616D02*
X34032Y54126D01*
X33879Y53655D01*
X33654Y53213D01*
X33363Y52812D01*
X33012Y52461D01*
X32611Y52170D01*
X32169Y51945D01*
X31698Y51792D01*
X31208Y51714D01*
X30712Y51714D01*
X30222Y51792D01*
X29751Y51945D01*
X29309Y52170D01*
X28908Y52461D01*
X28557Y52812D01*
X28266Y53213D01*
X28041Y53655D01*
X27888Y54126D01*
X27810Y54616D01*
X27810Y55112D01*
X27888Y55602D01*
X28041Y56073D01*
X28266Y56515D01*
X28557Y56916D01*
X28908Y57267D01*
X29309Y57558D01*
X29751Y57783D01*
X30222Y57936D01*
X30712Y58014D01*
X31208Y58014D01*
X31698Y57936D01*
X32169Y57783D01*
X32611Y57558D01*
X33012Y57267D01*
X33363Y56916D01*
X33654Y56515D01*
X33879Y56073D01*
X34032Y55602D01*
X34110Y55112D01*
X34110Y54616D01*
M02*
