G04 EAGLE Gerber RS-274X export*
G75*
%MOMM*%
%FSLAX34Y34*%
%LPD*%
%INSolderpaste Top*%
%IPPOS*%
%AMOC8*
5,1,8,0,0,1.08239X$1,22.5*%
G01*
%ADD10R,0.600000X0.500000*%
%ADD11R,0.600000X0.900000*%
%ADD12R,0.900000X0.600000*%
%ADD13R,1.000000X1.800000*%
%ADD14R,0.700000X0.250000*%
%ADD15R,0.250000X0.700000*%
%ADD16R,1.300000X1.300000*%
%ADD17R,0.711200X1.016000*%
%ADD18R,0.685800X0.609600*%
%ADD19R,1.580000X1.580000*%
%ADD20C,0.067500*%
%ADD21R,0.500000X0.600000*%
%ADD22R,0.850000X2.200000*%
%ADD23R,1.000000X1.050000*%
%ADD24R,0.600000X0.800000*%
%ADD25R,0.950000X0.450000*%
%ADD26R,3.450000X4.350000*%
%ADD27C,0.300000*%
%ADD28R,1.000000X4.600000*%
%ADD29R,1.600000X3.400000*%
%ADD30R,0.520000X1.000000*%
%ADD31R,0.270000X1.000000*%
%ADD32R,1.000000X2.000000*%
%ADD33R,0.450000X0.600000*%
%ADD34R,0.940000X0.890000*%


D10*
X218694Y89996D03*
X218694Y99996D03*
D11*
X92590Y171450D03*
X77590Y171450D03*
D10*
X152400Y91995D03*
X152400Y81995D03*
X220980Y152320D03*
X220980Y142320D03*
X231140Y152320D03*
X231140Y142320D03*
D12*
X254000Y152280D03*
X254000Y137280D03*
D10*
X142240Y91995D03*
X142240Y81995D03*
X241300Y152320D03*
X241300Y142320D03*
D11*
X92590Y158115D03*
X77590Y158115D03*
X92590Y144780D03*
X77590Y144780D03*
D10*
X246380Y203280D03*
X246380Y213280D03*
X195580Y203280D03*
X195580Y213280D03*
D13*
X208480Y208280D03*
X233480Y208280D03*
D14*
X184940Y139810D03*
X184940Y146310D03*
X184940Y152810D03*
X184940Y159310D03*
X184940Y165810D03*
X184940Y172310D03*
X184940Y178810D03*
X184940Y185310D03*
D15*
X177690Y192560D03*
X171190Y192560D03*
X164690Y192560D03*
X158190Y192560D03*
X151690Y192560D03*
X145190Y192560D03*
X138690Y192560D03*
X132190Y192560D03*
D14*
X124940Y185310D03*
X124940Y178810D03*
X124940Y172310D03*
X124940Y165810D03*
X124940Y159310D03*
X124940Y152810D03*
X124940Y146310D03*
X124940Y139810D03*
D15*
X132190Y132560D03*
X138690Y132560D03*
X145190Y132560D03*
X151690Y132560D03*
X158190Y132560D03*
X164690Y132560D03*
X171190Y132560D03*
X177690Y132560D03*
D16*
X163940Y153560D03*
X163940Y171560D03*
X145940Y171560D03*
X145940Y153560D03*
D17*
X122428Y92456D03*
D18*
X122428Y109474D03*
X102108Y109474D03*
X102108Y90678D03*
D10*
X159004Y283290D03*
X159004Y293290D03*
D19*
X192405Y265430D03*
D20*
X207792Y253943D02*
X215718Y253943D01*
X215718Y251917D01*
X207792Y251917D01*
X207792Y253943D01*
X207792Y252558D02*
X215718Y252558D01*
X215718Y253199D02*
X207792Y253199D01*
X207792Y253840D02*
X215718Y253840D01*
X215718Y258943D02*
X207792Y258943D01*
X215718Y258943D02*
X215718Y256917D01*
X207792Y256917D01*
X207792Y258943D01*
X207792Y257558D02*
X215718Y257558D01*
X215718Y258199D02*
X207792Y258199D01*
X207792Y258840D02*
X215718Y258840D01*
X215718Y263943D02*
X207792Y263943D01*
X215718Y263943D02*
X215718Y261917D01*
X207792Y261917D01*
X207792Y263943D01*
X207792Y262558D02*
X215718Y262558D01*
X215718Y263199D02*
X207792Y263199D01*
X207792Y263840D02*
X215718Y263840D01*
X215718Y268943D02*
X207792Y268943D01*
X215718Y268943D02*
X215718Y266917D01*
X207792Y266917D01*
X207792Y268943D01*
X207792Y267558D02*
X215718Y267558D01*
X215718Y268199D02*
X207792Y268199D01*
X207792Y268840D02*
X215718Y268840D01*
X215718Y273943D02*
X207792Y273943D01*
X215718Y273943D02*
X215718Y271917D01*
X207792Y271917D01*
X207792Y273943D01*
X207792Y272558D02*
X215718Y272558D01*
X215718Y273199D02*
X207792Y273199D01*
X207792Y273840D02*
X215718Y273840D01*
X215718Y278943D02*
X207792Y278943D01*
X215718Y278943D02*
X215718Y276917D01*
X207792Y276917D01*
X207792Y278943D01*
X207792Y277558D02*
X215718Y277558D01*
X215718Y278199D02*
X207792Y278199D01*
X207792Y278840D02*
X215718Y278840D01*
X203892Y280817D02*
X203892Y288743D01*
X205918Y288743D01*
X205918Y280817D01*
X203892Y280817D01*
X203892Y281458D02*
X205918Y281458D01*
X205918Y282099D02*
X203892Y282099D01*
X203892Y282740D02*
X205918Y282740D01*
X205918Y283381D02*
X203892Y283381D01*
X203892Y284022D02*
X205918Y284022D01*
X205918Y284663D02*
X203892Y284663D01*
X203892Y285304D02*
X205918Y285304D01*
X205918Y285945D02*
X203892Y285945D01*
X203892Y286586D02*
X205918Y286586D01*
X205918Y287227D02*
X203892Y287227D01*
X203892Y287868D02*
X205918Y287868D01*
X205918Y288509D02*
X203892Y288509D01*
X198892Y288743D02*
X198892Y280817D01*
X198892Y288743D02*
X200918Y288743D01*
X200918Y280817D01*
X198892Y280817D01*
X198892Y281458D02*
X200918Y281458D01*
X200918Y282099D02*
X198892Y282099D01*
X198892Y282740D02*
X200918Y282740D01*
X200918Y283381D02*
X198892Y283381D01*
X198892Y284022D02*
X200918Y284022D01*
X200918Y284663D02*
X198892Y284663D01*
X198892Y285304D02*
X200918Y285304D01*
X200918Y285945D02*
X198892Y285945D01*
X198892Y286586D02*
X200918Y286586D01*
X200918Y287227D02*
X198892Y287227D01*
X198892Y287868D02*
X200918Y287868D01*
X200918Y288509D02*
X198892Y288509D01*
X193892Y288743D02*
X193892Y280817D01*
X193892Y288743D02*
X195918Y288743D01*
X195918Y280817D01*
X193892Y280817D01*
X193892Y281458D02*
X195918Y281458D01*
X195918Y282099D02*
X193892Y282099D01*
X193892Y282740D02*
X195918Y282740D01*
X195918Y283381D02*
X193892Y283381D01*
X193892Y284022D02*
X195918Y284022D01*
X195918Y284663D02*
X193892Y284663D01*
X193892Y285304D02*
X195918Y285304D01*
X195918Y285945D02*
X193892Y285945D01*
X193892Y286586D02*
X195918Y286586D01*
X195918Y287227D02*
X193892Y287227D01*
X193892Y287868D02*
X195918Y287868D01*
X195918Y288509D02*
X193892Y288509D01*
X188892Y288743D02*
X188892Y280817D01*
X188892Y288743D02*
X190918Y288743D01*
X190918Y280817D01*
X188892Y280817D01*
X188892Y281458D02*
X190918Y281458D01*
X190918Y282099D02*
X188892Y282099D01*
X188892Y282740D02*
X190918Y282740D01*
X190918Y283381D02*
X188892Y283381D01*
X188892Y284022D02*
X190918Y284022D01*
X190918Y284663D02*
X188892Y284663D01*
X188892Y285304D02*
X190918Y285304D01*
X190918Y285945D02*
X188892Y285945D01*
X188892Y286586D02*
X190918Y286586D01*
X190918Y287227D02*
X188892Y287227D01*
X188892Y287868D02*
X190918Y287868D01*
X190918Y288509D02*
X188892Y288509D01*
X183892Y288743D02*
X183892Y280817D01*
X183892Y288743D02*
X185918Y288743D01*
X185918Y280817D01*
X183892Y280817D01*
X183892Y281458D02*
X185918Y281458D01*
X185918Y282099D02*
X183892Y282099D01*
X183892Y282740D02*
X185918Y282740D01*
X185918Y283381D02*
X183892Y283381D01*
X183892Y284022D02*
X185918Y284022D01*
X185918Y284663D02*
X183892Y284663D01*
X183892Y285304D02*
X185918Y285304D01*
X185918Y285945D02*
X183892Y285945D01*
X183892Y286586D02*
X185918Y286586D01*
X185918Y287227D02*
X183892Y287227D01*
X183892Y287868D02*
X185918Y287868D01*
X185918Y288509D02*
X183892Y288509D01*
X178892Y288743D02*
X178892Y280817D01*
X178892Y288743D02*
X180918Y288743D01*
X180918Y280817D01*
X178892Y280817D01*
X178892Y281458D02*
X180918Y281458D01*
X180918Y282099D02*
X178892Y282099D01*
X178892Y282740D02*
X180918Y282740D01*
X180918Y283381D02*
X178892Y283381D01*
X178892Y284022D02*
X180918Y284022D01*
X180918Y284663D02*
X178892Y284663D01*
X178892Y285304D02*
X180918Y285304D01*
X180918Y285945D02*
X178892Y285945D01*
X178892Y286586D02*
X180918Y286586D01*
X180918Y287227D02*
X178892Y287227D01*
X178892Y287868D02*
X180918Y287868D01*
X180918Y288509D02*
X178892Y288509D01*
X177018Y278943D02*
X169092Y278943D01*
X177018Y278943D02*
X177018Y276917D01*
X169092Y276917D01*
X169092Y278943D01*
X169092Y277558D02*
X177018Y277558D01*
X177018Y278199D02*
X169092Y278199D01*
X169092Y278840D02*
X177018Y278840D01*
X177018Y273943D02*
X169092Y273943D01*
X177018Y273943D02*
X177018Y271917D01*
X169092Y271917D01*
X169092Y273943D01*
X169092Y272558D02*
X177018Y272558D01*
X177018Y273199D02*
X169092Y273199D01*
X169092Y273840D02*
X177018Y273840D01*
X177018Y268943D02*
X169092Y268943D01*
X177018Y268943D02*
X177018Y266917D01*
X169092Y266917D01*
X169092Y268943D01*
X169092Y267558D02*
X177018Y267558D01*
X177018Y268199D02*
X169092Y268199D01*
X169092Y268840D02*
X177018Y268840D01*
X177018Y263943D02*
X169092Y263943D01*
X177018Y263943D02*
X177018Y261917D01*
X169092Y261917D01*
X169092Y263943D01*
X169092Y262558D02*
X177018Y262558D01*
X177018Y263199D02*
X169092Y263199D01*
X169092Y263840D02*
X177018Y263840D01*
X177018Y258943D02*
X169092Y258943D01*
X177018Y258943D02*
X177018Y256917D01*
X169092Y256917D01*
X169092Y258943D01*
X169092Y257558D02*
X177018Y257558D01*
X177018Y258199D02*
X169092Y258199D01*
X169092Y258840D02*
X177018Y258840D01*
X177018Y253943D02*
X169092Y253943D01*
X177018Y253943D02*
X177018Y251917D01*
X169092Y251917D01*
X169092Y253943D01*
X169092Y252558D02*
X177018Y252558D01*
X177018Y253199D02*
X169092Y253199D01*
X169092Y253840D02*
X177018Y253840D01*
X178892Y250043D02*
X178892Y242117D01*
X178892Y250043D02*
X180918Y250043D01*
X180918Y242117D01*
X178892Y242117D01*
X178892Y242758D02*
X180918Y242758D01*
X180918Y243399D02*
X178892Y243399D01*
X178892Y244040D02*
X180918Y244040D01*
X180918Y244681D02*
X178892Y244681D01*
X178892Y245322D02*
X180918Y245322D01*
X180918Y245963D02*
X178892Y245963D01*
X178892Y246604D02*
X180918Y246604D01*
X180918Y247245D02*
X178892Y247245D01*
X178892Y247886D02*
X180918Y247886D01*
X180918Y248527D02*
X178892Y248527D01*
X178892Y249168D02*
X180918Y249168D01*
X180918Y249809D02*
X178892Y249809D01*
X183892Y250043D02*
X183892Y242117D01*
X183892Y250043D02*
X185918Y250043D01*
X185918Y242117D01*
X183892Y242117D01*
X183892Y242758D02*
X185918Y242758D01*
X185918Y243399D02*
X183892Y243399D01*
X183892Y244040D02*
X185918Y244040D01*
X185918Y244681D02*
X183892Y244681D01*
X183892Y245322D02*
X185918Y245322D01*
X185918Y245963D02*
X183892Y245963D01*
X183892Y246604D02*
X185918Y246604D01*
X185918Y247245D02*
X183892Y247245D01*
X183892Y247886D02*
X185918Y247886D01*
X185918Y248527D02*
X183892Y248527D01*
X183892Y249168D02*
X185918Y249168D01*
X185918Y249809D02*
X183892Y249809D01*
X188892Y250043D02*
X188892Y242117D01*
X188892Y250043D02*
X190918Y250043D01*
X190918Y242117D01*
X188892Y242117D01*
X188892Y242758D02*
X190918Y242758D01*
X190918Y243399D02*
X188892Y243399D01*
X188892Y244040D02*
X190918Y244040D01*
X190918Y244681D02*
X188892Y244681D01*
X188892Y245322D02*
X190918Y245322D01*
X190918Y245963D02*
X188892Y245963D01*
X188892Y246604D02*
X190918Y246604D01*
X190918Y247245D02*
X188892Y247245D01*
X188892Y247886D02*
X190918Y247886D01*
X190918Y248527D02*
X188892Y248527D01*
X188892Y249168D02*
X190918Y249168D01*
X190918Y249809D02*
X188892Y249809D01*
X193892Y250043D02*
X193892Y242117D01*
X193892Y250043D02*
X195918Y250043D01*
X195918Y242117D01*
X193892Y242117D01*
X193892Y242758D02*
X195918Y242758D01*
X195918Y243399D02*
X193892Y243399D01*
X193892Y244040D02*
X195918Y244040D01*
X195918Y244681D02*
X193892Y244681D01*
X193892Y245322D02*
X195918Y245322D01*
X195918Y245963D02*
X193892Y245963D01*
X193892Y246604D02*
X195918Y246604D01*
X195918Y247245D02*
X193892Y247245D01*
X193892Y247886D02*
X195918Y247886D01*
X195918Y248527D02*
X193892Y248527D01*
X193892Y249168D02*
X195918Y249168D01*
X195918Y249809D02*
X193892Y249809D01*
X198892Y250043D02*
X198892Y242117D01*
X198892Y250043D02*
X200918Y250043D01*
X200918Y242117D01*
X198892Y242117D01*
X198892Y242758D02*
X200918Y242758D01*
X200918Y243399D02*
X198892Y243399D01*
X198892Y244040D02*
X200918Y244040D01*
X200918Y244681D02*
X198892Y244681D01*
X198892Y245322D02*
X200918Y245322D01*
X200918Y245963D02*
X198892Y245963D01*
X198892Y246604D02*
X200918Y246604D01*
X200918Y247245D02*
X198892Y247245D01*
X198892Y247886D02*
X200918Y247886D01*
X200918Y248527D02*
X198892Y248527D01*
X198892Y249168D02*
X200918Y249168D01*
X200918Y249809D02*
X198892Y249809D01*
X203892Y250043D02*
X203892Y242117D01*
X203892Y250043D02*
X205918Y250043D01*
X205918Y242117D01*
X203892Y242117D01*
X203892Y242758D02*
X205918Y242758D01*
X205918Y243399D02*
X203892Y243399D01*
X203892Y244040D02*
X205918Y244040D01*
X205918Y244681D02*
X203892Y244681D01*
X203892Y245322D02*
X205918Y245322D01*
X205918Y245963D02*
X203892Y245963D01*
X203892Y246604D02*
X205918Y246604D01*
X205918Y247245D02*
X203892Y247245D01*
X203892Y247886D02*
X205918Y247886D01*
X205918Y248527D02*
X203892Y248527D01*
X203892Y249168D02*
X205918Y249168D01*
X205918Y249809D02*
X203892Y249809D01*
D21*
X167466Y307340D03*
X177466Y307340D03*
X153590Y265430D03*
X143590Y265430D03*
D10*
X148590Y273130D03*
X148590Y283130D03*
D21*
X177466Y297815D03*
X167466Y297815D03*
D10*
X205740Y223600D03*
X205740Y233600D03*
X195580Y223600D03*
X195580Y233600D03*
X220980Y223600D03*
X220980Y233600D03*
D21*
X237410Y241300D03*
X227410Y241300D03*
X227410Y262890D03*
X237410Y262890D03*
D22*
X260130Y288290D03*
X232630Y288290D03*
D23*
X246380Y273040D03*
X246380Y303540D03*
D24*
X203550Y297800D03*
X215550Y297800D03*
X215550Y311800D03*
X203550Y311800D03*
D21*
X227410Y251460D03*
X237410Y251460D03*
X205660Y120650D03*
X195660Y120650D03*
X205660Y105410D03*
X195660Y105410D03*
X205660Y90170D03*
X195660Y90170D03*
D10*
X11176Y105744D03*
X11176Y115744D03*
D21*
X102790Y191262D03*
X92790Y191262D03*
D25*
X131180Y59690D03*
X131180Y46990D03*
X131180Y34290D03*
X131180Y21590D03*
X209180Y21590D03*
X209180Y34290D03*
X209180Y46990D03*
X209180Y59690D03*
D26*
X170180Y40640D03*
D27*
X237800Y162990D02*
X244800Y162990D01*
X237800Y162990D02*
X237800Y169990D01*
X244800Y169990D01*
X244800Y162990D01*
X244800Y165840D02*
X237800Y165840D01*
X237800Y168690D02*
X244800Y168690D01*
X244800Y180530D02*
X237800Y180530D01*
X237800Y187530D01*
X244800Y187530D01*
X244800Y180530D01*
X244800Y183380D02*
X237800Y183380D01*
X237800Y186230D02*
X244800Y186230D01*
X232100Y162990D02*
X225100Y162990D01*
X225100Y169990D01*
X232100Y169990D01*
X232100Y162990D01*
X232100Y165840D02*
X225100Y165840D01*
X225100Y168690D02*
X232100Y168690D01*
X232100Y180530D02*
X225100Y180530D01*
X225100Y187530D01*
X232100Y187530D01*
X232100Y180530D01*
X232100Y183380D02*
X225100Y183380D01*
X225100Y186230D02*
X232100Y186230D01*
D28*
X38006Y218270D03*
X58006Y218270D03*
D29*
X14006Y270270D03*
X82006Y270270D03*
D12*
X71374Y198240D03*
X71374Y213240D03*
X101092Y261486D03*
X101092Y276486D03*
D10*
X97790Y132000D03*
X97790Y122000D03*
X111760Y132000D03*
X111760Y122000D03*
D21*
X72470Y110744D03*
X82470Y110744D03*
X82216Y126238D03*
X72216Y126238D03*
D10*
X11176Y189150D03*
X11176Y179150D03*
X11176Y152574D03*
X11176Y142574D03*
X63246Y160100D03*
X63246Y170100D03*
X254000Y177720D03*
X254000Y167720D03*
X215900Y177720D03*
X215900Y167720D03*
D21*
X82470Y96774D03*
X72470Y96774D03*
X137240Y219710D03*
X147240Y219710D03*
X137240Y231140D03*
X147240Y231140D03*
X147240Y208280D03*
X137240Y208280D03*
X147240Y242570D03*
X137240Y242570D03*
X25828Y90170D03*
X15828Y90170D03*
X40720Y90170D03*
X50720Y90170D03*
D30*
X29960Y65864D03*
X91960Y65864D03*
X37460Y65864D03*
X84460Y65864D03*
D31*
X43460Y65864D03*
X78460Y65864D03*
X48460Y65864D03*
X53460Y65864D03*
X58460Y65864D03*
X63460Y65864D03*
X68460Y65864D03*
X73460Y65864D03*
D32*
X46960Y23864D03*
X74960Y23864D03*
D33*
X50136Y117474D03*
X43636Y117474D03*
X37136Y117474D03*
X30636Y117474D03*
X30636Y101474D03*
X37136Y101474D03*
X43636Y101474D03*
X50136Y101474D03*
D27*
X99188Y218662D02*
X99188Y227862D01*
X99188Y218662D02*
X96188Y218662D01*
X96188Y227862D01*
X99188Y227862D01*
X99188Y221512D02*
X96188Y221512D01*
X96188Y224362D02*
X99188Y224362D01*
X99188Y227212D02*
X96188Y227212D01*
X108688Y227862D02*
X108688Y218662D01*
X105688Y218662D01*
X105688Y227862D01*
X108688Y227862D01*
X108688Y221512D02*
X105688Y221512D01*
X105688Y224362D02*
X108688Y224362D01*
X108688Y227212D02*
X105688Y227212D01*
X118188Y227862D02*
X118188Y218662D01*
X115188Y218662D01*
X115188Y227862D01*
X118188Y227862D01*
X118188Y221512D02*
X115188Y221512D01*
X115188Y224362D02*
X118188Y224362D01*
X118188Y227212D02*
X115188Y227212D01*
X118188Y243562D02*
X118188Y252762D01*
X118188Y243562D02*
X115188Y243562D01*
X115188Y252762D01*
X118188Y252762D01*
X118188Y246412D02*
X115188Y246412D01*
X115188Y249262D02*
X118188Y249262D01*
X118188Y252112D02*
X115188Y252112D01*
X99188Y252762D02*
X99188Y243562D01*
X96188Y243562D01*
X96188Y252762D01*
X99188Y252762D01*
X99188Y246412D02*
X96188Y246412D01*
X96188Y249262D02*
X99188Y249262D01*
X99188Y252112D02*
X96188Y252112D01*
D34*
X115102Y287482D03*
X115102Y262682D03*
X132802Y262682D03*
X132802Y287482D03*
D33*
X50390Y145668D03*
X43890Y145668D03*
X37390Y145668D03*
X30890Y145668D03*
X30890Y129668D03*
X37390Y129668D03*
X43890Y129668D03*
X50390Y129668D03*
X50390Y173608D03*
X43890Y173608D03*
X37390Y173608D03*
X30890Y173608D03*
X30890Y157608D03*
X37390Y157608D03*
X43890Y157608D03*
X50390Y157608D03*
M02*
