M48
;GenerationSoftware,Autodesk,EAGLE,9.6.2*%
;CreationDate,2022-04-14T14:13:19Z*%
FMAT,2
ICI,OFF
METRIC,TZ,000.000
T4C0.305
T3C0.600
T2C0.630
T1C0.650
%
G90
M71
T1
X10416Y2386
X1776Y2386
X10416Y6211
X1776Y6211
T2
X3096Y5385
X9096Y5385
X3096Y5486
X9096Y5486
T3
X9096Y5385
X9096Y5486
T4
X889Y762
X6096Y762
X16002Y762
X19406Y2108
X25146Y25781
X23495Y22733
X24892Y22860
X19241Y26543
X7747Y23114
X6274Y26365
X22606Y5969
X2692Y20498
X22987Y31039
X3035Y28245
X10211Y28727
X12421Y27737
X4547Y8052
X787Y7849
X3327Y26340
X15951Y30124
X22417Y12923
X13807Y11170
X5359Y16561
X6553Y14097
X16053Y24943
X15977Y22454
X2311Y18669
X13324Y8986
X11965Y7639
X9500Y9931
X4978Y13767
X14224Y2438
X18633Y11246
X2692Y22885
X14478Y5588
X17526Y8382
X16688Y20345
X11455Y16917
X13284Y10414
X20168Y15037
X12141Y19279
X2591Y10947
X14478Y6604
X2489Y13741
X19558Y19202
X6223Y10439
X9042Y10846
X10490Y15799
X6096Y11481
X14478Y4572
X18288Y9652
X11379Y17882
X2057Y16561
X14478Y12091
X5791Y13005
X2235Y10135
X1219Y20117
X12649Y12090
X21819Y18923
X13564Y12090
X25781Y10465
X11862Y1384
X4115Y13754
X18542Y12954
X22555Y4623
X19660Y13183
X22581Y7112
X17232Y21203
X15845Y21476
X20218Y15977
X15916Y23435
X17704Y23647
X20295Y17450
X21260Y24447
X22261Y27300
X15759Y27570
X16256Y25857
X19431Y29667
X16891Y28600
X7341Y5004
X3566Y7884
X4851Y5004
X2642Y7645
X1651Y12852
X12700Y20625
X889Y4318
X1295Y24663
X6579Y28219
X24486Y19558
X26543Y18021
X26010Y31166
X21325Y10713
X15494Y16256
X17780Y10922
X24714Y10490
M30